<?xml version="1.0" encoding="UTF-8" standalone="no"?>
<!-- Created with Inkscape (http://www.inkscape.org/) -->

<svg
   xmlns:dc="http://purl.org/dc/elements/1.1/"
   xmlns:cc="http://creativecommons.org/ns#"
   xmlns:rdf="http://www.w3.org/1999/02/22-rdf-syntax-ns#"
   xmlns:svg="http://www.w3.org/2000/svg"
   xmlns="http://www.w3.org/2000/svg"
   xmlns:sodipodi="http://sodipodi.sourceforge.net/DTD/sodipodi-0.dtd"
   xmlns:inkscape="http://www.inkscape.org/namespaces/inkscape"
   version="1.1"
   id="svg2"
   xml:space="preserve"
   width="209.99913"
   height="119.71899"
   viewBox="0 0 209.99913 119.71899"
   sodipodi:docname="Caisse nationale d'assurance maladie (logo).svg"
   inkscape:version="0.92.2 (5c3e80d, 2017-08-06)"><metadata
     id="metadata8"><rdf:RDF><cc:Work
         rdf:about=""><dc:format>image/svg+xml</dc:format><dc:type
           rdf:resource="http://purl.org/dc/dcmitype/StillImage" /><dc:title></dc:title></cc:Work></rdf:RDF></metadata><defs
     id="defs6"><clipPath
       clipPathUnits="userSpaceOnUse"
       id="clipPath90"><path
         d="m 0,13.085 h 595.275 v 111.64 H 0 Z"
         id="path88"
         inkscape:connector-curvature="0" /></clipPath></defs><sodipodi:namedview
     pagecolor="#ffffff"
     bordercolor="#666666"
     borderopacity="1"
     objecttolerance="10"
     gridtolerance="10"
     guidetolerance="10"
     inkscape:pageopacity="0"
     inkscape:pageshadow="2"
     inkscape:window-width="1920"
     inkscape:window-height="1017"
     id="namedview4"
     showgrid="false"
     fit-margin-left="5"
     fit-margin-top="5"
     fit-margin-bottom="5"
     fit-margin-right="5"
     inkscape:zoom="2.2164415"
     inkscape:cx="197.08275"
     inkscape:cy="33.920489"
     inkscape:window-x="-8"
     inkscape:window-y="-8"
     inkscape:window-maximized="1"
     inkscape:current-layer="g10" /><g
     id="g10"
     inkscape:groupmode="layer"
     inkscape:label="rapport_dactivite_2014_la_sante_pour_tous"
     transform="matrix(1.3333333,0,0,-1.3333333,-588.54973,138.6543)"><g
       id="g417"
       transform="matrix(1.2883664,0,0,1.2883664,-149.99726,-17.041331)"><path
         inkscape:connector-curvature="0"
         id="path74"
         style="fill:#95c11f;fill-opacity:1;fill-rule:nonzero;stroke:none"
         d="m 472.154,57.368 h 20.929 v 0.26 h -20.929 z" /><path
         inkscape:connector-curvature="0"
         id="path76"
         style="fill:#95c11f;fill-opacity:1;fill-rule:nonzero;stroke:none"
         d="m 472.575,63.257 h 23.096 v 0.26 h -23.096 z" /><path
         inkscape:connector-curvature="0"
         id="path78"
         style="fill:#95c11f;fill-opacity:1;fill-rule:nonzero;stroke:none"
         d="m 472.154,69.149 h 23.823 v 0.259 h -23.823 z" /><path
         inkscape:connector-curvature="0"
         id="path80"
         style="fill:#95c11f;fill-opacity:1;fill-rule:nonzero;stroke:none"
         d="m 472.154,75.038 h 23.823 v 0.261 h -23.823 z" /><path
         inkscape:connector-curvature="0"
         id="path82"
         style="fill:#95c11f;fill-opacity:1;fill-rule:nonzero;stroke:none"
         d="m 472.154,80.929 h 23.823 v 0.261 h -23.823 z" /><g
         id="g84"><g
           clip-path="url(#clipPath90)"
           id="g86"><g
             transform="translate(464.5699,68.8986)"
             id="g92"><path
               inkscape:connector-curvature="0"
               id="path94"
               style="fill:#005da9;fill-opacity:1;fill-rule:nonzero;stroke:none"
               d="M 0,0 C 0.102,0.154 0.182,0.377 0.187,0.616 0.193,0.971 0.012,1.182 -0.262,1.186 -0.509,1.19 -0.661,1.049 -0.802,0.689 -0.97,0.253 -1.206,-0.015 -1.581,-0.007 -2,-0.001 -2.305,0.351 -2.296,0.875 c 0.005,0.271 0.073,0.473 0.142,0.588 L -1.873,1.362 C -1.925,1.28 -2.005,1.1 -2.009,0.857 -2.015,0.491 -1.798,0.347 -1.615,0.344 -1.363,0.34 -1.236,0.501 -1.086,0.87 -0.899,1.322 -0.679,1.546 -0.285,1.538 0.13,1.531 0.489,1.221 0.478,0.587 0.473,0.328 0.388,0.045 0.289,-0.096 Z" /></g><g
             transform="translate(464.041,72.8426)"
             id="g96"><path
               inkscape:connector-curvature="0"
               id="path98"
               style="fill:#005da9;fill-opacity:1;fill-rule:nonzero;stroke:none"
               d="m 0,0 -0.145,-1.031 0.96,-0.135 0.162,1.154 0.289,-0.041 -0.211,-1.502 -2.664,0.375 0.202,1.443 0.289,-0.04 -0.153,-1.096 0.84,-0.118 0.145,1.032 z m -2.033,0.223 0.395,-0.576 -0.04,-0.281 -0.414,0.438 z" /></g><g
             transform="translate(465.897,75.4186)"
             id="g100"><path
               inkscape:connector-curvature="0"
               id="path102"
               style="fill:#005da9;fill-opacity:1;fill-rule:nonzero;stroke:none"
               d="m 0,0 c 0.027,-0.137 0.019,-0.403 -0.069,-0.719 -0.204,-0.73 -0.817,-1.148 -1.672,-0.909 -0.814,0.228 -1.207,0.93 -0.982,1.733 0.089,0.319 0.216,0.507 0.287,0.584 L -2.187,0.527 C -2.284,0.422 -2.379,0.254 -2.44,0.038 c -0.169,-0.607 0.107,-1.119 0.787,-1.309 0.638,-0.178 1.145,0.074 1.319,0.701 0.058,0.208 0.074,0.428 0.046,0.58 z" /></g><g
             transform="translate(463.908,77.4946)"
             id="g104"><path
               inkscape:connector-curvature="0"
               id="path106"
               style="fill:#005da9;fill-opacity:1;fill-rule:nonzero;stroke:none"
               d="M 0,0 1.46,-0.646 C 2.008,-0.888 2.35,-0.748 2.495,-0.42 2.656,-0.058 2.519,0.286 1.979,0.526 L 0.52,1.171 0.662,1.492 2.1,0.856 C 2.855,0.521 2.986,-0.011 2.749,-0.545 2.527,-1.049 2.074,-1.302 1.307,-0.963 l -1.448,0.642 z" /></g><g
             transform="translate(466.4769,79.8056)"
             id="g108"><path
               inkscape:connector-curvature="0"
               id="path110"
               style="fill:#005da9;fill-opacity:1;fill-rule:nonzero;stroke:none"
               d="M 0,0 0.189,0.301 C 0.386,0.615 0.34,0.923 0.08,1.088 -0.215,1.271 -0.478,1.14 -0.673,0.829 -0.762,0.687 -0.81,0.58 -0.828,0.52 Z m -1.219,0.356 c 0.062,0.167 0.179,0.397 0.303,0.597 0.198,0.314 0.388,0.481 0.606,0.543 C -0.141,1.547 0.056,1.515 0.235,1.403 0.532,1.217 0.611,0.898 0.544,0.611 L 0.553,0.605 C 0.722,0.739 0.951,0.742 1.222,0.65 1.589,0.525 1.841,0.441 1.958,0.43 L 1.765,0.126 C 1.679,0.129 1.451,0.202 1.129,0.318 0.772,0.449 0.576,0.398 0.397,0.138 L 0.222,-0.139 1.21,-0.76 1.025,-1.054 Z" /></g><g
             transform="translate(467.103,82.8986)"
             id="g112"><path
               inkscape:connector-curvature="0"
               id="path114"
               style="fill:#005da9;fill-opacity:1;fill-rule:nonzero;stroke:none"
               d="M 0,0 2.11,-1.669 1.891,-1.945 -0.218,-0.276 Z" /></g><g
             transform="translate(468.4349,83.9796)"
             id="g116"><path
               inkscape:connector-curvature="0"
               id="path118"
               style="fill:#005da9;fill-opacity:1;fill-rule:nonzero;stroke:none"
               d="M 0,0 -0.567,-0.591 -0.781,-0.387 0.597,1.052 0.81,0.848 0.243,0.254 1.972,-1.402 1.73,-1.656 Z" /></g><g
             transform="translate(470.3259,86.9426)"
             id="g120"><path
               inkscape:connector-curvature="0"
               id="path122"
               style="fill:#005da9;fill-opacity:1;fill-rule:nonzero;stroke:none"
               d="m 0,0 -0.096,-0.692 -0.219,-0.18 -0.011,0.602 z m 1.351,-1.536 -0.803,-0.663 0.618,-0.749 0.899,0.744 0.184,-0.225 -1.168,-0.966 -1.715,2.073 1.125,0.929 0.185,-0.225 -0.852,-0.704 0.542,-0.655 0.802,0.664 z" /></g><g
             transform="translate(474.183,86.0906)"
             id="g124"><path
               inkscape:connector-curvature="0"
               id="path126"
               style="fill:#005da9;fill-opacity:1;fill-rule:nonzero;stroke:none"
               d="M 0,0 C 0.183,-0.014 0.417,0.025 0.627,0.139 0.94,0.309 1.035,0.568 0.904,0.811 0.788,1.029 0.591,1.09 0.207,1.037 -0.256,0.969 -0.605,1.043 -0.783,1.374 -0.983,1.743 -0.824,2.182 -0.365,2.43 -0.126,2.559 0.083,2.6 0.218,2.595 L 0.268,2.301 C 0.17,2.306 -0.025,2.287 -0.238,2.172 -0.562,1.997 -0.58,1.737 -0.492,1.575 -0.373,1.355 -0.171,1.323 0.223,1.373 0.71,1.432 1.012,1.35 1.2,1.003 1.397,0.637 1.303,0.173 0.745,-0.128 0.516,-0.252 0.228,-0.315 0.057,-0.3 Z" /></g><g
             transform="translate(477.2419,87.3386)"
             id="g128"><path
               inkscape:connector-curvature="0"
               id="path130"
               style="fill:#005da9;fill-opacity:1;fill-rule:nonzero;stroke:none"
               d="M 0,0 C 0.515,0.195 0.627,0.779 0.411,1.352 0.222,1.852 -0.237,2.275 -0.779,2.07 -1.32,1.866 -1.398,1.261 -1.192,0.716 c 0.2,-0.53 0.677,-0.909 1.187,-0.717 z m 0.084,-0.269 c -0.668,-0.253 -1.326,0.086 -1.613,0.848 -0.302,0.8 -0.007,1.509 0.665,1.763 C -0.172,2.603 0.471,2.244 0.752,1.496 1.079,0.634 0.727,-0.027 0.088,-0.268 Z" /></g><g
             transform="translate(480.9399,88.1976)"
             id="g132"><path
               inkscape:connector-curvature="0"
               id="path134"
               style="fill:#005da9;fill-opacity:1;fill-rule:nonzero;stroke:none"
               d="m 0,0 c -0.109,-0.088 -0.348,-0.206 -0.667,-0.277 -0.742,-0.162 -1.398,0.185 -1.588,1.05 -0.181,0.826 0.255,1.503 1.07,1.682 0.323,0.07 0.549,0.046 0.648,0.019 L -0.561,2.179 C -0.7,2.213 -0.892,2.221 -1.112,2.172 -1.727,2.038 -2.05,1.553 -1.898,0.864 c 0.142,-0.648 0.601,-0.976 1.237,-0.836 0.21,0.046 0.412,0.135 0.534,0.23 z" /></g><g
             transform="translate(481.801,90.9146)"
             id="g136"><path
               inkscape:connector-curvature="0"
               id="path138"
               style="fill:#005da9;fill-opacity:1;fill-rule:nonzero;stroke:none"
               d="m 0,0 0.299,-2.674 -0.35,-0.039 -0.299,2.674 z" /></g><g
             transform="translate(484.379,89.4596)"
             id="g140"><path
               inkscape:connector-curvature="0"
               id="path142"
               style="fill:#005da9;fill-opacity:1;fill-rule:nonzero;stroke:none"
               d="m 0,0 -0.27,0.774 c -0.056,0.174 -0.097,0.335 -0.138,0.49 H -0.42 C -0.455,1.108 -0.499,0.94 -0.55,0.777 l -0.259,-0.78 z m -0.881,-0.274 -0.275,-0.848 -0.36,-10e-4 0.904,2.693 0.418,0.002 0.929,-2.686 -0.371,-0.002 -0.292,0.846 z" /></g><g
             transform="translate(486.145,90.9426)"
             id="g144"><path
               inkscape:connector-curvature="0"
               id="path146"
               style="fill:#005da9;fill-opacity:1;fill-rule:nonzero;stroke:none"
               d="M 0,0 0.347,-0.043 0.05,-2.424 1.192,-2.566 1.156,-2.856 -0.333,-2.67 Z" /></g><g
             transform="translate(489.6019,88.8526)"
             id="g148"><path
               inkscape:connector-curvature="0"
               id="path150"
               style="fill:#005da9;fill-opacity:1;fill-rule:nonzero;stroke:none"
               d="M 0,0 -1.013,0.247 -1.244,-0.696 -0.111,-0.972 -0.18,-1.256 -1.653,-0.895 -1.014,1.718 0.402,1.372 0.332,1.09 -0.742,1.352 -0.945,0.526 0.068,0.279 Z" /></g><g
             transform="translate(519.929,44.5846)"
             id="g152"><path
               inkscape:connector-curvature="0"
               id="path154"
               style="fill:#005da9;fill-opacity:1;fill-rule:nonzero;stroke:none"
               d="m 0,0 c 0,-1.049 -0.305,-1.607 -1.206,-1.607 -0.78,0 -1.206,0.506 -1.206,1.712 v 3.667 c 0,1.206 0.426,1.711 1.206,1.711 C -0.429,5.483 0,4.978 0,3.772 Z M 2.198,-0.224 V 10.748 H 0.003 V 7.027 C -0.132,7.143 -0.579,7.364 -1.206,7.364 -3.694,7.364 -4.59,5.77 -4.59,3.475 V 0.402 c 0,-2.294 0.896,-3.889 3.384,-3.889 1.871,0 3.404,0.887 3.404,3.263" /></g><g
             transform="translate(491.897,55.3326)"
             id="g156"><path
               inkscape:connector-curvature="0"
               id="path158"
               style="fill:#005da9;fill-opacity:1;fill-rule:nonzero;stroke:none"
               d="m 0,0 v -14.041 h -2.17 v 10.977 h -0.04 l -2.179,-10.977 h -1.168 l -2.18,10.977 H -7.775 V -14.041 H -9.946 V 0 h 3.24 l 1.714,-8.202 h 0.038 L -3.242,0 Z" /></g><path
             inkscape:connector-curvature="0"
             id="path160"
             style="fill:#005da9;fill-opacity:1;fill-rule:nonzero;stroke:none"
             d="m 524.143,51.756 h 2.177 V 41.292 h -2.177 z" /><g
             transform="translate(526.502,54.2366)"
             id="g162"><path
               inkscape:connector-curvature="0"
               id="path164"
               style="fill:#005da9;fill-opacity:1;fill-rule:nonzero;stroke:none"
               d="m 0,0 c 0,-0.702 -0.568,-1.27 -1.27,-1.27 -0.702,0 -1.271,0.568 -1.271,1.27 0,0.702 0.569,1.271 1.271,1.271 C -0.568,1.271 0,0.702 0,0" /></g><g
             transform="translate(511.324,43.9286)"
             id="g166"><path
               inkscape:connector-curvature="0"
               id="path168"
               style="fill:#005da9;fill-opacity:1;fill-rule:nonzero;stroke:none"
               d="m 0,0 c -0.458,-0.445 -0.859,-0.978 -1.543,-0.978 -0.612,0 -1.051,0.445 -1.051,1.233 0,1.474 1.137,1.817 2.594,2.141 z m 2.184,-1.528 v 6.709 c 0,1.906 -1.148,2.839 -3.17,2.839 -2.042,0 -3.384,-1.147 -3.5,-3.266 h 2.178 c 0.039,0.894 0.253,1.477 1.244,1.477 0.721,0 1.07,-0.465 1.07,-1.341 L 0.008,4.073 c -3.237,-0.442 -4.751,-2.085 -4.751,-4.121 0,-1.435 0.825,-2.789 2.472,-2.789 1.142,0 1.508,0.29 2.385,0.979 0.015,-0.198 0.058,-0.434 0.124,-0.779 H 2.32 c -0.058,0.351 -0.136,0.779 -0.136,1.109" /></g><g
             transform="translate(498.157,43.9286)"
             id="g170"><path
               inkscape:connector-curvature="0"
               id="path172"
               style="fill:#005da9;fill-opacity:1;fill-rule:nonzero;stroke:none"
               d="m 0,0 c -0.456,-0.445 -0.856,-0.978 -1.541,-0.978 -0.613,0 -1.052,0.445 -1.052,1.233 0,1.474 1.137,1.817 2.593,2.141 z m 2.186,-1.528 v 6.709 c 0,1.906 -1.148,2.839 -3.171,2.839 -2.041,0 -3.383,-1.147 -3.5,-3.266 h 2.179 c 0.038,0.894 0.253,1.477 1.244,1.477 0.721,0 1.069,-0.465 1.069,-1.341 L 0.009,4.073 c -3.238,-0.442 -4.751,-2.085 -4.751,-4.121 0,-1.435 0.825,-2.789 2.474,-2.789 1.14,0 1.506,0.29 2.384,0.979 0.014,-0.198 0.057,-0.434 0.124,-0.779 h 2.081 c -0.057,0.351 -0.135,0.779 -0.135,1.109" /></g><g
             transform="translate(505.459,42.9416)"
             id="g174"><path
               inkscape:connector-curvature="0"
               id="path176"
               style="fill:#005da9;fill-opacity:1;fill-rule:nonzero;stroke:none"
               d="m 0,0 c -1.116,0.002 -1.193,0.616 -1.193,1.381 v 11.01 H -3.372 V 1.463 c 0,-1.769 0.785,-3.253 3.384,-3.253 H 0.227 V 0 Z" /></g><g
             transform="translate(530.324,48.4476)"
             id="g178"><path
               inkscape:connector-curvature="0"
               id="path180"
               style="fill:#005da9;fill-opacity:1;fill-rule:nonzero;stroke:none"
               d="M 0,0 C 0,1.206 0.427,1.711 1.205,1.711 1.984,1.711 2.411,1.206 2.411,0 V -0.544 H 0 Z m 4.59,-2.334 v 1.946 c 0,2.295 -0.894,3.889 -3.385,3.889 -2.489,0 -3.382,-1.594 -3.382,-3.889 v -3.073 c 0,-2.294 0.893,-3.889 3.382,-3.889 2.255,0 3.204,1.306 3.362,3.263 0,0 0.013,0.186 0.003,0.271 H 2.409 L 2.405,-4.086 C 2.351,-5.122 1.931,-5.562 1.205,-5.562 0.427,-5.562 0,-5.056 0,-3.85 v 1.516 z" /></g><g
             transform="translate(511.7729,62.4226)"
             id="g182"><path
               inkscape:connector-curvature="0"
               id="path184"
               style="fill:#005da9;fill-opacity:1;fill-rule:nonzero;stroke:none"
               d="M 0,0 H 2.011 L 1.015,6.184 H 0.976 Z M -0.755,-5.055 H -3.087 L -0.501,8.984 H 2.494 L 5.081,-5.055 H 2.747 l -0.446,3.213 h -2.593 z" /></g><g
             transform="translate(541.2659,57.3676)"
             id="g186"><path
               inkscape:connector-curvature="0"
               id="path188"
               style="fill:#005da9;fill-opacity:1;fill-rule:nonzero;stroke:none"
               d="M 0,0 V 10.46 H 2.081 V 9.57 H 2.12 c 0.524,0.893 1.76,1.087 2.47,1.087 H 5.037 V 8.381 C 4.648,8.478 4.279,8.595 3.635,8.595 2.898,8.595 2.179,8.129 2.179,7.194 V 0 Z" /></g><g
             transform="translate(539.35,67.8276)"
             id="g190"><path
               inkscape:connector-curvature="0"
               id="path192"
               style="fill:#005da9;fill-opacity:1;fill-rule:evenodd;stroke:none"
               d="m 0,0 v -6.765 c 0,-2.294 -0.895,-3.891 -3.385,-3.891 -2.487,0 -3.382,1.597 -3.382,3.891 V 0 h 2.179 v -7.155 c 0,-1.205 0.427,-1.711 1.203,-1.711 0.78,0 1.207,0.506 1.207,1.711 V 0 Z" /></g><g
             transform="translate(555.278,57.3676)"
             id="g194"><path
               inkscape:connector-curvature="0"
               id="path196"
               style="fill:#005da9;fill-opacity:1;fill-rule:nonzero;stroke:none"
               d="m 0,0 v 6.766 c 0,2.222 0.894,3.891 3.384,3.891 2.489,0 3.384,-1.669 3.384,-3.891 V 0 H 4.589 V 7.141 C 4.589,8.262 4.137,8.788 3.384,8.788 2.63,8.788 2.177,8.262 2.177,7.141 V 0 Z" /></g><g
             transform="translate(551.3749,60.0026)"
             id="g198"><path
               inkscape:connector-curvature="0"
               id="path200"
               style="fill:#005da9;fill-opacity:1;fill-rule:nonzero;stroke:none"
               d="m 0,0 c -0.454,-0.444 -0.856,-0.976 -1.541,-0.976 -0.613,0 -1.051,0.444 -1.051,1.232 0,1.475 1.137,1.818 2.592,2.143 z m 2.187,-1.527 v 6.71 c 0,1.905 -1.149,2.839 -3.171,2.839 -2.042,0 -3.384,-1.147 -3.5,-3.268 h 2.179 c 0.038,0.895 0.252,1.479 1.244,1.479 0.72,0 1.069,-0.466 1.069,-1.342 L 0.01,4.074 c -3.238,-0.442 -4.75,-2.085 -4.75,-4.121 0,-1.434 0.824,-2.789 2.473,-2.789 1.139,0 1.506,0.291 2.382,0.978 0.016,-0.197 0.06,-0.433 0.125,-0.777 h 2.08 c -0.055,0.35 -0.133,0.778 -0.133,1.108" /></g><g
             transform="translate(505.459,59.0136)"
             id="g202"><path
               inkscape:connector-curvature="0"
               id="path204"
               style="fill:#005da9;fill-opacity:1;fill-rule:nonzero;stroke:none"
               d="m 0,0 c -1.116,0.003 -1.193,0.617 -1.193,1.382 v 11.01 H -3.372 V 1.463 c 0,-1.767 0.785,-3.252 3.384,-3.252 H 0.227 V 0 Z" /></g><g
             transform="translate(519.718,65.3986)"
             id="g206"><path
               inkscape:connector-curvature="0"
               id="path208"
               style="fill:#005da9;fill-opacity:1;fill-rule:nonzero;stroke:none"
               d="m 0,0 c 0,0.544 0.407,0.836 0.997,0.836 0.741,0 1.046,-0.406 1.172,-1.303 l 1.942,0.168 c -0.198,1.35 -0.876,2.925 -3.217,2.925 -1.705,0 -3.045,-1.148 -3.045,-2.801 0,-2.859 4.273,-3.54 4.273,-5.348 0,-0.584 -0.426,-0.915 -1.025,-0.915 -1.035,0 -1.36,0.778 -1.502,1.653 L -2.42,-5.107 c 0.237,-1.989 1.507,-3.12 3.498,-3.12 1.857,0 3.198,0.953 3.198,2.82 C 4.276,-2.295 0,-1.633 0,0" /></g><g
             transform="translate(527.123,65.3986)"
             id="g210"><path
               inkscape:connector-curvature="0"
               id="path212"
               style="fill:#005da9;fill-opacity:1;fill-rule:nonzero;stroke:none"
               d="m 0,0 c 0,0.544 0.406,0.836 0.994,0.836 0.732,0 1.037,-0.406 1.163,-1.303 l 1.942,0.168 c -0.196,1.35 -0.876,2.925 -3.206,2.925 -1.705,0 -3.047,-1.148 -3.047,-2.801 0,-2.859 4.265,-3.54 4.265,-5.348 0,-0.584 -0.426,-0.915 -1.017,-0.915 -1.033,0 -1.358,0.778 -1.5,1.653 l -2.015,-0.322 c 0.237,-1.989 1.507,-3.12 3.497,-3.12 1.847,0 3.187,0.953 3.187,2.82 C 4.263,-2.295 0,-1.633 0,0" /></g><g
             transform="translate(573.785,64.5236)"
             id="g214"><path
               inkscape:connector-curvature="0"
               id="path216"
               style="fill:#005da9;fill-opacity:1;fill-rule:nonzero;stroke:none"
               d="M 0,0 C 0,1.206 0.428,1.711 1.207,1.711 1.985,1.711 2.412,1.206 2.412,0 V -0.545 H 0 Z m 4.59,-2.335 v 1.945 c 0,2.295 -0.891,3.891 -3.383,3.891 -2.49,0 -3.383,-1.596 -3.383,-3.891 v -3.072 c 0,-2.295 0.893,-3.89 3.383,-3.89 2.253,0 3.203,1.306 3.361,3.263 0,0 0.012,0.187 0.003,0.272 H 2.41 L 2.407,-4.087 C 2.352,-5.122 1.933,-5.563 1.207,-5.563 0.428,-5.563 0,-5.058 0,-3.851 v 1.516 z" /></g><g
             transform="translate(506.4869,71.4056)"
             id="g218"><path
               inkscape:connector-curvature="0"
               id="path220"
               style="fill:#005da9;fill-opacity:1;fill-rule:nonzero;stroke:none"
               d="M 0,0 V -1.991 H 0.633 C 0.433,-2.495 0.007,-3.578 0.007,-3.578 h 1.064 l 0.92,1.587 V 0 Z" /></g><g
             transform="translate(568.177,60.8306)"
             id="g222"><path
               inkscape:connector-curvature="0"
               id="path224"
               style="fill:#005da9;fill-opacity:1;fill-rule:nonzero;stroke:none"
               d="m 0,0 -0.002,-0.394 c -0.054,-1.035 -0.474,-1.476 -1.199,-1.476 -0.78,0 -1.206,0.505 -1.206,1.712 v 3.851 c 0,1.206 0.426,1.711 1.206,1.711 0.778,0 1.206,-0.505 1.206,-1.711 V 3.304 L 2.182,3.303 c 0,2.295 -0.894,3.891 -3.383,3.891 -2.49,0 -3.384,-1.596 -3.384,-3.891 V 0.231 c 0,-2.295 0.894,-3.89 3.384,-3.89 2.657,0 3.369,1.875 3.369,3.659 z" /></g><g
             transform="translate(473.4639,74.1666)"
             id="g226"><path
               inkscape:connector-curvature="0"
               id="path228"
               style="fill:#005da9;fill-opacity:1;fill-rule:evenodd;stroke:none"
               d="m 0,0 c 0.322,-0.719 0.073,-1.748 -0.383,-2.261 0.808,-1.026 2.83,-0.598 3.916,-0.305 0.295,0.058 0.529,0.587 0.81,0.382 0.073,-0.06 0.557,0.455 0.498,-0.031 0,-0.293 -0.131,-0.607 -0.435,-0.72 C 4.178,-3.019 3.524,-3.214 3.524,-3.214 2.364,-3.58 1.733,-3.742 0.572,-4.301 0.037,-4.584 0.175,-5.613 0.25,-5.987 c 0.073,-0.374 0.432,-1.717 0.117,-2.385 -0.259,-0.546 -1.159,-1.052 -1.175,-1.727 0,-0.294 0.488,-0.65 0.206,-0.889 -0.182,-0.155 -0.317,-0.18 -0.428,-0.077 0,0 -0.871,0.897 -0.762,1.204 -0.007,0.119 0.979,1.533 0.557,2.171 -0.235,-0.22 -0.262,-0.818 -0.737,-1.036 -0.224,-0.102 -0.547,0.157 -0.739,0.048 -0.076,-0.045 -0.067,-0.347 -0.139,-0.419 -0.072,-0.074 -0.388,-0.063 -0.456,0.072 -0.183,0.368 -0.111,0.997 -0.043,1.306 0.1,0.459 1.056,-0.044 0.746,0.609 -0.114,0.239 -0.26,0.552 -0.249,1.055 0.009,0.386 0.33,0.831 0.013,1.026 -0.354,0.178 -1.193,0.55 -1.209,0.99 -0.099,1.046 1.843,1.046 2.285,1.986 0,0.453 -0.568,0.838 -0.455,1.553 0.056,0.363 0.338,0.778 0.805,0.841 C -0.829,0.421 -0.47,0.352 0,0" /></g><g
             transform="translate(498.989,73.9096)"
             id="g230"><path
               inkscape:connector-curvature="0"
               id="path232"
               style="fill:#005da9;fill-opacity:1;fill-rule:evenodd;stroke:none"
               d="M 0,0 C 0.074,0.499 -0.231,1.661 -0.076,2.138 L 0.81,1.677 C 0.621,1.365 0.246,0.669 0,0 M 1.72,2.377 C 0.532,3.142 -0.499,4.491 -1.836,4.269 -2.54,4.329 -1.966,5.077 -2.158,5.37 -2.481,5.943 -2.517,6.159 -3.773,6.038 -4.119,6.004 -4.395,5.877 -4.523,5.576 -4.636,5.24 -4.532,5.32 -4.613,5.007 -4.715,4.695 -5.086,4.55 -4.728,4.314 c 0.029,-0.102 0.026,-0.278 0,-0.602 -0.019,-0.226 0.265,-0.205 0.382,-0.278 -1.425,-1.043 -3.988,-0.855 -5.243,-0.036 -0.232,0.151 -1.042,0.118 -1.044,0.026 0.002,-0.211 0.527,-0.257 0.717,-0.477 -0.087,-0.03 -0.24,0.005 -0.173,-0.126 0.065,-0.131 1.025,-0.308 1.028,-0.308 0.736,-0.499 1.881,-0.738 2.774,-0.914 1.821,-0.27 2.334,-0.17 2.572,-1.335 0.241,-1.179 -0.04,-2.266 -0.309,-3.874 -0.219,-1.438 0.08,-2.332 0.309,-3.741 0.043,-0.261 0.178,-0.691 0.05,-0.802 -0.253,-0.223 -0.918,-0.415 -1.204,-0.665 -0.124,-0.411 1.031,-0.147 1.8,-0.187 0.367,-0.029 0.455,0.363 0.455,0.598 0.068,2.201 0.133,2.89 0.485,4.269 0.207,-1.189 0.232,-3.189 0.496,-4.394 -0.301,-0.356 -1.105,-0.676 -0.906,-0.87 0.234,-0.22 0.633,-0.183 0.843,-0.13 0.491,0.119 0.767,0.272 1.124,0.596 0,0 0.732,4.829 0.602,7.22 -0.073,1.331 1.235,2.097 1.896,3.286 0.16,0.308 0.153,0.576 -0.206,0.807" /></g><g
             transform="translate(484.7319,80.5346)"
             id="g234"><path
               inkscape:connector-curvature="0"
               id="path236"
               style="fill:#005da9;fill-opacity:1;fill-rule:evenodd;stroke:none"
               d="m 0,0 c 0.516,-0.094 1.721,-0.436 1.862,-0.464 0.141,-0.029 0.496,-0.36 0.605,-0.386 0.059,-0.014 0.077,-0.023 0.128,0.07 0.049,0.092 0.255,-0.053 0.466,0.01 0.138,0.041 0.27,0.411 0.236,0.453 C 3.162,-0.155 2.46,0.034 2.121,0.036 1.725,0.168 0.804,0.545 0.111,0.765 -1.456,1.261 -3.091,2.011 -4.591,1.118 -5.218,1.376 -5.229,2.19 -6.313,2.105 -6.829,2.065 -7.202,1.665 -7.326,1.309 -7.452,0.952 -7.503,0.508 -7.271,0.067 c 0.128,-0.243 0.378,-0.362 0.627,-0.446 0.124,-0.042 0.256,-0.07 0.38,-0.114 0.178,-0.062 0.212,-0.205 0.414,-0.176 0.151,0.023 0.276,0.046 0.433,0.037 0.142,-0.009 0.507,-0.066 0.568,0.127 0.003,0 0.008,0 0.013,-0.001 0.013,-0.358 -0.056,-0.885 -0.241,-0.974 -0.249,-0.059 -0.359,0.097 -0.964,0.272 -0.598,0.172 -2.01,0.351 -2.036,-0.73 -0.045,-1.735 0.163,-2.293 -1.036,-3.764 -0.207,-0.254 -0.557,-0.269 -0.352,-0.535 0.162,-0.165 0.425,-0.04 0.55,0.063 0.305,-0.776 1.336,0.378 1.562,0.556 0.465,0.364 -0.062,0.682 0.159,1.033 0.379,0.737 0.964,1.037 1.088,1.588 0.604,-0.471 1.338,-0.839 2.089,-0.779 0.309,0.059 0.592,0.175 0.941,0.529 0.35,0.354 0.444,1.481 0.475,2.262 C -2.537,0.602 -1.442,0.263 0,0" /></g><g
             transform="translate(495.1429,57.9096)"
             id="g238"><path
               inkscape:connector-curvature="0"
               id="path240"
               style="fill:#005da9;fill-opacity:1;fill-rule:nonzero;stroke:none"
               d="m 0,0 c -0.623,0.148 -1.326,0.59 -1.678,1.133 -0.246,0.381 -0.421,0.811 -0.621,1.251 -0.677,1.481 -1.066,3.106 -1.505,3.649 -0.774,0.959 -2.285,2.296 -3.303,2.957 -0.302,0.196 -0.58,0.337 -0.831,0.446 0.247,1.199 0.19,2.474 0.19,2.474 0,0.244 0.005,0.251 0.091,0.353 0.262,0.207 0.435,0.46 0.357,0.854 -0.009,0.056 -0.226,0.526 -0.289,0.628 0.365,-0.146 1.974,-0.527 2.44,-0.494 0.802,0.055 2.707,1.377 2.994,1.578 0.209,0.123 0.329,0.154 0.438,0.184 0.111,0.031 0.386,0.205 0.449,0.376 0.026,0.076 -0.057,0.628 -0.248,0.662 -0.083,0.008 -0.3,-0.126 -0.376,-0.104 -0.046,0.013 -0.096,0.1 -0.136,0.098 -0.105,0.004 -0.212,-0.164 -0.263,-0.245 -0.069,-0.107 -0.092,-0.301 -0.164,-0.391 -0.131,-0.167 -1.979,-0.689 -2.592,-0.978 -0.106,-0.05 -0.217,-0.09 -0.326,-0.056 -0.485,0.15 -2.439,1.271 -3.211,1.111 -0.244,-0.051 -0.625,-0.189 -0.791,-0.009 -0.088,0.096 -0.137,0.249 -0.063,0.401 0.082,0.173 0.49,0.196 0.569,0.395 0.086,0.22 -0.056,0.658 -0.055,0.683 0.004,0.084 0.101,0.125 0.092,0.199 -0.01,0.079 -0.111,0.164 -0.223,0.323 -0.118,0.161 -0.152,0.571 -0.259,0.75 0.025,0.057 0.098,0.429 -0.337,0.683 -0.435,0.25 -1.153,0.307 -1.556,-0.047 -0.228,-0.203 -0.532,-0.125 -0.774,-0.251 -0.458,-0.241 -0.164,-0.723 -0.922,-1.408 -0.329,-0.297 -0.135,-0.872 -0.057,-1.001 -0.321,-0.6 0.247,-1.307 0.758,-1.187 0.168,-0.161 0.274,-0.233 0.46,-0.224 0.003,-0.018 0.009,-0.036 0.016,-0.055 -0.115,-0.042 -0.362,-0.166 -0.47,-0.221 -0.29,-0.152 -0.46,-0.338 -0.728,-0.598 -0.857,-0.834 -2.13,-2.128 -5.166,-3.647 -0.345,-0.211 -1.335,-0.12 -1.335,-0.335 0.063,-0.104 0.278,-0.212 0.278,-0.212 0.006,-0.123 -0.365,-0.172 -0.566,-0.216 -0.175,-0.099 0.163,-0.238 0.294,-0.359 0.674,-0.121 1.022,0.03 1.594,0.509 2.308,0.896 4.024,1.772 5.894,2.989 0.397,0.257 0.621,-0.022 0.941,-1.208 0.123,-0.46 -0.489,-0.836 -0.723,-1.488 -0.264,-0.729 -0.232,-1.275 -0.036,-1.699 -0.215,-0.472 -0.878,-1.098 -0.878,-1.098 0,0 -1.571,-1.301 -2.365,-2.087 -0.688,-0.682 -1.52,-0.524 -2.161,-0.83 -0.652,-0.315 -1.244,-0.811 -1.797,-1.268 -0.404,-0.334 -0.808,-0.631 -1.345,-0.853 -0.208,-0.085 -0.31,-0.112 -0.531,-0.142 -0.277,-0.038 -0.444,-0.294 -0.42,-0.529 0.021,-0.216 0.215,-0.702 0.423,-1.12 0.112,-0.23 0.368,-0.764 0.7,-0.831 0.224,-0.048 0.698,-0.143 0.804,0.062 0.141,0.272 -0.461,0.349 -0.504,0.704 -0.027,0.227 -0.051,0.599 0.024,0.816 0.13,0.375 0.668,0.635 0.99,0.809 0.996,0.541 3.941,1.234 4.819,1.498 1.269,0.555 2.271,1.01 3.095,1.55 0.731,0.442 1.322,1.143 1.778,1.726 1.088,-0.541 2.691,-1.215 3.755,-1.622 0.626,-0.24 0.286,-0.642 0.635,-1.544 0.249,-0.645 0.697,-1.116 2.182,-2.87 0.213,-0.291 -0.015,-0.491 0.031,-0.814 0.053,-0.35 0.224,-0.361 0.547,-0.354 0.3,0.01 0.602,0 0.902,0 0.383,0 0.864,-0.002 1.246,0.002 0.141,0.002 0.42,0.047 0.42,0.252 0,0.227 -0.41,0.244 -0.601,0.29" /></g><g
             transform="translate(506.738,28.9626)"
             id="g242"><path
               inkscape:connector-curvature="0"
               id="path244"
               style="fill:#005da9;fill-opacity:1;fill-rule:nonzero;stroke:none"
               d="m 0,0 c -0.116,-0.436 -0.49,-1.802 -2.316,-1.802 -1.513,0 -2.542,1.1 -2.542,2.84 0,1.552 0.788,2.933 2.604,2.933 0.313,0 1.092,-0.031 1.708,-0.64 0.282,-0.281 0.422,-0.608 0.531,-0.998 L -1.13,2.067 c -0.14,0.609 -0.601,0.936 -1.178,0.936 -1.388,0 -1.388,-1.528 -1.388,-1.888 0,-0.522 0.063,-1.045 0.296,-1.403 0.203,-0.313 0.577,-0.546 1.076,-0.546 0.749,0 1.093,0.569 1.233,1.177 z" /></g><g
             transform="translate(510.171,29.1976)"
             id="g246"><path
               inkscape:connector-curvature="0"
               id="path248"
               style="fill:#005da9;fill-opacity:1;fill-rule:nonzero;stroke:none"
               d="m 0,0 c -0.109,-0.04 -0.203,-0.071 -0.452,-0.125 -0.055,-0.007 -0.32,-0.063 -0.367,-0.079 -0.196,-0.038 -0.624,-0.147 -0.624,-0.522 0,-0.227 0.179,-0.554 0.592,-0.554 0.25,0 0.461,0.11 0.625,0.25 C 0,-0.836 0,-0.578 0,-0.212 Z m -2.403,1.044 c 0.179,0.648 0.547,1.147 1.748,1.147 1.7,0 1.708,-0.795 1.708,-1.521 0,-0.25 -0.016,-1.341 -0.008,-1.568 0.023,-0.53 0.078,-0.709 0.234,-1.045 H 0.226 c -0.024,0.055 -0.047,0.109 -0.079,0.227 l -0.062,0.217 c -0.21,-0.21 -0.6,-0.538 -1.255,-0.538 -0.811,0 -1.342,0.493 -1.342,1.194 0,0.991 0.913,1.17 1.474,1.279 0.601,0.109 0.827,0.172 1.038,0.258 v 0.109 c 0,0.265 0,0.569 -0.733,0.569 -0.524,0 -0.631,-0.304 -0.703,-0.506 z" /></g><path
             inkscape:connector-curvature="0"
             id="path250"
             style="fill:#005da9;fill-opacity:1;fill-rule:nonzero;stroke:none"
             d="m 512.487,31.296 h 1.069 v -4.041 h -1.069 z m 0,1.544 h 1.069 v -0.991 h -1.069 z" /><g
             transform="translate(515.686,28.5726)"
             id="g252"><path
               inkscape:connector-curvature="0"
               id="path254"
               style="fill:#005da9;fill-opacity:1;fill-rule:nonzero;stroke:none"
               d="m 0,0 c 0.124,-0.538 0.522,-0.647 0.865,-0.647 0.094,0 0.772,0.008 0.772,0.444 0,0.235 -0.186,0.289 -0.436,0.344 -1.225,0.266 -2.122,0.476 -2.122,1.436 0,0.927 0.85,1.239 1.7,1.239 0.959,0 1.561,-0.265 1.794,-1.068 L 1.559,1.561 C 1.426,2.036 0.99,2.052 0.802,2.052 0.624,2.052 0.07,2.043 0.07,1.716 0.07,1.599 0.155,1.513 0.272,1.467 0.474,1.389 0.912,1.28 1.177,1.217 1.894,1.045 2.706,0.835 2.706,-0.054 c 0,-0.632 -0.507,-1.358 -1.841,-1.358 -0.391,0 -1.037,0.071 -1.505,0.493 -0.305,0.272 -0.391,0.6 -0.429,0.755 z" /></g><g
             transform="translate(520.256,28.5726)"
             id="g256"><path
               inkscape:connector-curvature="0"
               id="path258"
               style="fill:#005da9;fill-opacity:1;fill-rule:nonzero;stroke:none"
               d="m 0,0 c 0.125,-0.538 0.522,-0.647 0.866,-0.647 0.093,0 0.773,0.008 0.773,0.444 0,0.235 -0.188,0.289 -0.438,0.344 -1.224,0.266 -2.121,0.476 -2.121,1.436 0,0.927 0.85,1.239 1.699,1.239 0.96,0 1.561,-0.265 1.795,-1.068 L 1.561,1.561 C 1.428,2.036 0.99,2.052 0.803,2.052 0.623,2.052 0.07,2.043 0.07,1.716 0.07,1.599 0.156,1.513 0.272,1.467 0.477,1.389 0.913,1.28 1.178,1.217 1.895,1.045 2.707,0.835 2.707,-0.054 c 0,-0.632 -0.508,-1.358 -1.841,-1.358 -0.389,0 -1.038,0.071 -1.506,0.493 -0.303,0.272 -0.39,0.6 -0.428,0.755 z" /></g><g
             transform="translate(526.457,29.6256)"
             id="g260"><path
               inkscape:connector-curvature="0"
               id="path262"
               style="fill:#005da9;fill-opacity:1;fill-rule:nonzero;stroke:none"
               d="M 0,0 C -0.023,0.882 -0.632,0.944 -0.796,0.944 -1.303,0.944 -1.607,0.53 -1.599,0 Z M 1.006,-1.264 C 0.92,-1.512 0.584,-2.465 -0.757,-2.465 c -0.35,0 -1.287,0.047 -1.716,0.968 -0.179,0.39 -0.242,0.788 -0.242,1.123 0,1.092 0.578,2.137 1.857,2.137 1.52,0 1.942,-1.224 1.919,-2.417 h -2.683 c 0.015,-0.485 0.273,-0.991 0.881,-0.991 0.499,0 0.624,0.374 0.679,0.561 z" /></g><g
             transform="translate(531.059,32.8396)"
             id="g264"><path
               inkscape:connector-curvature="0"
               id="path266"
               style="fill:#005da9;fill-opacity:1;fill-rule:nonzero;stroke:none"
               d="M 0,0 H 1.092 L 3.361,-3.729 H 3.377 V 0 H 4.423 V -5.585 H 3.292 L 1.06,-1.942 H 1.045 V -5.585 H 0 Z" /></g><g
             transform="translate(539.123,29.1976)"
             id="g268"><path
               inkscape:connector-curvature="0"
               id="path270"
               style="fill:#005da9;fill-opacity:1;fill-rule:nonzero;stroke:none"
               d="m 0,0 c -0.108,-0.04 -0.202,-0.071 -0.452,-0.125 -0.054,-0.007 -0.32,-0.063 -0.366,-0.079 -0.196,-0.038 -0.624,-0.147 -0.624,-0.522 0,-0.227 0.179,-0.554 0.593,-0.554 0.25,0 0.46,0.11 0.624,0.25 C 0,-0.836 0,-0.578 0,-0.212 Z m -2.401,1.044 c 0.179,0.648 0.545,1.147 1.747,1.147 1.7,0 1.708,-0.795 1.708,-1.521 0,-0.25 -0.016,-1.341 -0.008,-1.568 0.023,-0.53 0.077,-0.709 0.234,-1.045 H 0.227 C 0.203,-1.888 0.18,-1.834 0.149,-1.716 l -0.063,0.217 c -0.21,-0.21 -0.6,-0.538 -1.256,-0.538 -0.81,0 -1.341,0.493 -1.341,1.194 0,0.991 0.913,1.17 1.474,1.279 C -0.436,0.545 -0.21,0.608 0,0.694 v 0.109 c 0,0.265 0,0.569 -0.732,0.569 -0.523,0 -0.632,-0.304 -0.702,-0.506 z" /></g><g
             transform="translate(543.297,30.4456)"
             id="g272"><path
               inkscape:connector-curvature="0"
               id="path274"
               style="fill:#005da9;fill-opacity:1;fill-rule:nonzero;stroke:none"
               d="m 0,0 h -0.726 v -1.63 c 0,-0.579 0,-0.765 0.296,-0.765 0.141,0 0.266,0.039 0.399,0.094 L 0,-2.294 0.094,-3.121 c -0.352,-0.148 -0.734,-0.164 -0.843,-0.164 -0.328,0 -0.749,0.11 -0.905,0.414 -0.133,0.249 -0.148,0.492 -0.148,1.108 V 0 h -0.491 v 0.85 h 0.491 v 0.803 l 1.076,0.632 V 0.85 H 0 Z" /></g><path
             inkscape:connector-curvature="0"
             id="path276"
             style="fill:#005da9;fill-opacity:1;fill-rule:nonzero;stroke:none"
             d="m 544.272,31.296 h 1.068 v -4.041 h -1.068 z m 0,1.544 h 1.068 v -0.991 h -1.068 z" /><g
             transform="translate(548.499,28.0346)"
             id="g278"><path
               inkscape:connector-curvature="0"
               id="path280"
               style="fill:#005da9;fill-opacity:1;fill-rule:nonzero;stroke:none"
               d="M 0,0 C 0.484,0 0.991,0.351 0.991,1.248 0.991,2.06 0.546,2.481 0,2.481 -0.515,2.481 -0.982,2.091 -0.982,1.241 -0.982,0.382 -0.507,0 0,0 m 0,3.354 c 1.404,0 2.09,-1.076 2.09,-2.098 0,-1.115 -0.78,-2.13 -2.082,-2.13 -0.64,0 -2.091,0.297 -2.091,2.169 0,0.959 0.648,2.059 2.083,2.059" /></g><g
             transform="translate(554.272,29.3226)"
             id="g282"><path
               inkscape:connector-curvature="0"
               id="path284"
               style="fill:#005da9;fill-opacity:1;fill-rule:nonzero;stroke:none"
               d="m 0,0 c 0,0.663 0,1.247 -0.656,1.247 -0.336,0 -0.64,-0.179 -0.773,-0.475 -0.109,-0.234 -0.116,-0.68 -0.116,-1.007 v -1.833 h -1.07 v 4.041 h 0.999 V 1.379 H -1.6 c 0.398,0.547 0.905,0.687 1.318,0.687 0.18,0 0.593,-0.031 0.928,-0.296 C 1.075,1.442 1.059,0.842 1.068,0.444 V -2.068 H 0 Z" /></g><g
             transform="translate(558.928,29.1976)"
             id="g286"><path
               inkscape:connector-curvature="0"
               id="path288"
               style="fill:#005da9;fill-opacity:1;fill-rule:nonzero;stroke:none"
               d="m 0,0 c -0.11,-0.04 -0.203,-0.071 -0.453,-0.125 -0.055,-0.007 -0.32,-0.063 -0.367,-0.079 -0.194,-0.038 -0.624,-0.147 -0.624,-0.522 0,-0.227 0.18,-0.554 0.593,-0.554 0.25,0 0.46,0.11 0.624,0.25 C 0,-0.836 0,-0.578 0,-0.212 Z m -2.402,1.044 c 0.179,0.648 0.545,1.147 1.747,1.147 1.7,0 1.708,-0.795 1.708,-1.521 0,-0.25 -0.016,-1.341 -0.008,-1.568 0.023,-0.53 0.078,-0.709 0.233,-1.045 H 0.225 C 0.203,-1.888 0.18,-1.834 0.148,-1.716 l -0.062,0.217 c -0.211,-0.21 -0.601,-0.538 -1.257,-0.538 -0.812,0 -1.341,0.493 -1.341,1.194 0,0.991 0.912,1.17 1.475,1.279 0.599,0.109 0.826,0.172 1.037,0.258 v 0.109 c 0,0.265 0,0.569 -0.733,0.569 -0.524,0 -0.632,-0.304 -0.703,-0.506 z" /></g><path
             inkscape:connector-curvature="0"
             id="path290"
             style="fill:#005da9;fill-opacity:1;fill-rule:nonzero;stroke:none"
             d="m 561.244,32.84 h 1.069 v -5.585 h -1.069 z" /><g
             transform="translate(566.072,29.6256)"
             id="g292"><path
               inkscape:connector-curvature="0"
               id="path294"
               style="fill:#005da9;fill-opacity:1;fill-rule:nonzero;stroke:none"
               d="M 0,0 C -0.023,0.882 -0.631,0.944 -0.796,0.944 -1.302,0.944 -1.607,0.53 -1.599,0 Z M 1.006,-1.264 C 0.92,-1.512 0.584,-2.465 -0.756,-2.465 c -0.351,0 -1.288,0.047 -1.717,0.968 -0.179,0.39 -0.241,0.788 -0.241,1.123 0,1.092 0.577,2.137 1.856,2.137 1.52,0 1.941,-1.224 1.919,-2.417 h -2.684 c 0.016,-0.485 0.274,-0.991 0.882,-0.991 0.499,0 0.624,0.374 0.678,0.561 z" /></g></g></g></g></g></svg>