<svg width="257" height="214" viewBox="0 0 257 214" fill="none" xmlns="http://www.w3.org/2000/svg">
<rect width="257" height="214" fill="white"/>
<rect width="55" height="20" transform="translate(20 20)" fill="white"/>
<path fill-rule="evenodd" clip-rule="evenodd" d="M42.7378 37.6409C42.9525 37.4262 43.1692 37.1957 43.3846 36.9644C43.7695 36.5066 44.1906 36.0767 44.6404 35.6779C44.7706 35.5598 44.908 35.4501 45.052 35.3493C45.0709 35.3304 45.0804 35.302 45.0898 35.2737C45.0992 35.2453 45.1087 35.217 45.1276 35.1981C45.0332 35.2359 44.9576 35.2926 44.882 35.3492C44.8064 35.4059 44.7308 35.4626 44.6363 35.5004C44.5985 35.5004 44.5607 35.4627 44.5985 35.4249L45.0023 35.122C44.994 35.1225 44.9852 35.1225 44.9764 35.1225C44.9387 35.1225 44.9387 35.0848 44.9387 35.0469C44.4514 34.972 44.0758 35.3058 43.7378 35.6061L43.7292 35.6138C43.6788 35.6391 43.6284 35.6138 43.5892 35.5942C43.5697 35.5844 43.5529 35.576 43.5403 35.576C43.2432 35.6751 42.9876 35.8572 42.7301 36.0407L42.73 36.0407C42.4961 36.2074 42.2606 36.3752 41.9909 36.4831V36.4075C41.8969 36.4388 41.804 36.4807 41.7109 36.5227C41.5793 36.5821 41.4472 36.6417 41.3106 36.672C41.0548 36.7288 40.8204 36.7216 40.5913 36.7145H40.5912H40.5911H40.5911H40.591H40.5909H40.5909C40.5154 36.7121 40.4405 36.7098 40.3656 36.7098C39.9035 36.766 39.4447 36.8477 38.9915 36.9545L38.9717 36.9594L38.9627 36.9616L38.952 36.9644C38.7068 37.0305 38.4704 37.1257 38.2478 37.248C38.239 37.2527 38.2304 37.2578 38.222 37.263C38.2032 37.2866 38.1847 37.3092 38.1673 37.3284C38.096 37.4195 38.008 37.4962 37.9081 37.5545C37.7438 37.6381 37.6006 37.7657 37.4584 37.8923C37.3997 37.9446 37.3412 37.9968 37.2814 38.0456C37.2636 38.058 37.2425 38.0647 37.2208 38.0648C37.1585 38.1246 37.0965 38.1846 37.0344 38.2446L37.0344 38.2446L37.0344 38.2446L37.0344 38.2447L37.0343 38.2447L37.0343 38.2447L37.0343 38.2447L37.0343 38.2448C36.8945 38.3799 36.7547 38.5152 36.6121 38.6474C36.5761 38.6641 36.5358 38.6689 36.4968 38.6612C36.5072 38.6457 36.5146 38.6338 36.5218 38.6218C36.5536 38.5684 36.5859 38.5153 36.6186 38.4624C36.6552 38.4033 36.6925 38.3448 36.7307 38.2869C36.7822 38.2087 36.8352 38.1314 36.8916 38.0568C36.9047 38.0426 36.9041 38.0206 36.8902 38.0072C36.876 37.9937 36.857 37.9866 36.8374 37.9874C37.0307 37.8066 37.2435 37.6478 37.4718 37.514C37.4466 37.5163 37.4099 37.4961 37.429 37.4695C37.4431 37.4499 37.4554 37.4296 37.4676 37.4092C37.4763 37.3949 37.4849 37.3806 37.4942 37.3665C37.4985 37.3553 37.5024 37.344 37.5063 37.3328C37.5004 37.3263 37.4945 37.3203 37.4886 37.3142L37.4777 37.303C37.4155 37.3399 37.3561 37.3814 37.3001 37.4271C37.2727 37.4518 37.2471 37.4843 37.2209 37.5176L37.2209 37.5176C37.1607 37.5942 37.0973 37.6748 37.0017 37.6737C36.9823 37.6734 36.963 37.6706 36.9444 37.6655C36.9304 37.6636 36.9169 37.659 36.9047 37.652L36.9096 37.6433L36.9152 37.6327L36.9207 37.6229L36.9387 37.5904L36.9484 37.5729L36.9567 37.5578L36.9712 37.5316C36.9802 37.5156 36.9889 37.4999 36.998 37.4837L37.0056 37.4704L37.0097 37.4634L37.0178 37.4495C37.0291 37.43 37.0404 37.4107 37.0518 37.3913L37.0521 37.3907L37.0666 37.3661L37.0899 37.326L37.1065 37.2975L37.1067 37.2973L37.1068 37.297L37.1069 37.2968L37.107 37.2968L37.1184 37.2771L37.1301 37.2573C37.1379 37.2449 37.1391 37.2296 37.1335 37.2161C37.1278 37.2027 37.116 37.1928 37.1017 37.1897C37.172 37.098 37.26 37.0213 37.3605 36.9642H37.3491C37.4487 36.914 37.5483 36.8565 37.6479 36.7989L37.648 36.7988L37.6483 36.7987C37.6932 36.7727 37.7382 36.7467 37.7831 36.7214C37.7971 36.7095 37.8107 36.6975 37.8244 36.6856L37.8456 36.6674C37.6329 36.7393 37.4306 36.8391 37.244 36.9641C37.2216 36.9729 37.2003 36.9845 37.1807 36.9986C37.1452 37.0063 37.1085 36.9928 37.0864 36.9641C37.0803 36.9561 37.0771 36.9463 37.0773 36.9363C37.0994 36.8923 37.1471 36.861 37.198 36.8277C37.2345 36.8038 37.2726 36.7788 37.3042 36.7473C37.3418 36.7473 37.3796 36.7473 37.3796 36.7851C38.1301 36.1988 39.055 36.0637 39.9831 35.9282C40.5507 35.8454 41.1196 35.7623 41.6503 35.5757L41.9904 35.349C42.0876 35.3101 42.1748 35.2412 42.2674 35.1681C42.3549 35.099 42.4471 35.0261 42.5572 34.971C42.8626 34.7614 43.0889 34.4553 43.1997 34.1019C43.1957 34.0732 43.1825 34.0466 43.162 34.0262C42.687 34.5383 42.1238 34.9608 41.4991 35.2734C40.9268 35.5732 40.3152 35.6175 39.7068 35.6615C39.4715 35.6785 39.2366 35.6955 39.0047 35.7273C39.0426 35.6518 39.1182 35.6518 39.1937 35.6518C39.1937 35.562 39.241 35.5196 39.2982 35.4684C39.3133 35.4549 39.3291 35.4408 39.3449 35.425H39.4584C39.4772 35.425 39.4866 35.4061 39.496 35.3872C39.5055 35.3683 39.5149 35.3494 39.5338 35.3494C39.6094 35.3494 39.7229 35.3116 39.6851 35.3116C39.6275 35.2348 39.5407 35.2652 39.4444 35.299C39.3511 35.3316 39.249 35.3674 39.156 35.3116C39.1925 35.2751 39.2025 35.2297 39.2117 35.1883C39.2214 35.1441 39.2302 35.1044 39.2693 35.0849H39.4205C39.4284 35.0276 39.455 34.9744 39.4961 34.9337C39.8328 34.7316 40.1562 34.5562 40.4742 34.3838C40.6916 34.2659 40.9065 34.1494 41.1215 34.0266C41.0775 34.0266 41.0393 34.0436 41.0023 34.0601C40.9438 34.0862 40.8886 34.1108 40.8192 34.0645C40.857 34.0645 40.857 34.0361 40.857 34.0078C40.857 33.9794 40.857 33.951 40.8948 33.951C41.1327 33.8862 41.3458 33.7842 41.5625 33.6804C41.7245 33.6029 41.8885 33.5245 42.0663 33.4598C42.0145 33.4598 41.967 33.4732 41.921 33.4861C41.8329 33.5109 41.7499 33.5343 41.6506 33.4598C41.6757 33.4472 41.6967 33.4304 41.7177 33.4136C41.7597 33.38 41.8017 33.3464 41.8773 33.3464V33.233C41.8773 33.1952 41.9152 33.1952 41.953 33.1952C41.9243 33.1912 41.8977 33.178 41.8773 33.1574C41.8969 33.1184 41.9366 33.1096 41.9808 33.0998C42.0222 33.0906 42.0676 33.0806 42.1041 33.0441C42.0663 33.0441 41.9907 33.0441 41.9907 33.0063C42.1041 32.8551 42.293 32.8172 42.4821 32.7795C42.4631 32.7417 42.4253 32.7417 42.3922 32.7417C42.3592 32.7417 42.3308 32.7417 42.3308 32.7039C42.3308 32.6661 42.3686 32.6661 42.4064 32.6661H42.3308C42.2722 32.6368 42.2818 32.5848 42.289 32.5453L42.289 32.5453C42.2911 32.5338 42.293 32.5234 42.293 32.515C42.4442 32.3386 42.4946 32.1286 42.5449 31.9187C42.5701 31.8137 42.5953 31.7087 42.6331 31.6079C42.5953 31.6079 42.5575 31.6079 42.5575 31.5701C42.1907 31.9737 41.61 32.1279 41.0579 32.2746L41.0081 32.2878H40.8192C40.6098 32.37 40.3749 32.3562 40.1766 32.25C40.0851 32.2042 40.0213 32.1446 39.9517 32.0796C39.9063 32.0371 39.8584 31.9924 39.7988 31.9476C39.5032 31.7589 39.186 31.6065 38.8539 31.4938C37.9155 31.187 36.9307 31.0464 35.9439 31.0782C36.2155 30.93 36.5055 30.8704 36.7989 30.8101C36.9546 30.7781 37.1113 30.7459 37.2667 30.7002C37.3606 30.6726 37.4538 30.6441 37.5464 30.6158C38.0876 30.4505 38.6132 30.29 39.194 30.3222C39.1172 30.2966 39.023 30.3057 38.9349 30.3143C38.8931 30.3183 38.8526 30.3222 38.8161 30.3222C38.3905 30.2918 37.9648 30.3837 37.5192 30.4799C37.411 30.5033 37.3016 30.5269 37.1907 30.5491C37.0019 30.5868 36.8226 30.6435 36.6432 30.7001C36.4636 30.7568 36.284 30.8135 36.0948 30.8513C36.0077 30.8804 35.9373 30.9317 35.8686 30.9818C35.7586 31.0621 35.653 31.1392 35.49 31.1158V31.0025C35.868 30.5486 36.3215 30.0955 36.9262 30.0577C37.5011 29.9619 38.0491 30.0281 38.6157 30.0965L38.616 30.0965C38.7197 30.109 38.824 30.1216 38.9293 30.1333C39.4138 30.1848 39.8936 30.2732 40.3647 30.3978C40.4686 30.3978 40.5268 30.4891 40.5832 30.5776C40.6295 30.6502 40.6746 30.721 40.7428 30.738C40.8334 30.7682 40.9242 30.7743 41.0149 30.7803C41.151 30.7894 41.2871 30.7984 41.4229 30.8891C41.4229 30.8639 41.4187 30.8387 41.4145 30.8136C41.4061 30.7632 41.3977 30.7128 41.4229 30.6624C41.5082 30.577 41.6056 30.6001 41.7014 30.6228C41.7754 30.6403 41.8485 30.6575 41.9143 30.6246C42.1194 30.4964 41.9244 30.2986 41.7306 30.102C41.6388 30.0089 41.5472 29.916 41.4986 29.8309C41.5026 29.8023 41.5158 29.7757 41.5363 29.7553C41.6269 29.8346 41.7107 29.9173 41.7938 29.9993C41.9881 30.1909 42.1787 30.3788 42.4433 30.5112C42.6323 30.5867 43.0858 30.7002 43.0102 30.4735C42.8778 30.182 42.6524 29.9277 42.4254 29.6715C42.3285 29.5622 42.2314 29.4526 42.141 29.3396V29.189C42.0857 29.189 42.0709 29.1687 42.0521 29.1431C42.0452 29.1337 42.0378 29.1235 42.0277 29.1134V28.9623C41.9326 28.9148 41.9123 28.8374 41.8915 28.7583C41.8792 28.7116 41.8668 28.6643 41.8387 28.6222C41.7755 28.5169 41.771 28.3882 41.7663 28.2556C41.7626 28.1501 41.7588 28.0422 41.7253 27.9418C41.6571 27.7323 41.6066 27.5174 41.574 27.2994C41.5296 27.0473 41.4794 26.8069 41.4303 26.5713L41.4302 26.5713L41.4302 26.5712L41.4302 26.5712L41.4302 26.5712C41.3541 26.2062 41.2803 25.8528 41.234 25.4854C41.1758 24.9327 41.4537 24.4693 41.7399 23.992C41.8254 23.8495 41.9117 23.7057 41.9899 23.558C42.2544 23.1041 42.5567 22.6509 43.048 22.3486C43.1612 21.896 43.4622 21.5192 43.7632 21.1424L43.7657 21.1393C44.0675 20.7704 44.569 20.5457 44.9323 20.3833C45.26 20.2378 45.5952 20.1098 45.9365 20H20V39.9994H38.3682C38.8695 39.6385 39.3703 39.4096 39.9676 39.1366C40.2277 39.0177 40.506 38.8905 40.8106 38.7404C40.8691 38.7116 40.9368 38.6789 41.0112 38.6428L41.0119 38.6425L41.0129 38.642L41.0133 38.6418C41.5439 38.385 42.416 37.9629 42.7378 37.6409ZM36.7372 34.8958C36.7637 34.7632 36.9017 34.7237 37.0341 34.6857C37.0905 34.6696 37.1458 34.6538 37.191 34.6312L37.2091 34.6219L37.2295 34.611L37.2296 34.6109C37.3017 34.5723 37.392 34.5239 37.4556 34.5556C37.4984 34.6198 37.5533 34.6355 37.6066 34.6508C37.6474 34.6625 37.6874 34.674 37.7202 34.7068C37.5837 34.8431 37.42 34.8565 37.2537 34.8701C37.1433 34.8792 37.0317 34.8883 36.9262 34.9336C36.9078 34.9336 36.885 34.9358 36.8615 34.9381C36.7883 34.9452 36.7086 34.953 36.7372 34.8958ZM32.3154 32.0991C31.976 32.7794 31.5709 33.4249 31.1061 34.0265C31.11 34.0552 31.1233 34.0818 31.1439 34.1022C32.051 33.0817 32.8824 32.2125 34.0535 31.4944C34.0825 31.48 34.0726 31.4932 34.0579 31.5129C34.0343 31.5447 33.9981 31.5933 34.0913 31.57C34.4841 31.4794 34.6595 31.1472 34.8299 30.8245C34.8726 30.7435 34.915 30.6632 34.9605 30.5874C35.1362 30.3019 35.3885 30.1186 35.6431 29.9335C35.8267 29.8 36.0116 29.6656 36.1699 29.4915C36.175 29.533 36.1611 29.5747 36.1321 29.6048C36.1623 29.6339 36.204 29.6478 36.2455 29.6426C36.3114 29.5933 36.3843 29.5726 36.455 29.5525C36.547 29.5264 36.6353 29.5013 36.6994 29.4159C36.386 29.2904 36.0389 29.277 35.7167 29.378C34.923 29.756 34.2429 30.3607 33.6003 31.041C33.2146 31.4494 32.8067 31.8346 32.3154 32.0991ZM34.1672 31.759C34.1375 31.8265 34.0836 31.8804 34.0161 31.9102C33.9783 31.9102 33.9405 31.9102 33.9405 31.8724C33.9744 31.7137 34.0892 31.5845 34.2429 31.5322C34.2807 31.5321 34.2807 31.57 34.2807 31.6078C34.2613 31.6467 34.2408 31.6677 34.2208 31.6881C34.202 31.7074 34.1836 31.7262 34.1672 31.759ZM35.9925 37.4389C36.023 37.4109 35.9899 37.39 35.9426 37.3804C35.9814 37.3509 36.0131 37.3133 36.0356 37.2701C36.0665 37.1959 35.8667 37.2137 35.8356 37.2353C35.8051 37.2596 35.7778 37.2878 35.7544 37.319C35.705 37.3722 35.6525 37.4224 35.5973 37.4695C35.5558 37.5075 35.5155 37.5466 35.4752 37.5856C35.4235 37.6358 35.3718 37.6859 35.3179 37.7334C35.2543 37.7893 35.4621 37.8186 35.5069 37.7788C35.5552 37.736 35.6017 37.6914 35.6479 37.6466C35.6675 37.6458 35.687 37.6432 35.7061 37.6387C35.8147 37.5933 35.9124 37.5252 35.9925 37.4389ZM35.3491 36.9644L35.3046 36.9958C35.1779 37.0852 35.051 37.1747 34.9176 37.2522C34.7978 37.3217 34.6739 37.3788 34.5496 37.4362C34.5061 37.4562 34.4625 37.4763 34.4191 37.497C34.4179 37.4937 34.4162 37.4906 34.4142 37.4878C34.3998 37.4676 34.3728 37.4611 34.3509 37.4726C34.2119 37.5518 34.0841 37.6492 33.9709 37.7622C33.9533 37.7789 33.9357 37.7959 33.9181 37.8131C33.8942 37.8366 33.8763 37.8544 33.8584 37.8724L33.8521 37.8787C33.8515 37.8793 33.8512 37.88 33.8509 37.8806L33.8498 37.8822C33.8229 37.9089 33.7971 37.9359 33.7675 37.9706C33.7539 37.9909 33.7368 38.0088 33.7171 38.0233C33.6936 38.0389 33.6286 38.0386 33.6346 37.995V37.9876L33.6319 37.9891C33.6105 38.0003 33.5891 38.0116 33.5675 38.022C33.5479 38.0312 33.5304 38.0415 33.5126 38.052L33.5085 38.0544C33.5002 38.0512 33.4913 38.0499 33.4824 38.0506C33.4726 38.0507 33.4631 38.0539 33.4552 38.0597C33.409 38.0959 33.3633 38.1345 33.3187 38.1749C33.2393 38.2464 33.1659 38.3244 33.0994 38.408L33.0886 38.422L33.0773 38.4366C33.0737 38.4416 33.0692 38.4472 33.0653 38.4523L33.0616 38.4569L33.056 38.4649L33.0451 38.4809L33.036 38.4945C33.026 38.5049 33.0151 38.5101 33.0035 38.5117L32.9972 38.5025C32.9941 38.4981 32.991 38.4937 32.9883 38.4891L32.982 38.4784L32.9777 38.4708C32.9662 38.4513 32.9555 38.4311 32.9454 38.4103L32.9443 38.408L32.94 38.3992L32.9354 38.3893C32.9763 38.3453 33.0158 38.2998 33.054 38.2532L33.0616 38.2441C33.0749 38.2279 33.0879 38.2118 33.1009 38.1956L33.1642 38.1147C33.1688 38.1085 33.1733 38.1027 33.1779 38.0969L33.1873 38.0848C33.2288 38.0306 33.2685 37.978 33.3055 37.9252L33.3083 37.9211L33.3149 37.9113C33.3181 37.9067 33.3212 37.902 33.3246 37.8973C33.3427 37.8706 33.3601 37.8436 33.3764 37.8161C33.3911 37.7914 33.4049 37.7663 33.4177 37.7407L33.4208 37.7351L33.4247 37.7273C33.4258 37.7251 33.4268 37.7228 33.4277 37.7205C33.4288 37.7181 33.4298 37.7156 33.4309 37.7132C33.4442 37.6847 33.4562 37.6554 33.4668 37.6251L33.4702 37.6153L33.4723 37.6091C33.4745 37.603 33.4767 37.5968 33.4786 37.5905C33.4829 37.5769 33.4868 37.5629 33.4905 37.5488C33.4912 37.5457 33.4917 37.5426 33.4926 37.5396L33.4959 37.5264L33.4959 37.5263C33.4994 37.5125 33.5029 37.4987 33.5057 37.4842C33.5073 37.4754 33.5057 37.4664 33.5011 37.4588C33.5437 37.3857 33.5939 37.3173 33.6509 37.2547C33.6482 37.2564 33.6453 37.258 33.6424 37.2595L33.6424 37.2595C33.6394 37.2611 33.6364 37.2628 33.6336 37.2646C33.6035 37.284 33.579 37.3076 33.5545 37.3313C33.5351 37.3502 33.5156 37.369 33.4933 37.3857C33.4521 37.4164 33.3763 37.3655 33.425 37.329C33.4552 37.3049 33.4839 37.2789 33.5109 37.2511C33.5747 37.1765 33.639 37.1124 33.7078 37.0532L33.724 37.0415C33.7608 37.0148 33.7934 36.9911 33.8239 36.9645C33.8277 36.9612 33.8312 36.9577 33.835 36.9543L33.8404 36.9494C33.8662 36.9157 33.8944 36.8839 33.9249 36.8544L33.9265 36.8528C33.9272 36.852 33.9279 36.8513 33.9288 36.8507C34.1499 36.6373 34.4634 36.5601 34.7827 36.4816C34.9857 36.4316 35.1911 36.381 35.3765 36.2945C35.4817 36.2524 35.5987 36.2689 35.7144 36.2853C35.8063 36.2984 35.8974 36.3113 35.981 36.2945C36.0996 36.2829 36.2187 36.3095 36.3212 36.3702C36.0593 36.5128 35.8125 36.6697 35.5712 36.8232C35.4999 36.8686 35.4292 36.9136 35.3586 36.9578L35.3491 36.9644ZM35.9812 34.2533H36.2836C36.2623 34.296 36.2048 34.3025 36.1656 34.307C36.1354 34.3104 36.1161 34.3126 36.1325 34.3291C36.246 34.4422 36.4727 34.4045 36.6238 34.3289C36.7386 34.2643 36.8709 34.2378 37.0017 34.2533C37.0395 34.2533 37.0395 34.1777 37.0395 34.14C37.137 34.171 37.2395 34.1839 37.3417 34.1777C38.2488 33.9887 39.1181 33.7998 39.9495 33.384C39.1105 32.7387 38.0786 32.4515 37.0656 32.1696L37.0656 32.1696L37.0656 32.1696C36.8922 32.1214 36.7194 32.0733 36.5481 32.0235C36.5859 32.0235 36.6237 32.0361 36.6615 32.0487C36.7371 32.0739 36.8127 32.0991 36.8883 32.0235C36.7855 31.9413 36.6714 31.9262 36.5583 31.9112C36.4637 31.8987 36.3697 31.8863 36.2836 31.8346C36.2921 31.8346 36.3025 31.8365 36.314 31.8386C36.3535 31.8459 36.4055 31.8554 36.4348 31.7968C36.2333 31.6961 36.0318 31.6625 35.8303 31.6289L35.8303 31.6289C35.7295 31.6121 35.6286 31.5952 35.5277 31.57C35.7088 31.5374 35.838 31.376 35.8301 31.1921C35.8301 31.1544 35.7545 31.1544 35.7167 31.1544C35.2632 31.3811 34.9608 31.7968 34.7719 32.2881C34.9407 32.3846 35.1248 32.3733 35.3047 32.3624C35.4068 32.3562 35.5076 32.35 35.6034 32.3637C35.5192 32.4476 35.3938 32.4694 35.273 32.4904C35.2306 32.4978 35.1888 32.505 35.1495 32.5149C35.0335 32.5438 34.9227 32.6282 34.9605 32.7038C34.9811 32.7324 35.0118 32.7519 35.0464 32.7585C34.9571 32.782 34.8755 32.8283 34.8094 32.8928C34.9176 32.9738 35.0257 32.9584 35.1337 32.9429C35.1769 32.9368 35.22 32.9306 35.2632 32.9306C35.2632 32.981 35.2968 32.9978 35.3305 33.0146L35.3305 33.0146C35.3473 33.023 35.3641 33.0314 35.3767 33.044C35.2115 33.1042 35.076 33.2261 34.9987 33.384C34.9533 33.4975 34.8671 33.57 34.781 33.6426L34.781 33.6426C34.7235 33.691 34.6661 33.7393 34.6208 33.7998V33.9131C34.4923 34.0287 34.3595 34.1311 34.2284 34.2324L34.2284 34.2324C33.9734 34.4292 33.7244 34.6213 33.5248 34.8958C33.5625 34.8958 33.5625 34.9336 33.5625 34.9713C33.5283 35.0227 33.4786 35.0586 33.4309 35.093C33.3733 35.1345 33.3187 35.1738 33.2979 35.2358C33.2979 35.2737 33.2979 35.3115 33.3358 35.3115C33.5735 35.2323 33.78 35.1012 33.9825 34.9726C34.1665 34.8558 34.3473 34.741 34.5452 34.6691C34.7068 34.6286 34.8467 34.5559 34.9824 34.4853C35.1006 34.4239 35.2156 34.3641 35.3388 34.3289C35.4332 34.31 35.5372 34.2817 35.6411 34.2533L35.6411 34.2533L35.6411 34.2533C35.7451 34.225 35.849 34.1966 35.9435 34.1777C35.9435 34.2155 35.9435 34.2533 35.9812 34.2533ZM37.7243 37.5846C37.7273 37.5824 37.7303 37.58 37.7333 37.5776L37.74 37.5722C37.7947 37.5336 37.8455 37.4842 37.891 37.4252C37.8879 37.4242 37.8848 37.4231 37.8817 37.4218C37.8788 37.4207 37.876 37.4193 37.8732 37.4179C37.8228 37.4695 37.7738 37.525 37.7243 37.5846ZM45.0965 35.1046L45.018 35.1633C45.0614 35.1613 45.0965 35.1503 45.0965 35.1046Z" fill="#000091"/>
<path d="M74.9993 20H53.4856C53.5572 20.0235 53.6257 20.0554 53.6898 20.095C53.8645 20.1887 54.0909 20.3096 54.2326 20.3839C54.5225 20.5174 54.7714 20.7262 54.9532 20.9885C55.0288 21.1019 55.1422 21.3287 55.0666 21.4799C54.991 21.6688 54.9532 21.9712 54.7643 22.0468C54.5375 22.1601 54.2351 22.1601 53.9706 22.1223C53.8168 22.1157 53.6644 22.0903 53.5167 22.0468C54.0835 22.2735 54.6126 22.5381 54.9906 23.0672C55.0284 23.1428 55.1795 23.1805 55.3308 23.1805C55.3686 23.1805 55.3686 23.2561 55.3686 23.2939C55.2929 23.3696 55.2173 23.4073 55.2551 23.5206H55.3686C55.5575 23.445 55.5197 23.0668 55.7843 23.1805C55.9772 23.2994 56.0435 23.5483 55.9354 23.7474C55.7937 23.8844 55.642 24.0107 55.4816 24.1253C55.4438 24.2094 55.4438 24.3057 55.4816 24.3899C55.5762 24.526 55.6406 24.6807 55.6705 24.8437C55.784 25.1082 55.8217 25.4106 55.9351 25.6751C56.0863 26.242 56.2374 26.8089 56.1996 27.3758C56.1996 27.6782 56.0484 27.9427 56.1618 28.2451C56.2374 28.5474 56.4263 28.7742 56.5776 29.0387C56.7286 29.2654 56.8799 29.4166 56.9933 29.6434C57.2199 30.0213 57.6357 30.3992 57.4472 30.8527C57.3338 31.1172 56.9181 31.0795 56.6536 31.2307C56.4268 31.4196 56.6158 31.7219 56.7291 31.9109C56.9181 32.2511 56.5023 32.4778 56.2378 32.5912C56.3134 32.7045 56.4646 32.6667 56.5023 32.7423C56.5401 32.9313 56.7291 33.0447 56.6158 33.2336C56.4646 33.4604 56.0111 33.5738 56.2378 33.9139C56.389 34.1785 56.2906 34.4723 56.2001 34.7454C56.0867 35.0855 55.7844 35.2366 55.5198 35.3123C55.2869 35.3812 55.041 35.3941 54.8021 35.35C54.7331 35.3082 54.6557 35.2823 54.5754 35.2745C53.9328 35.1988 53.2903 35.0099 52.6479 35.0099C52.4658 35.0376 52.288 35.0884 52.1188 35.161C51.9542 35.2817 51.8011 35.4171 51.6612 35.5657L51.6568 35.5704C51.6284 35.6006 51.6012 35.6312 51.5744 35.662C51.5579 35.6811 51.5418 35.7006 51.5257 35.72C51.5148 35.7329 51.5041 35.7459 51.4935 35.759C51.3838 35.8967 51.2844 36.0423 51.196 36.1946C51.1904 36.2042 51.1847 36.2138 51.1793 36.2235C51.1694 36.241 51.1598 36.2587 51.1501 36.2763C51.0312 36.497 50.9353 36.7293 50.8639 36.9697C50.607 37.8351 50.7193 38.5777 50.8997 38.7579C50.9499 38.8081 52.1471 39.1777 52.981 39.5487C53.2886 39.6779 53.5867 39.8287 53.873 40H74.9993V20Z" fill="#E1000F"/>
<path d="M54.7651 27.296C54.9164 27.3338 55.143 27.3338 55.143 27.4094C55.0675 27.7116 54.6138 27.7872 54.3871 28.0897H54.274C54.1607 28.1653 54.1985 28.3542 54.0851 28.3542C53.9707 28.3291 53.8512 28.3424 53.745 28.392C53.8962 28.5431 54.0851 28.6567 54.3118 28.6187C54.3769 28.6413 54.4218 28.7012 54.4252 28.7701C54.4542 28.7673 54.4812 28.7538 54.5008 28.7322C54.5387 28.7322 54.5765 28.7322 54.5765 28.7701V28.9212C54.463 29.0724 54.274 28.9967 54.1227 29.0346C54.4075 29.1102 54.7071 29.1102 54.9918 29.0346C55.2187 28.959 54.9918 28.5807 55.1431 28.392C55.0676 28.392 55.1431 28.2786 55.0676 28.2786C55.1431 28.2031 55.2187 28.0897 55.2943 28.0519C55.3841 28.0543 55.4692 28.0118 55.5211 27.9385C55.5211 27.863 55.37 27.8252 55.4077 27.7494C55.6344 27.5985 55.8233 27.3716 55.7479 27.1449C55.71 27.0315 55.4077 27.0315 55.2187 26.9559C55.0296 26.8804 54.8029 26.9559 54.5763 26.9937C54.3872 26.9937 54.1982 27.1071 54.0093 27.1449C53.7519 27.2328 53.5097 27.3602 53.2916 27.5227C53.5622 27.4249 53.8403 27.3491 54.1231 27.296C54.3495 27.296 54.542 27.2402 54.7651 27.296Z" fill="#808080"/>
<mask id="mask0" mask-type="alpha" maskUnits="userSpaceOnUse" x="18" y="20" width="57" height="20">
<rect x="18" y="20" width="57" height="20" fill="#C4C4C4"/>
</mask>
<g mask="url(#mask0)">
</g>
<path d="M20.06 65H22.9V54.96L26.02 60.2H28.02L31.14 54.96V65H33.98V51H30.44L27.02 56.88L23.6 51H20.06V65ZM38.1873 65H41.0273V51H38.1873V65ZM45.2405 65H48.0805V54.88L54.3405 65H57.9805V51H55.1405V61.12L48.8805 51H45.2405V65ZM62.1959 65H65.0359V51H62.1959V65ZM67.9891 63.06C69.2291 64.54 70.8091 65.4 73.1691 65.4C75.7491 65.4 77.7891 63.82 77.8291 61.18C77.8291 56.38 71.4691 57.1 71.4691 54.56C71.4691 53.72 72.1291 53.08 73.1291 53.08C74.1891 53.08 75.1091 53.78 75.9291 54.84L78.0091 52.96C76.8091 51.54 75.2091 50.6 73.1091 50.6C70.4291 50.6 68.5891 52.44 68.5891 54.66C68.5891 59.4 74.9491 58.7 74.9491 61.28C74.9491 62.28 74.2691 62.88 73.1491 62.88C72.0091 62.88 70.8891 62.24 70.0491 61.16L67.9891 63.06ZM79.5692 53.58H83.8892V65H86.7292V53.58H91.0492V51H79.5692V53.58ZM96.6636 49.8H99.2636L97.0036 47.1H94.0836L96.6636 49.8ZM93.8436 65H102.004V62.64H96.6836V59.04H101.204V56.68H96.6836V53.36H102.004V51H93.8436V65ZM105.604 65H108.444V59.34H109.904L113.644 65H116.984L112.604 58.8C114.044 58.14 114.864 56.88 114.864 55.18C114.864 52.58 112.964 51 109.884 51H105.604V65ZM110.044 53.36C111.244 53.36 111.944 54.08 111.944 55.14C111.944 56.28 111.244 56.98 110.044 56.98H108.444V53.36H110.044ZM119.083 65H127.243V62.64H121.923V59.04H126.443V56.68H121.923V53.36H127.243V51H119.083V65ZM20.06 86H25.56C30 86 33 82.78 33 79C33 75.22 30 72 25.56 72H20.06V86ZM25.6 74.58C28.2 74.58 30.08 76.5 30.08 79C30.08 81.48 28.2 83.42 25.6 83.42H22.9V74.58H25.6ZM36.0389 86H44.1989V83.64H38.8789V80.04H43.3989V77.68H38.8789V74.36H44.1989V72H36.0389V86ZM53.2897 86H61.4497V83.42H56.1297V72H53.2897V86ZM63.5028 77.76L65.8228 72H62.9428L61.1428 77.76H63.5028ZM68.3334 86H76.4934V83.64H71.1734V80.04H75.6934V77.68H71.1734V74.36H76.4934V72H68.3334V86ZM80.0936 86H82.9336V75.88L89.1936 86H92.8336V72H89.9936V82.12L83.7336 72H80.0936V86ZM95.7891 84.06C97.0291 85.54 98.6091 86.4 100.969 86.4C103.549 86.4 105.589 84.82 105.629 82.18C105.629 77.38 99.2691 78.1 99.2691 75.56C99.2691 74.72 99.9291 74.08 100.929 74.08C101.989 74.08 102.909 74.78 103.729 75.84L105.809 73.96C104.609 72.54 103.009 71.6 100.909 71.6C98.2291 71.6 96.3891 73.44 96.3891 75.66C96.3891 80.4 102.749 79.7 102.749 82.28C102.749 83.28 102.069 83.88 100.949 83.88C99.8091 83.88 98.6891 83.24 97.8491 82.16L95.7891 84.06ZM108.907 86H117.067V83.64H111.747V80.04H116.267V77.68H111.747V74.36H117.067V72H108.907V86ZM120.667 86H123.507V72H120.667V86ZM134.16 83.74C131.42 83.74 129.44 81.68 129.44 79C129.44 76.32 131.32 74.26 133.96 74.26C135.56 74.26 136.82 75.04 137.62 76.18L139.86 74.44C138.58 72.74 136.5 71.6 133.96 71.6C129.54 71.6 126.52 75 126.52 79C126.52 83 129.62 86.4 134.16 86.4C136.78 86.4 138.96 85.28 140.26 83.54V77.66H133.86V80.08H137.42V82.52C136.62 83.28 135.48 83.74 134.16 83.74ZM143.719 86H146.559V75.88L152.819 86H156.459V72H153.619V82.12L147.359 72H143.719V86ZM160.674 86H168.834V83.64H163.514V80.04H168.034V77.68H163.514V74.36H168.834V72H160.674V86ZM172.434 86H175.274V75.96L178.394 81.2H180.394L183.514 75.96V86H186.354V72H182.814L179.394 77.88L175.974 72H172.434V86ZM190.562 86H198.722V83.64H193.402V80.04H197.922V77.68H193.402V74.36H198.722V72H190.562V86ZM202.322 86H205.162V75.88L211.422 86H215.062V72H212.222V82.12L205.962 72H202.322V86ZM217.837 74.58H222.157V86H224.997V74.58H229.317V72H217.837V74.58ZM18.8 105.06C20.04 106.54 21.62 107.4 23.98 107.4C26.56 107.4 28.6 105.82 28.64 103.18C28.64 98.38 22.28 99.1 22.28 96.56C22.28 95.72 22.94 95.08 23.94 95.08C25 95.08 25.92 95.78 26.74 96.84L28.82 94.96C27.62 93.54 26.02 92.6 23.92 92.6C21.24 92.6 19.4 94.44 19.4 96.66C19.4 101.4 25.76 100.7 25.76 103.28C25.76 104.28 25.08 104.88 23.96 104.88C22.82 104.88 21.7 104.24 20.86 103.16L18.8 105.06ZM40.0178 101.76C40.0178 103.64 38.9378 104.74 37.1978 104.74C35.4178 104.74 34.3578 103.64 34.3578 101.76V93H31.5178V101.52C31.5178 105.2 33.6778 107.4 37.1778 107.4C40.6978 107.4 42.8578 105.2 42.8578 101.52V93H40.0178V101.76ZM46.6858 107H49.5258V101.34H51.3058C54.3858 101.34 56.2658 99.76 56.2658 97.18C56.2658 94.58 54.3858 93 51.3058 93H46.6858V107ZM51.4258 95.36C52.6258 95.36 53.3458 96.08 53.3458 97.14C53.3458 98.28 52.6258 98.98 51.4258 98.98H49.5258V95.36H51.4258ZM64.2547 91.8L66.8547 89.1H63.9347L61.6747 91.8H64.2547ZM58.9147 107H67.0747V104.64H61.7547V101.04H66.2747V98.68H61.7547V95.36H67.0747V93H58.9147V107ZM70.6748 107H73.5148V101.34H74.9748L78.7148 107H82.0548L77.6748 100.8C79.1148 100.14 79.9348 98.88 79.9348 97.18C79.9348 94.58 78.0348 93 74.9548 93H70.6748V107ZM75.1148 95.36C76.3148 95.36 77.0148 96.08 77.0148 97.14C77.0148 98.28 76.3148 98.98 75.1148 98.98H73.5148V95.36H75.1148ZM84.1538 107H86.9938V93H84.1538V107ZM91.2069 107H99.3669V104.64H94.0469V101.04H98.5669V98.68H94.0469V95.36H99.3669V93H91.2069V107ZM111.145 101.76C111.145 103.64 110.065 104.74 108.325 104.74C106.545 104.74 105.485 103.64 105.485 101.76V93H102.645V101.52C102.645 105.2 104.805 107.4 108.305 107.4C111.825 107.4 113.985 105.2 113.985 101.52V93H111.145V101.76ZM117.813 107H120.653V101.34H122.113L125.853 107H129.193L124.813 100.8C126.253 100.14 127.073 98.88 127.073 97.18C127.073 94.58 125.173 93 122.093 93H117.813V107ZM122.253 95.36C123.453 95.36 124.153 96.08 124.153 97.14C124.153 98.28 123.453 98.98 122.253 98.98H120.653V95.36H122.253ZM132.85 110.2L135.17 104.22H132.31L130.49 110.2H132.85ZM20.06 128H25.56C30 128 33 124.78 33 121C33 117.22 30 114 25.56 114H20.06V128ZM25.6 116.58C28.2 116.58 30.08 118.5 30.08 121C30.08 123.48 28.2 125.42 25.6 125.42H22.9V116.58H25.6ZM36.0389 128H44.1989V125.64H38.8789V122.04H43.3989V119.68H38.8789V116.36H44.1989V114H36.0389V128ZM53.2897 128H61.4497V125.42H56.1297V114H53.2897V128ZM63.0945 128H66.1145L67.4545 124.36H73.0545L74.3945 128H77.4145L72.1145 114H68.3945L63.0945 128ZM68.3345 121.94L70.2545 116.68L72.1745 121.94H68.3345ZM85.367 128H88.207V122.34H89.667L93.407 128H96.747L92.367 121.8C93.807 121.14 94.627 119.88 94.627 118.18C94.627 115.58 92.727 114 89.647 114H85.367V128ZM89.807 116.36C91.007 116.36 91.707 117.08 91.707 118.14C91.707 119.28 91.007 119.98 89.807 119.98H88.207V116.36H89.807ZM98.8459 128H107.006V125.64H101.686V122.04H106.206V119.68H101.686V116.36H107.006V114H98.8459V128ZM116.534 125.74C113.894 125.74 112.014 123.68 112.014 121C112.014 118.32 113.894 116.26 116.534 116.26C118.134 116.26 119.394 117.04 120.194 118.18L122.434 116.44C121.154 114.74 119.074 113.6 116.534 113.6C112.114 113.6 109.094 117 109.094 121C109.094 125 112.114 128.4 116.534 128.4C119.074 128.4 121.154 127.28 122.434 125.54L120.194 123.82C119.394 124.96 118.134 125.74 116.534 125.74ZM125.198 128H128.038V122.16H135.098V128H137.938V114H135.098V119.58H128.038V114H125.198V128ZM142.154 128H150.314V125.64H144.994V122.04H149.514V119.68H144.994V116.36H150.314V114H142.154V128ZM153.914 128H156.754V122.34H158.214L161.954 128H165.294L160.914 121.8C162.354 121.14 163.174 119.88 163.174 118.18C163.174 115.58 161.274 114 158.194 114H153.914V128ZM158.354 116.36C159.554 116.36 160.254 117.08 160.254 118.14C160.254 119.28 159.554 119.98 158.354 119.98H156.754V116.36H158.354ZM173.418 125.74C170.778 125.74 168.898 123.68 168.898 121C168.898 118.32 170.778 116.26 173.418 116.26C175.018 116.26 176.278 117.04 177.078 118.18L179.318 116.44C178.038 114.74 175.958 113.6 173.418 113.6C168.998 113.6 165.978 117 165.978 121C165.978 125 168.998 128.4 173.418 128.4C175.958 128.4 178.038 127.28 179.318 125.54L177.078 123.82C176.278 124.96 175.018 125.74 173.418 125.74ZM182.083 128H184.923V122.16H191.983V128H194.823V114H191.983V119.58H184.923V114H182.083V128ZM199.038 128H207.198V125.64H201.878V122.04H206.398V119.68H201.878V116.36H207.198V114H199.038V128ZM20.06 149H28.22V146.64H22.9V143.04H27.42V140.68H22.9V137.36H28.22V135H20.06V149ZM30.6731 137.58H34.9931V149H37.8331V137.58H42.1531V135H30.6731V137.58ZM50.4381 149H55.9381C60.3781 149 63.3781 145.78 63.3781 142C63.3781 138.22 60.3781 135 55.9381 135H50.4381V149ZM55.9781 137.58C58.5781 137.58 60.4581 139.5 60.4581 142C60.4581 144.48 58.5781 146.42 55.9781 146.42H53.2781V137.58H55.9781ZM66.417 149H74.577V146.64H69.257V143.04H73.777V140.68H69.257V137.36H74.577V135H66.417V149ZM83.6678 149H91.8278V146.42H86.5078V135H83.6678V149ZM93.8809 140.76L96.2009 135H93.3209L91.5209 140.76H93.8809ZM98.7116 149H101.552V135H98.7116V149ZM105.765 149H108.605V138.88L114.865 149H118.505V135H115.665V145.12L109.405 135H105.765V149ZM122.72 149H125.56V138.88L131.82 149H135.46V135H132.62V145.12L126.36 135H122.72V149ZM145.916 134.6C141.496 134.6 138.476 138 138.476 142C138.476 146 141.496 149.4 145.916 149.4C150.316 149.4 153.336 146 153.336 142C153.336 138 150.316 134.6 145.916 134.6ZM145.916 146.74C143.276 146.74 141.396 144.68 141.396 142C141.396 139.32 143.276 137.26 145.916 137.26C148.536 137.26 150.416 139.32 150.416 142C150.416 144.68 148.536 146.74 145.916 146.74ZM154.285 135L159.585 149H163.305L168.605 135H165.585L161.445 145.94L157.305 135H154.285ZM168.077 149H171.097L172.437 145.36H178.037L179.377 149H182.397L177.097 135H173.377L168.077 149ZM173.317 142.94L175.237 137.68L177.157 142.94H173.317ZM182.012 137.58H186.332V149H189.172V137.58H193.492V135H182.012V137.58ZM196.287 149H199.127V135H196.287V149ZM209.58 134.6C205.16 134.6 202.14 138 202.14 142C202.14 146 205.16 149.4 209.58 149.4C213.98 149.4 217 146 217 142C217 138 213.98 134.6 209.58 134.6ZM209.58 146.74C206.94 146.74 205.06 144.68 205.06 142C205.06 139.32 206.94 137.26 209.58 137.26C212.2 137.26 214.08 139.32 214.08 142C214.08 144.68 212.2 146.74 209.58 146.74ZM220.022 149H222.862V138.88L229.122 149H232.762V135H229.922V145.12L223.662 135H220.022V149Z" fill="#1E1E1E"/>
<path fill-rule="evenodd" clip-rule="evenodd" d="M71.96 184.7L70.1 186.4H69.62L70.72 184.46H71.96V184.7ZM70.62 191.28H70.22C69.72 191.88 69.16 192.36 68.62 192.36C68.06 192.36 67.78 192.02 67.78 191.28C67.78 190.98 67.82 190.66 67.88 190.38L71.14 189.3C71.78 187.78 71.02 187.12 70.12 187.12C68.58 187.12 66.82 189.82 66.82 191.98C66.82 193 67.3 193.56 68.06 193.56C68.94 193.54 69.86 192.68 70.62 191.28ZM69.5 188C69.94 188 70.32 188.34 70.12 189.12L68.1 189.66C68.42 188.7 69.02 188 69.5 188ZM63.14 188.04H64.22L62.5 192.76C62.34 193.16 62.56 193.56 62.98 193.56C64.2 193.56 65.66 192.52 66.22 191.04H65.92C65.48 191.66 64.52 192.34 63.8 192.46L65.38 188.04H67L67.2 187.36H65.62L66.22 185.66H65.6L64.48 187.36L63.14 187.54V188.04ZM61.64 187.14C61.86 187.14 62.16 187.38 62.02 187.82L60.08 192.52C60.58 192.44 61.1 191.96 61.4 191.52H61.72C61.26 192.7 60.22 193.56 59.32 193.56C59.1 193.56 58.78 193.32 58.94 192.88L60.74 188.18C60.24 188.26 59.72 188.74 59.42 189.18H59.12C59.58 187.98 60.7 187.14 61.64 187.14ZM62.2 185.94C62.6 185.94 62.94 185.62 62.94 185.2C62.94 184.8 62.6 184.46 62.2 184.46C61.78 184.46 61.46 184.8 61.46 185.2C61.46 185.6 61.8 185.94 62.2 185.94ZM53.46 189.84C53.9 188.88 53.74 188.44 53.46 188.44C53.22 188.44 52.94 188.7 52.66 189.18H52.36C52.82 188.16 53.42 187.14 54.08 187.14C54.64 187.14 54.84 187.7 54.84 188.32V189.2C54.931 189.094 55.0195 188.99 55.106 188.889L55.1061 188.889C55.951 187.897 56.5961 187.14 57.34 187.14C57.92 187.14 58.22 187.5 58.22 188.04C58.22 188.36 58.12 188.76 57.9 189.18L56.24 192.52C56.74 192.44 57.26 191.96 57.56 191.52H57.86C57.4 192.72 56.28 193.56 55.34 193.56C54.92 193.56 54.68 193.12 54.86 192.76L56.78 189.06C57 188.64 57.04 188.36 56.7 188.36C56.24 188.36 55.16 189.12 54.58 189.82L53.32 193.14C53.18 193.48 53.04 193.56 52.72 193.56C52.2 193.56 51.94 193.22 52.18 192.68L53.46 189.84ZM52.16 188.56C52.38 187.8 52.26 187.12 51.68 187.12C50.9567 187.12 50.7302 187.598 50.0292 189.076L49.98 189.18V188.3C49.98 187.68 49.78 187.12 49.22 187.12C48.56 187.12 47.96 188.14 47.5 189.16H47.8C48.12 188.7 48.42 188.42 48.66 188.42C48.94 188.42 49.1 188.86 48.66 189.82L47.38 192.66C47.14 193.2 47.4 193.54 47.92 193.54C48.24 193.54 48.38 193.46 48.52 193.12L49.78 189.8C50.14 189.36 50.46 188.98 50.86 188.56H52.16ZM45.84 189.12C46.04 188.34 45.66 188 45.22 188C44.74 188 44.14 188.7 43.82 189.66L45.84 189.12ZM46.34 191.28H45.94C45.44 191.88 44.88 192.36 44.34 192.36C43.78 192.36 43.5 192.02 43.5 191.28C43.5 190.98 43.54 190.66 43.6 190.38L46.86 189.3C47.5 187.78 46.74 187.12 45.84 187.12C44.3 187.12 42.54 189.82 42.54 191.98C42.54 193 43.02 193.56 43.78 193.56C44.66 193.54 45.58 192.68 46.34 191.28ZM39.94 188.04H38.86V187.54L40.2 187.36L41.32 185.66H41.94L41.34 187.36H42.92L42.72 188.04H41.1L39.52 192.46C40.24 192.34 41.2 191.66 41.64 191.04H41.94C41.38 192.52 39.92 193.56 38.7 193.56C38.28 193.56 38.06 193.16 38.22 192.76L39.94 188.04ZM33.14 191.7C33.14 190.24 34.76 188.28 35.66 188.28C35.86 188.28 36.06 188.3 36.22 188.36L35.28 190.88C34.74 191.54 33.9 192.34 33.5 192.34C33.28 192.34 33.14 192.14 33.14 191.7ZM37.6 186.82L38.1 186.86L36.36 190.86C35.94 191.82 36.12 192.26 36.36 192.26C36.6 192.26 36.9 191.98 37.22 191.52H37.52C37.06 192.54 36.46 193.56 35.8 193.56C35.24 193.56 34.9 192.96 35 191.88L35.04 191.5L34.9311 191.652C34.2147 192.654 33.5664 193.56 32.9 193.56C32.32 193.56 32.02 193.2 32.02 192.66C32.02 190.34 34.56 187.38 36.94 187.38H37.04L37.6 186.82ZM33.02 188.56C33.24 187.8 33.12 187.12 32.54 187.12C31.8167 187.12 31.5902 187.598 30.8892 189.076L30.84 189.18V188.3C30.84 187.68 30.64 187.12 30.08 187.12C29.42 187.12 28.82 188.14 28.36 189.16H28.66C28.98 188.7 29.28 188.42 29.5 188.42C29.78 188.42 29.94 188.86 29.5 189.82L28.22 192.68C27.98 193.22 28.24 193.56 28.76 193.56C29.08 193.56 29.22 193.48 29.36 193.14L30.62 189.82C30.98 189.38 31.3 189 31.7 188.58H33.02V188.56ZM24.78 192.96L24.66 193.32H20L20.12 192.94C21.56 192.68 21.8 192.56 22.4 190.94L23.7 187.46C24.28 185.84 24.16 185.72 22.9 185.46L23.02 185.1H29.08L28.72 187.04H28.28C28.28 185.88 28.16 185.58 27.06 185.58H26.78C25.7 185.58 25.56 185.74 25.26 186.58L24.4 188.92H25.66C26.5 188.92 26.82 188.4 27.2 187.72H27.64L26.6 190.56H26.16C26.26 189.7 26.26 189.36 25.48 189.36H24.22L23.64 190.96C23.013 192.625 23.1922 192.659 24.6851 192.942C24.7162 192.948 24.7478 192.954 24.78 192.96Z" fill="black"/>
<path fill-rule="evenodd" clip-rule="evenodd" d="M28.74 169.4L26.88 170.74V170.76H26.4L27.5 169.16H28.74V169.4ZM41.74 178.78L44.72 170.86L44.62 170.74L42.56 170.98V171.22L42.96 171.52C43.3015 171.786 43.2111 172.033 42.9277 172.809L42.88 172.94L40.6 179.02C40.42 179.38 40.66 179.82 41.08 179.82C42.02 179.82 43.02 178.96 43.48 177.78H43.18C42.86 178.22 42.22 178.7 41.74 178.78ZM55.4 172.68L57.26 170.98V170.74H56.02L54.92 172.68H55.4ZM55.52 177.54H55.92C55.18 178.96 54.26 179.82 53.38 179.82C52.62 179.82 52.14 179.26 52.14 178.24C52.14 176.08 53.9 173.38 55.44 173.38C56.32 173.38 57.1 174.04 56.46 175.56L53.18 176.64C53.12 176.92 53.08 177.24 53.08 177.54C53.08 178.28 53.36 178.62 53.92 178.62C54.46 178.62 55.02 178.14 55.52 177.54ZM55.42 175.38C55.62 174.62 55.24 174.28 54.8 174.28C54.34 174.28 53.74 174.98 53.4 175.92L55.42 175.38ZM49.54 174.32H48.46V173.82L49.8 173.64L50.92 171.94H51.54L50.94 173.64H52.52L52.32 174.32H50.7L49.12 178.74C49.84 178.62 50.8 177.94 51.24 177.32H51.54C50.98 178.8 49.52 179.84 48.3 179.84C47.88 179.84 47.66 179.44 47.82 179.04L49.54 174.32ZM47.34 174.08C47.46 173.64 47.18 173.4 46.94 173.4C46 173.4 44.88 174.26 44.42 175.44H44.72C45.02 175 45.54 174.52 46.04 174.44L44.24 179.14C44.08 179.58 44.4 179.82 44.62 179.82C45.52 179.82 46.56 178.96 47.02 177.78H46.72C46.42 178.22 45.9 178.7 45.4 178.78L47.34 174.08ZM48.26 171.48C48.26 171.88 47.92 172.22 47.52 172.22C47.12 172.22 46.78 171.88 46.78 171.48C46.78 171.08 47.1 170.74 47.52 170.74C47.92 170.74 48.26 171.08 48.26 171.48ZM38.16 174.56C37.26 174.56 35.64 176.52 35.64 177.98C35.64 178.42 35.78 178.62 36.02 178.62C36.4 178.62 37.24 177.82 37.78 177.16L38.72 174.64C38.54 174.58 38.36 174.56 38.16 174.56ZM40.6 173.14L40.1 173.1L39.54 173.66H39.44C37.06 173.66 34.52 176.62 34.52 178.94C34.52 179.48 34.82 179.84 35.4 179.84C36.0664 179.84 36.7147 178.934 37.4311 177.932L37.54 177.78L37.5 178.16C37.4 179.24 37.74 179.84 38.3 179.84C38.96 179.84 39.56 178.82 40.02 177.8H39.72C39.4 178.26 39.1 178.54 38.86 178.54C38.62 178.54 38.44 178.1 38.86 177.14L40.6 173.14ZM30.52 179.62C29.66 179.96 29.06 180.36 29.06 180.98C29.06 181.56 29.6 181.8 30.72 181.8C32.22 181.8 33.04 181.36 33.04 180.78C33.04 180.52 32.7 180.4 31.8 180.1C31.22 179.92 30.8 179.76 30.52 179.62ZM31.52 177.16C31.12 177.16 30.98 176.82 30.98 176.46C30.98 175.3 31.54 173.86 32.44 173.86C32.84 173.86 32.98 174.2 32.98 174.56C32.96 175.74 32.4 177.16 31.52 177.16ZM32.28 179.04C33.38 179.38 34.06 179.64 34.06 180.4C34.06 181.38 32.26 182.54 30.08 182.52C28.82 182.52 27.74 182.18 27.74 181.36C27.74 180.58 28.46 179.94 30.22 179.42C29.98 179.26 29.88 179.06 29.88 178.78C29.88 178.3 30.32 177.92 31.08 177.56C30.34 177.46 29.86 176.9 29.86 176.08C29.86 174.82 30.9 173.38 32.54 173.38C32.88 173.38 33.18 173.46 33.42 173.62H35.22L35.02 174.3H33.96C34.02 174.48 34.06 174.68 34.06 174.9C34.06 176.12 33.08 177.52 31.52 177.6C31.12 177.82 30.92 178.12 30.92 178.36C30.92 178.642 31.2472 178.738 31.9702 178.949L31.9705 178.949C32.0666 178.977 32.1697 179.007 32.28 179.04ZM25.94 175.62C26.72 175.62 26.74 175.96 26.62 176.82H27.06L28.1 173.98H27.66C27.28 174.66 26.96 175.18 26.12 175.18H24.4L25.24 172.84C25.54 172 25.68 171.84 26.76 171.84H27.52C28.62 171.84 28.74 172.14 28.74 173.3H29.18L29.54 171.36H23.02L22.9 171.72C24.16 171.98 24.28 172.1 23.7 173.72L22.4 177.22C21.8 178.84 21.56 178.96 20.1 179.22L20 179.6H27.24L28.54 177.54H28.04C27.2 178.36 26.36 179.12 24.72 179.12C22.9161 179.12 22.9483 179.032 23.4895 177.545C23.5243 177.449 23.5613 177.348 23.6 177.24L24.2 175.64H25.94V175.62Z" fill="black"/>
<path fill-rule="evenodd" clip-rule="evenodd" d="M31.92 158.48C32.32 158.48 32.66 158.14 32.66 157.74C32.66 157.34 32.32 157 31.92 157C31.5 157 31.18 157.34 31.18 157.74C31.18 158.16 31.5 158.48 31.92 158.48ZM33.66 166.08C35.22 166.1 37.84 163.22 37.84 161C37.84 160.04 37.6 159.68 36.92 159.68C36.08 159.68 35.3 160.58 34.52 161.66L36.2 157.16L36.1 157.02L34.04 157.26V157.5L34.44 157.8C34.7883 158.071 34.6873 158.342 34.3906 159.138L34.36 159.22L32.54 163.98C32.38 164.38 32.2 164.86 32.2 164.98C32.2 165.54 32.96 166.08 33.66 166.08ZM55.18 158.96L57.04 157.26V157.02H55.8L54.7 158.96H55.18ZM55.3 163.82H55.7C54.94 165.24 54.02 166.1 53.14 166.08C52.38 166.08 51.9 165.54 51.9 164.52C51.9 162.36 53.66 159.66 55.2 159.66C56.08 159.66 56.86 160.32 56.22 161.84L52.96 162.92C52.9 163.2 52.86 163.52 52.86 163.82C52.86 164.56 53.14 164.9 53.7 164.9C54.24 164.9 54.8 164.42 55.3 163.82ZM55.2 161.66C55.4 160.9 55.02 160.56 54.58 160.56C54.1 160.56 53.5 161.26 53.18 162.2L55.2 161.66ZM49.3 160.6H48.22V160.1L49.56 159.92L50.68 158.22H51.3L50.7 159.92H52.28L52.08 160.6H50.46L48.88 165.02C49.6 164.9 50.56 164.22 51 163.6H51.3C50.74 165.08 49.28 166.12 48.06 166.12C47.64 166.12 47.42 165.72 47.58 165.32L49.3 160.6ZM47.66 161.12C47.88 160.36 47.76 159.68 47.18 159.68C46.4567 159.68 46.2302 160.158 45.5292 161.636L45.48 161.74V160.86C45.48 160.24 45.28 159.68 44.72 159.68C44.06 159.68 43.46 160.7 43 161.72H43.3C43.62 161.26 43.92 160.98 44.14 160.98C44.42 160.98 44.58 161.42 44.14 162.38L42.86 165.22C42.62 165.76 42.88 166.1 43.4 166.1C43.72 166.1 43.86 166.02 44 165.68L45.26 162.36C45.62 161.92 45.94 161.54 46.34 161.12H47.66ZM41.32 161.66C41.52 160.9 41.14 160.56 40.7 160.56C40.22 160.56 39.64 161.26 39.3 162.2L41.32 161.66ZM41.82 163.82H41.42C40.92 164.42 40.36 164.9 39.82 164.9C39.26 164.9 38.98 164.56 38.98 163.82C38.98 163.52 39.02 163.2 39.08 162.92L42.34 161.84C42.98 160.32 42.22 159.66 41.32 159.66C39.78 159.66 38.02 162.36 38.02 164.52C38.02 165.54 38.5 166.08 39.26 166.08C40.14 166.1 41.06 165.24 41.82 163.82ZM33.42 164.58C33.42 164.84 33.88 165.14 34.2 165.14C35.5 165.14 36.72 162.8 36.7 161.5C36.7 161.06 36.48 160.88 36.18 160.88C35.7 160.88 34.82 161.6 34.26 162.28L33.74 163.68C33.56 164.14 33.42 164.5 33.42 164.58ZM31.32 159.68C31.56 159.68 31.84 159.92 31.72 160.36L29.8 165.06C30.3 164.98 30.82 164.5 31.12 164.06H31.42C30.96 165.24 29.92 166.1 29.02 166.1C28.78 166.1 28.46 165.86 28.62 165.42L30.42 160.72C29.92 160.8 29.4 161.28 29.1 161.72H28.8C29.26 160.54 30.38 159.68 31.32 159.68ZM23.02 157.6H27.32L27.2 157.98C25.74 158.24 25.5 158.36 24.9 159.98L23.62 163.5C23 165.18 23.16 165.38 24.26 165.38C25.619 165.38 26.5102 164.392 27.2883 163.53C27.3461 163.466 27.4033 163.402 27.46 163.34H27.96L26.54 165.86H20L20.12 165.5C21.56 165.24 21.8 165.12 22.4 163.5L23.7 159.96C24.28 158.34 24.16 158.22 22.9 157.96L23.02 157.6Z" fill="black"/>
<mask id="mask1" mask-type="alpha" maskUnits="userSpaceOnUse" x="18" y="157" width="54" height="37">
<rect x="18" y="157" width="54" height="37" fill="#C4C4C4"/>
</mask>
<g mask="url(#mask1)">
</g>
</svg>
