<?xml version="1.0" encoding="utf-8"?>
<!-- Generator: Adobe Illustrator 22.1.0, SVG Export Plug-In . SVG Version: 6.00 Build 0)  -->
<svg version="1.1" id="Calque_1" xmlns="http://www.w3.org/2000/svg" xmlns:xlink="http://www.w3.org/1999/xlink" x="0px" y="0px"
	 viewBox="0 0 96.7 100" style="enable-background:new 0 0 96.7 100;" xml:space="preserve">
<style type="text/css">
	.st0{fill:#FFFFFF;}
	.st1{fill:#000091;}
	.st2{fill:#E1000F;}
	.st3{fill:#9C9B9B;}
</style>
<rect class="st0" width="96.7" height="100"/>
<path id="Devise_Républicaine_2_" d="M32.3,86.5c0.2,0,0.3,0.1,0.2,0.5l-0.8,0.2C31.9,86.8,32.1,86.5,32.3,86.5 M32.8,87.9h-0.2
	c-0.2,0.2-0.4,0.4-0.6,0.4c-0.2,0-0.3-0.1-0.3-0.4c0-0.1,0-0.2,0-0.4l1.3-0.4c0.3-0.6-0.1-0.9-0.4-0.9c-0.6,0-1.3,1-1.3,2
	c0,0.4,0.2,0.6,0.5,0.6C32.1,88.8,32.5,88.4,32.8,87.9 M32.5,86l0.9-0.9V85H33l-0.6,1H32.5z M29.7,86.6h0.4l-0.7,1.9
	c-0.1,0.2,0,0.3,0.2,0.3c0.4,0,1-0.4,1.3-0.9h-0.1c-0.2,0.2-0.5,0.4-0.8,0.5l0.6-1.8h0.7l0.1-0.3h-0.6l0.2-0.7h-0.3l-0.5,0.7
	l-0.5,0.1V86.6z M29.1,86.5c0.1-0.2-0.1-0.3-0.2-0.3c-0.4,0-0.8,0.3-1,0.8H28c0.1-0.2,0.3-0.4,0.5-0.4l-0.7,1.9
	c-0.1,0.2,0.1,0.3,0.2,0.3c0.4,0,0.8-0.3,1-0.8h-0.1c-0.1,0.2-0.3,0.4-0.5,0.4L29.1,86.5z M29.2,85.5c0.2,0,0.3-0.1,0.3-0.3
	c0-0.2-0.1-0.3-0.3-0.3c-0.2,0-0.3,0.1-0.3,0.3C28.9,85.4,29,85.5,29.2,85.5 M25,88.4c-0.1,0.2,0,0.4,0.2,0.4c0.1,0,0.2,0,0.2-0.2
	l0.5-1.3c0.2-0.3,0.7-0.6,0.9-0.6c0.1,0,0.1,0.1,0,0.3l-0.8,1.5c-0.1,0.1,0,0.3,0.2,0.3c0.4,0,0.8-0.3,1-0.8h-0.1
	c-0.1,0.2-0.3,0.4-0.5,0.4l0.7-1.3c0.1-0.2,0.1-0.3,0.1-0.5c0-0.2-0.1-0.4-0.4-0.4c-0.3,0-0.7,0.4-1.1,0.8v-0.4
	c0-0.3-0.1-0.5-0.3-0.5c-0.1,0-0.3,0.1-0.4,0.3v0c0.2,0,0.4,0.4,0.2,0.7L25,88.4z M25,86.8c0.1-0.3,0-0.6-0.2-0.6
	c-0.3,0-0.4,0.2-0.6,0.8v-0.4c0-0.3-0.1-0.5-0.3-0.5c-0.3,0-0.5,0.4-0.7,0.8h0.1c0.1-0.2,0.2-0.3,0.3-0.3c0.1,0,0.2,0.2,0,0.6
	l-0.5,1.1c-0.1,0.2,0,0.4,0.2,0.4c0.1,0,0.2,0,0.2-0.2l0.5-1.3c0.1-0.2,0.3-0.3,0.4-0.5H25z M22.1,86.5c0.2,0,0.3,0.1,0.2,0.5
	l-0.8,0.2C21.7,86.8,21.9,86.5,22.1,86.5 M22.6,87.9h-0.2c-0.2,0.2-0.4,0.4-0.6,0.4c-0.2,0-0.3-0.1-0.3-0.4c0-0.1,0-0.2,0-0.4
	l1.3-0.4c0.3-0.6-0.1-0.9-0.4-0.9c-0.6,0-1.3,1-1.3,2c0,0.4,0.2,0.6,0.5,0.6C21.9,88.8,22.2,88.4,22.6,87.9 M19.4,86.6h0.4l-0.7,1.9
	c-0.1,0.2,0,0.3,0.2,0.3c0.4,0,1-0.4,1.3-0.9h-0.1c-0.2,0.2-0.5,0.4-0.8,0.5l0.6-1.8H21l0.1-0.3h-0.6l0.2-0.7h-0.3L20,86.3l-0.5,0.1
	V86.6z M17,88c0-0.6,0.7-1.4,1-1.4c0.1,0,0.2,0,0.2,0l-0.4,1c-0.2,0.3-0.6,0.6-0.7,0.6C17.1,88.3,17,88.2,17,88 M19,86.1l-0.2,0
	l-0.2,0.2h0c-1.1,0-2,1.2-2,2.1c0,0.2,0.2,0.4,0.4,0.4c0.3,0,0.6-0.4,0.9-0.8l0,0.2c0,0.4,0.1,0.7,0.3,0.7c0.3,0,0.5-0.4,0.7-0.8
	h-0.1c-0.1,0.2-0.2,0.3-0.3,0.3c-0.1,0-0.2-0.2,0-0.6L19,86.1z M16.7,86.8c0.1-0.3,0-0.6-0.2-0.6c-0.3,0-0.4,0.2-0.6,0.8v-0.4
	c0-0.3-0.1-0.5-0.3-0.5c-0.3,0-0.5,0.4-0.7,0.8H15c0.1-0.2,0.2-0.3,0.3-0.3c0.1,0,0.2,0.2,0,0.6l-0.5,1.1c-0.1,0.2,0,0.4,0.2,0.4
	c0.1,0,0.2,0,0.2-0.2l0.5-1.3c0.1-0.2,0.3-0.3,0.4-0.5H16.7z M13.1,88.7l0-0.1c-0.6-0.1-0.7-0.1-0.5-0.8l0.3-0.7h0.7
	c0.3,0,0.3,0.1,0.3,0.5h0.2l0.4-1.1h-0.2c-0.2,0.3-0.3,0.5-0.6,0.5H13l0.4-1c0.1-0.3,0.2-0.4,0.6-0.4h0.3c0.4,0,0.5,0.1,0.5,0.6H15
	l0.1-0.8h-2.6l0,0.1c0.5,0.1,0.6,0.2,0.3,0.8l-0.6,1.6c-0.2,0.7-0.3,0.7-0.9,0.8l0,0.1H13.1z M26,80.6c0.2,0,0.3,0.1,0.2,0.5
	l-0.8,0.2C25.5,80.9,25.8,80.6,26,80.6 M26.4,81.9h-0.2c-0.2,0.2-0.4,0.4-0.6,0.4c-0.2,0-0.3-0.1-0.3-0.4c0-0.1,0-0.2,0-0.4l1.3-0.4
	c0.3-0.6-0.1-0.9-0.4-0.9c-0.6,0-1.3,1-1.3,2c0,0.4,0.2,0.6,0.5,0.6C25.7,82.8,26.1,82.5,26.4,81.9 M26.2,80l0.9-0.9V79h-0.5L26,80
	H26.2z M23.3,80.6h0.4l-0.7,1.9c-0.1,0.2,0,0.3,0.2,0.3c0.4,0,1-0.4,1.3-0.9h-0.1c-0.2,0.2-0.5,0.4-0.8,0.5l0.6-1.8h0.7l0.1-0.3
	h-0.6l0.2-0.7h-0.3l-0.5,0.7l-0.5,0.1V80.6z M22.7,80.5c0.1-0.2-0.1-0.3-0.2-0.3c-0.4,0-0.8,0.3-1,0.8h0.1c0.1-0.2,0.3-0.4,0.5-0.4
	l-0.7,1.9c-0.1,0.2,0.1,0.3,0.2,0.3c0.4,0,0.8-0.3,1-0.8h-0.1c-0.1,0.2-0.3,0.4-0.5,0.4L22.7,80.5z M22.9,79.6
	c0.2,0,0.3-0.1,0.3-0.3c0-0.2-0.1-0.3-0.3-0.3c-0.2,0-0.3,0.1-0.3,0.3C22.5,79.4,22.7,79.6,22.9,79.6 M20.3,82.4l1.3-3.5l0-0.1
	L20.8,79v0.1l0.2,0.1c0.1,0.1,0.1,0.2,0,0.6l-1,2.7c-0.1,0.1,0,0.3,0.2,0.3c0.4,0,0.8-0.3,1-0.8h-0.1C20.8,82.2,20.5,82.4,20.3,82.4
	 M17.8,82.1c0-0.6,0.7-1.4,1-1.4c0.1,0,0.2,0,0.2,0l-0.4,1c-0.2,0.3-0.6,0.6-0.7,0.6C17.9,82.3,17.8,82.3,17.8,82.1 M19.8,80.1
	l-0.2,0l-0.2,0.2h0c-1.1,0-2,1.2-2,2.1c0,0.2,0.2,0.4,0.4,0.4c0.3,0,0.6-0.4,0.9-0.8l0,0.2c0,0.4,0.1,0.7,0.3,0.7
	c0.3,0,0.5-0.4,0.7-0.8h-0.1c-0.1,0.2-0.2,0.3-0.3,0.3c-0.1,0-0.2-0.2,0-0.6L19.8,80.1z M15,83.3c0-0.3,0.2-0.4,0.6-0.5
	c0.1,0.1,0.3,0.1,0.5,0.2c0.4,0.1,0.5,0.2,0.5,0.3c0,0.2-0.4,0.4-0.9,0.4C15.2,83.6,15,83.5,15,83.3 M15.9,81.8
	c-0.2,0-0.2-0.1-0.2-0.3c0-0.4,0.2-1,0.6-1c0.2,0,0.2,0.1,0.2,0.3C16.5,81.1,16.3,81.8,15.9,81.8 M17,83.1c0-0.3-0.3-0.4-0.7-0.5
	c-0.4-0.1-0.6-0.1-0.6-0.3c0-0.1,0.1-0.2,0.2-0.3c0.6,0,1-0.6,1-1.1c0-0.1,0-0.2-0.1-0.3h0.5l0.1-0.3h-0.8c-0.1-0.1-0.2-0.1-0.3-0.1
	c-0.7,0-1.1,0.6-1.1,1.1c0,0.4,0.2,0.6,0.5,0.6c-0.3,0.1-0.5,0.3-0.5,0.5c0,0.1,0,0.2,0.1,0.3c-0.7,0.2-1,0.4-1,0.8
	c0,0.3,0.4,0.5,0.9,0.5C16.3,83.9,17,83.5,17,83.1 M13.7,81c0.3,0,0.3,0.1,0.3,0.5h0.2l0.4-1.1h-0.2c-0.2,0.3-0.3,0.5-0.6,0.5H13
	l0.3-1c0.1-0.3,0.2-0.4,0.6-0.4h0.3c0.4,0,0.5,0.1,0.5,0.6H15l0.1-0.8h-2.6l0,0.1c0.5,0.1,0.6,0.2,0.3,0.8l-0.6,1.6
	c-0.2,0.7-0.3,0.7-0.9,0.8l0,0.1h2.9l0.5-0.8h-0.2c-0.3,0.3-0.8,0.6-1.3,0.6c-0.8,0-0.7,0-0.4-0.7L13,81H13.7z M14,79l0.9-0.6v-0.1
	h-0.6L13.9,79H14z M25.7,74.7c0.2,0,0.3,0.1,0.2,0.5l-0.8,0.2C25.2,74.9,25.5,74.7,25.7,74.7 M26.1,76h-0.2
	c-0.2,0.2-0.4,0.4-0.6,0.4c-0.2,0-0.3-0.1-0.3-0.4c0-0.1,0-0.2,0-0.4l1.3-0.4c0.3-0.6-0.1-0.9-0.4-0.9c-0.6,0-1.3,1-1.3,2
	c0,0.4,0.2,0.6,0.5,0.6C25.4,76.9,25.8,76.5,26.1,76 M25.8,74.1l0.9-0.9v-0.1h-0.5l-0.6,1H25.8z M23.1,74.7h0.3l-0.7,1.9
	c-0.1,0.2,0,0.3,0.2,0.3c0.4,0,1-0.4,1.3-0.9h-0.1c-0.2,0.2-0.5,0.4-0.8,0.5l0.6-1.8h0.7l0.1-0.3H24l0.2-0.7H24l-0.5,0.7l-0.4,0.1
	V74.7z M22.8,74.9c0.1-0.3,0-0.6-0.2-0.6c-0.3,0-0.4,0.2-0.6,0.8v-0.4c0-0.3-0.1-0.5-0.3-0.5c-0.3,0-0.5,0.4-0.7,0.8h0.1
	c0.1-0.2,0.2-0.3,0.3-0.3c0.1,0,0.2,0.2,0,0.6l-0.5,1.1c-0.1,0.2,0,0.4,0.2,0.4c0.1,0,0.2,0,0.2-0.2l0.5-1.3
	c0.1-0.2,0.3-0.3,0.4-0.5H22.8z M19.9,74.7c0.2,0,0.3,0.1,0.2,0.5l-0.8,0.2C19.4,74.9,19.7,74.7,19.9,74.7 M20.3,76h-0.2
	c-0.2,0.2-0.4,0.4-0.6,0.4c-0.2,0-0.3-0.1-0.3-0.4c0-0.1,0-0.2,0-0.4l1.3-0.4c0.3-0.6-0.1-0.9-0.4-0.9c-0.6,0-1.3,1-1.3,2
	c0,0.4,0.2,0.6,0.5,0.6C19.6,76.9,20,76.5,20.3,76 M17.1,76.5c-0.1,0-0.3-0.1-0.3-0.2c0,0,0.1-0.2,0.1-0.4l0.2-0.6
	c0.2-0.3,0.6-0.6,0.8-0.6c0.1,0,0.2,0.1,0.2,0.3C18.1,75.6,17.6,76.5,17.1,76.5 M18.6,74.8c0-0.4-0.1-0.5-0.4-0.5
	c-0.3,0-0.6,0.4-1,0.8L18,73l0-0.1L17.1,73v0.1l0.2,0.1c0.1,0.1,0.1,0.2,0,0.6L16.4,76c-0.1,0.2-0.1,0.4-0.1,0.4
	c0,0.2,0.3,0.4,0.6,0.4C17.5,76.9,18.6,75.7,18.6,74.8 M16,74.6c0.1-0.2-0.1-0.3-0.2-0.3c-0.4,0-0.8,0.3-1,0.8h0.1
	c0.1-0.2,0.3-0.4,0.5-0.4l-0.7,1.9c-0.1,0.2,0.1,0.3,0.2,0.3c0.4,0,0.8-0.3,1-0.8h-0.1c-0.1,0.2-0.3,0.4-0.5,0.4L16,74.6z
	 M16.1,73.6c0.2,0,0.3-0.1,0.3-0.3c0-0.2-0.1-0.3-0.3-0.3c-0.2,0-0.3,0.1-0.3,0.3C15.8,73.5,15.9,73.6,16.1,73.6 M14.2,73.3h-1.7
	l0,0.1c0.5,0.1,0.6,0.2,0.3,0.8l-0.6,1.6c-0.2,0.7-0.3,0.7-0.9,0.8l0,0.1h2.6l0.6-1h-0.2c-0.3,0.4-0.7,0.8-1.3,0.8
	c-0.4,0-0.5-0.1-0.3-0.7l0.6-1.6c0.2-0.7,0.3-0.7,0.9-0.8L14.2,73.3z"/>
<path id="Fond_1_" class="st0" d="M21.1,18.9c0.1-0.1,0.2-0.2,0.3-0.3h0c0.2-0.2,0.3-0.4,0.5-0.6c0.1-0.1,0.1-0.1,0.2-0.1
	c0,0,0,0,0-0.1c-0.1,0-0.1,0.1-0.2,0.1c0,0,0,0,0,0c0.1,0,0.1-0.1,0.2-0.1c0,0,0,0,0,0c0,0,0,0,0,0c-0.2,0-0.4,0.1-0.5,0.2
	c0,0-0.1,0-0.1,0c-0.2,0.1-0.4,0.3-0.7,0.4v0c-0.1,0-0.2,0.1-0.3,0.1c-0.1,0-0.3,0-0.4,0c-0.2,0-0.4,0.1-0.6,0.1c0,0,0,0,0,0
	c-0.1,0-0.2,0.1-0.3,0.1c0,0,0,0,0,0c0,0,0,0,0,0c0,0-0.1,0.1-0.1,0.1c-0.1,0.1-0.2,0.1-0.3,0.2c0,0,0,0,0,0
	c-0.1,0.1-0.2,0.2-0.3,0.3c0,0,0,0-0.1,0c0,0,0,0,0,0c0,0,0,0,0,0c0,0,0,0,0-0.1c0,0,0-0.1,0-0.1c0,0,0-0.1,0.1-0.1c0,0,0,0,0,0
	c0,0,0,0,0,0c0.1-0.1,0.2-0.1,0.3-0.2v0c0,0,0,0,0,0c0,0,0,0,0,0c0,0,0,0,0,0c0,0,0,0,0,0c0,0-0.1,0-0.1,0.1c0,0-0.1,0.1-0.1,0.1
	c0,0,0,0,0,0c0,0,0,0,0,0c0,0,0,0,0,0c0,0,0,0,0,0c0,0,0,0,0,0c0,0,0,0,0,0c0,0,0,0,0,0c0,0,0,0,0,0c0,0,0,0,0,0c0,0,0,0,0,0
	c0,0,0,0,0,0c0,0,0,0,0,0c0,0,0,0,0,0c0,0,0,0,0,0c0,0,0.1-0.1,0.1-0.1h0c0.1,0,0.1-0.1,0.2-0.1c0,0,0,0,0,0c-0.1,0-0.2,0.1-0.3,0.1
	c0,0,0,0,0,0c0,0,0,0,0,0c0,0,0,0,0,0c0,0,0.1,0,0.1-0.1c0,0,0,0,0,0c0.5-0.4,1.2-0.3,1.8-0.5c0,0,0.1-0.1,0.1-0.1
	c0.1,0,0.1-0.1,0.2-0.2c0.1-0.1,0.2-0.2,0.3-0.4c0,0,0,0,0,0c-0.2,0.2-0.5,0.4-0.7,0.5C20.2,18,19.8,18,19.4,18c0,0,0,0,0.1,0
	c0,0,0-0.1,0.1-0.1h0c0,0,0,0,0,0c0,0,0.1,0,0.1,0c0-0.1-0.1,0-0.2,0c0,0,0-0.1,0-0.1h0.1c0,0,0-0.1,0-0.1c0.2-0.1,0.5-0.3,0.7-0.4
	c0,0-0.1,0-0.1,0c0,0,0,0,0,0c0.2,0,0.3-0.1,0.5-0.2c-0.1,0-0.1,0-0.2,0c0,0,0,0,0.1,0v0c0,0,0,0,0,0c0,0,0,0,0,0c0,0,0.1,0,0.1,0
	c0,0,0,0,0,0c0-0.1,0.1-0.1,0.2-0.1c0,0-0.1,0-0.1,0c0,0,0,0,0,0h0c0,0,0,0,0-0.1c0.1-0.1,0.1-0.3,0.1-0.4c0,0,0,0,0,0
	c-0.2,0.2-0.4,0.2-0.7,0.3h-0.1c-0.1,0-0.2,0-0.3,0c-0.1,0-0.1-0.1-0.2-0.1c-0.1-0.1-0.3-0.1-0.4-0.2C19,16.1,18.5,16,18.1,16
	c0.2-0.1,0.4-0.1,0.6-0.2c0.3-0.1,0.5-0.2,0.8-0.2c0,0-0.1,0-0.2,0c-0.2,0-0.5,0-0.7,0.1c-0.2,0-0.3,0.1-0.5,0.1
	c-0.1,0-0.1,0.1-0.3,0.1v0c0.2-0.2,0.4-0.4,0.6-0.4c0.3,0,0.6,0,0.9,0c0.2,0,0.4,0.1,0.6,0.1c0.1,0,0.1,0.1,0.2,0.1
	c0.1,0,0.2,0,0.3,0.1c0,0,0-0.1,0-0.1c0.1-0.1,0.1,0,0.2,0c0.1-0.1-0.1-0.2-0.2-0.3c0,0,0,0,0,0c0.1,0.1,0.2,0.2,0.4,0.3
	c0.1,0,0.3,0.1,0.2,0c-0.1-0.2-0.2-0.3-0.4-0.5v-0.1c0,0,0,0,0,0v-0.1c-0.1,0,0-0.1-0.1-0.1c0-0.1,0-0.2,0-0.3c0-0.1,0-0.2-0.1-0.3
	c0-0.3-0.1-0.5-0.1-0.8c0-0.3,0.2-0.6,0.3-0.8c0.1-0.2,0.2-0.4,0.5-0.5c0-0.2,0.2-0.4,0.3-0.5c0.1-0.2,0.3-0.3,0.5-0.3
	c0.2-0.1,0.4-0.2,0.4-0.2l3.3,0c0,0,0,0,0.1,0c0.1,0,0.2,0.1,0.2,0.1c0.1,0.1,0.2,0.1,0.3,0.3c0,0,0.1,0.1,0,0.2
	c0,0.1,0,0.2-0.1,0.2c-0.1,0-0.2,0-0.3,0c-0.1,0-0.1,0-0.2,0c0.2,0.1,0.5,0.2,0.6,0.4c0,0,0.1,0,0.1,0c0,0,0,0,0,0c0,0-0.1,0,0,0.1
	h0c0.1,0,0.1-0.2,0.2-0.1c0.1,0,0.1,0.2,0.1,0.2c-0.1,0.1-0.1,0.1-0.2,0.2c0,0,0,0.1,0,0.1c0,0.1,0.1,0.1,0.1,0.2
	c0,0.1,0.1,0.2,0.1,0.4c0.1,0.2,0.1,0.5,0.1,0.7c0,0.1-0.1,0.2,0,0.4c0,0.1,0.1,0.2,0.2,0.3c0.1,0.1,0.1,0.2,0.2,0.3
	c0.1,0.2,0.3,0.3,0.2,0.5c0,0.1-0.2,0.1-0.3,0.2c-0.1,0.1,0,0.2,0,0.3c0.1,0.1-0.1,0.2-0.2,0.3c0,0,0.1,0,0.1,0.1
	c0,0.1,0.1,0.1,0,0.2c-0.1,0.1-0.3,0.1-0.2,0.3c0.1,0.1,0,0.2,0,0.4c0,0.1-0.2,0.2-0.3,0.2c-0.1,0-0.2,0-0.3,0c0,0-0.1,0-0.1,0
	c-0.3,0-0.6-0.1-0.8-0.1c-0.1,0-0.2,0-0.2,0.1C25,17.8,25,17.9,24.9,18c0,0,0,0,0,0c0,0,0,0,0,0c0,0,0,0,0,0c0,0,0,0,0,0
	c0,0.1-0.1,0.1-0.1,0.2c0,0,0,0,0,0c0,0,0,0,0,0c-0.1,0.1-0.1,0.2-0.1,0.3c-0.1,0.4-0.1,0.7,0,0.8c0,0,0.5,0.2,0.9,0.3
	c0.2,0.1,0.3,0.1,0.4,0.2l-6.7,0c0.3-0.2,0.6-0.3,1.1-0.5C20.4,19.2,20.9,19,21.1,18.9 M18.5,17.7C18.5,17.7,18.4,17.7,18.5,17.7
	c-0.1-0.1,0-0.1,0.1-0.1c0,0,0.1,0,0.1,0c0,0,0.1,0,0.1,0.1C18.8,17.7,18.7,17.6,18.5,17.7 M16,17.3C16,17.3,16,17.3,16,17.3
	c0.2-0.3,0.4-0.6,0.5-0.9c0.2-0.1,0.4-0.3,0.6-0.5c0.3-0.3,0.6-0.6,0.9-0.7c0.1,0,0.3,0,0.4,0c0,0.1-0.1,0-0.2,0.1c0,0,0,0,0,0
	c0,0,0,0,0,0c-0.2,0.2-0.4,0.3-0.5,0.5c-0.1,0.2-0.2,0.4-0.4,0.4c-0.1,0,0,0,0,0C16.8,16.5,16.4,16.9,16,17.3 M17.4,16.2
	C17.4,16.3,17.4,16.3,17.4,16.2c-0.1,0.1-0.1,0.1-0.1,0.1c0,0,0,0,0,0C17.3,16.3,17.3,16.2,17.4,16.2C17.4,16.2,17.4,16.2,17.4,16.2
	 M18.2,18.7C18.2,18.7,18.1,18.7,18.2,18.7C18.1,18.7,18.2,18.8,18.2,18.7c-0.1,0.1-0.1,0.1-0.1,0.2c0,0,0,0,0,0c0,0,0,0-0.1,0.1
	c0,0-0.1,0-0.1,0c0,0,0.1-0.1,0.1-0.1c0,0,0,0,0.1-0.1C18,18.7,18.1,18.7,18.2,18.7C18.1,18.7,18.2,18.7,18.2,18.7 M17.9,18.6
	C17.9,18.6,17.9,18.6,17.9,18.6c-0.1,0-0.1,0.1-0.2,0.1c-0.1,0-0.1,0.1-0.2,0.1c0,0,0,0,0,0c0,0,0,0,0,0c-0.1,0-0.1,0.1-0.2,0.1
	c0,0,0,0,0,0c0,0,0,0,0,0c0,0,0,0,0,0c0,0,0,0,0,0c0,0,0,0,0,0c0,0,0,0,0,0c0,0,0,0,0,0c0,0,0,0,0,0c0,0,0,0,0,0c0,0,0,0,0,0
	c0,0,0,0,0,0c0,0,0,0,0,0c0,0,0,0,0,0c0,0,0,0,0,0c0,0,0,0-0.1,0c0,0-0.1,0.1-0.1,0.1c0,0,0,0,0,0c0,0,0,0,0,0c0,0,0,0,0,0
	c0,0,0,0,0,0c0,0,0,0,0,0c0,0,0,0,0,0l0,0c0,0,0,0,0,0c0,0,0,0,0,0c0,0,0,0,0,0c0,0,0,0,0,0l0,0c0,0,0,0,0,0c0,0,0,0,0.1-0.1
	c0,0,0,0,0,0c0,0,0,0,0,0c0,0,0,0,0,0c0,0,0,0,0,0c0,0,0,0,0.1-0.1c0,0,0,0,0,0c0,0,0,0,0,0c0,0,0,0,0,0c0,0,0,0,0,0c0,0,0,0,0,0
	c0,0,0,0,0,0c0,0,0,0,0,0c0,0,0,0,0,0c0,0,0,0,0,0c0,0,0,0,0,0c0,0,0,0,0,0c0,0,0,0,0,0c0,0,0,0,0,0c0,0,0,0,0,0c0,0,0-0.1,0.1-0.1
	c0,0,0,0,0,0c0,0,0,0-0.1,0.1c0,0-0.1,0,0,0c0,0,0,0,0,0c0,0,0,0,0,0c0,0,0.1-0.1,0.1-0.1c0,0,0,0,0.1,0c0,0,0,0,0,0c0,0,0,0,0,0
	c0,0,0,0,0,0c0.2-0.2,0.4-0.1,0.6-0.2c0.1,0,0.2,0,0.3,0c0,0,0.1,0,0.1,0C18.1,18.4,18,18.5,17.9,18.6 M18.2,17.4
	C18.2,17.4,18.2,17.4,18.2,17.4L18.2,17.4C18.1,17.4,18.1,17.4,18.2,17.4c-0.2,0-0.3,0-0.3,0c-0.1,0-0.2,0.1-0.3,0.1
	c-0.2,0.1-0.3,0.2-0.5,0.3c0,0,0,0,0,0c0,0,0.1-0.1,0.1-0.1c0,0,0,0,0,0c0.1-0.2,0.3-0.3,0.5-0.4v0c0-0.1,0.1-0.1,0.2-0.2
	c0,0,0.1-0.1,0.2-0.1c0,0,0,0,0,0c-0.1,0-0.1,0-0.2,0c0,0,0.1,0,0.1-0.1c0,0,0,0,0,0c0,0,0-0.1,0.1-0.1c0.1,0,0.1,0,0.2-0.1
	c-0.1,0-0.2,0-0.4,0c0.1-0.2,0.2-0.4,0.4-0.5c0,0,0,0,0,0c0,0.1,0,0.1-0.1,0.2c0.1,0,0.3,0,0.4,0.1c0,0,0,0-0.1,0
	c0.1,0,0.2,0,0.3,0.1c0,0-0.1,0-0.1,0c0.5,0.1,1,0.3,1.5,0.6c-0.4,0.2-0.7,0.3-1.1,0.3c0,0-0.1,0-0.1,0c0,0,0,0,0,0
	c-0.1,0-0.1,0-0.2,0C18.3,17.5,18.2,17.5,18.2,17.4"/>
<path id="Rouge_2_" class="st1" d="M21.1,18.9c0.1-0.1,0.2-0.2,0.3-0.3h0c0.2-0.2,0.3-0.4,0.5-0.6c0.1-0.1,0.1-0.1,0.2-0.1
	c0,0,0,0,0-0.1c-0.1,0-0.1,0.1-0.2,0.1c0,0,0,0,0,0c0.1,0,0.1-0.1,0.2-0.1c0,0,0,0,0,0c0,0,0,0,0,0c-0.2,0-0.4,0.1-0.5,0.2
	c0,0-0.1,0-0.1,0c-0.2,0.1-0.4,0.3-0.7,0.4v0c-0.1,0-0.2,0.1-0.3,0.1c-0.1,0-0.3,0-0.4,0c-0.2,0-0.4,0.1-0.6,0.1c0,0,0,0,0,0
	c-0.1,0-0.2,0.1-0.3,0.1c0,0,0,0,0,0c0,0,0,0,0,0c0,0-0.1,0.1-0.1,0.1c-0.1,0.1-0.2,0.1-0.3,0.2c0,0,0,0,0,0
	c-0.1,0.1-0.2,0.2-0.3,0.3c0,0,0,0-0.1,0c0,0,0,0,0,0c0,0,0,0,0,0c0,0,0,0,0-0.1c0,0,0-0.1,0-0.1c0,0,0-0.1,0.1-0.1c0,0,0,0,0,0
	c0,0,0,0,0,0c0.1-0.1,0.2-0.1,0.3-0.2v0c0,0,0,0,0,0c0,0,0,0,0,0c0,0,0,0,0,0c0,0,0,0,0,0c0,0-0.1,0-0.1,0.1c0,0-0.1,0.1-0.1,0.1
	c0,0,0,0,0,0c0,0,0,0,0,0c0,0,0,0,0,0c0,0,0,0,0,0c0,0,0,0,0,0c0,0,0,0,0,0c0,0,0,0,0,0c0,0,0,0,0,0c0,0,0,0,0,0c0,0,0,0,0,0
	c0,0,0,0,0,0c0,0,0,0,0,0c0,0,0,0,0,0c0,0,0,0,0,0c0,0,0.1-0.1,0.1-0.1h0c0.1,0,0.1-0.1,0.2-0.1c0,0,0,0,0,0c-0.1,0-0.2,0.1-0.3,0.1
	c0,0,0,0,0,0c0,0,0,0,0,0c0,0,0,0,0,0c0,0,0.1,0,0.1-0.1c0,0,0,0,0,0c0.5-0.4,1.2-0.3,1.8-0.5c0,0,0.1-0.1,0.1-0.1
	c0.1,0,0.1-0.1,0.2-0.2c0.1-0.1,0.2-0.2,0.3-0.4c0,0,0,0,0,0c-0.2,0.2-0.5,0.4-0.7,0.5C20.2,18,19.8,18,19.4,18c0,0,0,0,0.1,0
	c0,0,0-0.1,0.1-0.1h0c0,0,0,0,0,0c0,0,0.1,0,0.1,0c0-0.1-0.1,0-0.2,0c0,0,0-0.1,0-0.1h0.1c0,0,0-0.1,0-0.1c0.2-0.1,0.5-0.3,0.7-0.4
	c0,0-0.1,0-0.1,0c0,0,0,0,0,0c0.2,0,0.3-0.1,0.5-0.2c-0.1,0-0.1,0-0.2,0c0,0,0,0,0.1,0v0c0,0,0,0,0,0c0,0,0,0,0,0c0,0,0.1,0,0.1,0
	c0,0,0,0,0,0c0-0.1,0.1-0.1,0.2-0.1c0,0-0.1,0-0.1,0c0,0,0,0,0,0h0c0,0,0,0,0-0.1c0.1-0.1,0.1-0.3,0.1-0.4c0,0,0,0,0,0
	c-0.2,0.2-0.4,0.2-0.7,0.3h-0.1c-0.1,0-0.2,0-0.3,0c-0.1,0-0.1-0.1-0.2-0.1c-0.1-0.1-0.3-0.1-0.4-0.2C19,16.1,18.5,16,18.1,16
	c0.2-0.1,0.4-0.1,0.6-0.2c0.3-0.1,0.5-0.2,0.8-0.2c0,0-0.1,0-0.2,0c-0.2,0-0.5,0-0.7,0.1c-0.2,0-0.3,0.1-0.5,0.1
	c-0.1,0-0.1,0.1-0.3,0.1v0c0.2-0.2,0.4-0.4,0.6-0.4c0.3,0,0.6,0,0.9,0c0.2,0,0.4,0.1,0.6,0.1c0.1,0,0.1,0.1,0.2,0.1
	c0.1,0,0.2,0,0.3,0.1c0,0,0-0.1,0-0.1c0.1-0.1,0.1,0,0.2,0c0.1-0.1-0.1-0.2-0.2-0.3c0,0,0,0,0,0c0.1,0.1,0.2,0.2,0.4,0.3
	c0.1,0,0.3,0.1,0.2,0c-0.1-0.2-0.2-0.3-0.4-0.5v-0.1c0,0,0,0,0,0v-0.1c-0.1,0,0-0.1-0.1-0.1c0-0.1,0-0.2,0-0.3c0-0.1,0-0.2-0.1-0.3
	c0-0.3-0.1-0.5-0.1-0.8c0-0.3,0.2-0.6,0.3-0.8c0.1-0.2,0.2-0.4,0.5-0.5c0-0.2,0.2-0.4,0.3-0.5c0.1-0.2,0.3-0.3,0.5-0.3
	c0.2-0.1,0.4-0.2,0.4-0.2H11.2v8.7h7.9c0.3-0.2,0.6-0.3,1.1-0.5C20.4,19.2,20.9,19,21.1,18.9 M18.5,17.7
	C18.5,17.7,18.4,17.7,18.5,17.7c-0.1-0.1,0-0.1,0.1-0.1c0,0,0.1,0,0.1,0c0,0,0.1,0,0.1,0.1C18.8,17.7,18.7,17.6,18.5,17.7 M16,17.3
	C16,17.3,16,17.3,16,17.3c0.2-0.3,0.4-0.6,0.5-0.9c0.2-0.1,0.4-0.3,0.6-0.5c0.3-0.3,0.6-0.6,0.9-0.7c0.1,0,0.3,0,0.4,0
	c0,0.1-0.1,0-0.2,0.1c0,0,0,0,0,0c0,0,0,0,0,0c-0.2,0.2-0.4,0.3-0.5,0.5c-0.1,0.2-0.2,0.4-0.4,0.4c-0.1,0,0,0,0,0
	C16.8,16.5,16.4,16.9,16,17.3 M17.4,16.2C17.4,16.3,17.4,16.3,17.4,16.2c-0.1,0.1-0.1,0.1-0.1,0.1c0,0,0,0,0,0
	C17.3,16.3,17.3,16.2,17.4,16.2C17.4,16.2,17.4,16.2,17.4,16.2 M18.2,18.7C18.2,18.7,18.1,18.7,18.2,18.7
	C18.1,18.7,18.2,18.8,18.2,18.7c-0.1,0.1-0.1,0.1-0.1,0.2c0,0,0,0,0,0c0,0,0,0-0.1,0.1c0,0-0.1,0-0.1,0c0,0,0.1-0.1,0.1-0.1
	c0,0,0,0,0.1-0.1C18,18.7,18.1,18.7,18.2,18.7C18.1,18.7,18.2,18.7,18.2,18.7 M17.9,18.6C17.9,18.6,17.9,18.6,17.9,18.6
	c-0.1,0-0.1,0.1-0.2,0.1c-0.1,0-0.1,0.1-0.2,0.1c0,0,0,0,0,0c0,0,0,0,0,0c-0.1,0-0.1,0.1-0.2,0.1c0,0,0,0,0,0c0,0,0,0,0,0
	c0,0,0,0,0,0c0,0,0,0,0,0c0,0,0,0,0,0c0,0,0,0,0,0c0,0,0,0,0,0c0,0,0,0,0,0c0,0,0,0,0,0c0,0,0,0,0,0c0,0,0,0,0,0c0,0,0,0,0,0
	c0,0,0,0,0,0c0,0,0,0,0,0c0,0,0,0-0.1,0c0,0-0.1,0.1-0.1,0.1c0,0,0,0,0,0c0,0,0,0,0,0c0,0,0,0,0,0c0,0,0,0,0,0c0,0,0,0,0,0
	c0,0,0,0,0,0l0,0c0,0,0,0,0,0c0,0,0,0,0,0c0,0,0,0,0,0c0,0,0,0,0,0l0,0c0,0,0,0,0,0c0,0,0,0,0.1-0.1c0,0,0,0,0,0c0,0,0,0,0,0
	c0,0,0,0,0,0c0,0,0,0,0,0c0,0,0,0,0.1-0.1c0,0,0,0,0,0c0,0,0,0,0,0c0,0,0,0,0,0c0,0,0,0,0,0c0,0,0,0,0,0c0,0,0,0,0,0c0,0,0,0,0,0
	c0,0,0,0,0,0c0,0,0,0,0,0c0,0,0,0,0,0c0,0,0,0,0,0c0,0,0,0,0,0c0,0,0,0,0,0c0,0,0,0,0,0c0,0,0-0.1,0.1-0.1c0,0,0,0,0,0
	c0,0,0,0-0.1,0.1c0,0-0.1,0,0,0c0,0,0,0,0,0c0,0,0,0,0,0c0,0,0.1-0.1,0.1-0.1c0,0,0,0,0.1,0c0,0,0,0,0,0c0,0,0,0,0,0c0,0,0,0,0,0
	c0.2-0.2,0.4-0.1,0.6-0.2c0.1,0,0.2,0,0.3,0c0,0,0.1,0,0.1,0C18.1,18.4,18,18.5,17.9,18.6 M18.2,17.4C18.2,17.4,18.2,17.4,18.2,17.4
	L18.2,17.4C18.1,17.4,18.1,17.4,18.2,17.4c-0.2,0-0.3,0-0.3,0c-0.1,0-0.2,0.1-0.3,0.1c-0.2,0.1-0.3,0.2-0.5,0.3c0,0,0,0,0,0
	c0,0,0.1-0.1,0.1-0.1c0,0,0,0,0,0c0.1-0.2,0.3-0.3,0.5-0.4v0c0-0.1,0.1-0.1,0.2-0.2c0,0,0.1-0.1,0.2-0.1c0,0,0,0,0,0
	c-0.1,0-0.1,0-0.2,0c0,0,0.1,0,0.1-0.1c0,0,0,0,0,0c0,0,0-0.1,0.1-0.1c0.1,0,0.1,0,0.2-0.1c-0.1,0-0.2,0-0.4,0
	c0.1-0.2,0.2-0.4,0.4-0.5c0,0,0,0,0,0c0,0.1,0,0.1-0.1,0.2c0.1,0,0.3,0,0.4,0.1c0,0,0,0-0.1,0c0.1,0,0.2,0,0.3,0.1c0,0-0.1,0-0.1,0
	c0.5,0.1,1,0.3,1.5,0.6c-0.4,0.2-0.7,0.3-1.1,0.3c0,0-0.1,0-0.1,0c0,0,0,0,0,0c-0.1,0-0.1,0-0.2,0C18.3,17.5,18.2,17.5,18.2,17.4"/>
<path id="Bleu_2_" class="st2" d="M35,11.2h-9.3c0,0,0,0,0.1,0c0.1,0,0.2,0.1,0.2,0.1c0.1,0.1,0.2,0.1,0.3,0.3c0,0,0.1,0.1,0,0.2
	c0,0.1,0,0.2-0.1,0.2c-0.1,0-0.2,0-0.3,0c-0.1,0-0.1,0-0.2,0c0.2,0.1,0.5,0.2,0.6,0.4c0,0,0.1,0,0.1,0c0,0,0,0,0,0c0,0-0.1,0,0,0.1
	h0c0.1,0,0.1-0.2,0.2-0.1c0.1,0,0.1,0.2,0.1,0.2c-0.1,0.1-0.1,0.1-0.2,0.2c0,0,0,0.1,0,0.1c0,0.1,0.1,0.1,0.1,0.2
	c0,0.1,0.1,0.2,0.1,0.4c0.1,0.2,0.1,0.5,0.1,0.7c0,0.1-0.1,0.2,0,0.4c0,0.1,0.1,0.2,0.2,0.3c0.1,0.1,0.1,0.2,0.2,0.3
	c0.1,0.2,0.3,0.3,0.2,0.5c0,0.1-0.2,0.1-0.3,0.2c-0.1,0.1,0,0.2,0,0.3c0.1,0.1-0.1,0.2-0.2,0.3c0,0,0.1,0,0.1,0.1
	c0,0.1,0.1,0.1,0,0.2c-0.1,0.1-0.3,0.1-0.2,0.3c0.1,0.1,0,0.2,0,0.4c0,0.1-0.2,0.2-0.3,0.2c-0.1,0-0.2,0-0.3,0c0,0-0.1,0-0.1,0
	c-0.3,0-0.6-0.1-0.8-0.1c-0.1,0-0.2,0-0.2,0.1C25,17.8,25,17.9,24.9,18c0,0,0,0,0,0c0,0,0,0,0,0c0,0,0,0,0,0c0,0,0,0,0,0
	c0,0.1-0.1,0.1-0.1,0.2c0,0,0,0,0,0c0,0,0,0,0,0c-0.1,0.1-0.1,0.2-0.1,0.3c-0.1,0.4-0.1,0.7,0,0.8c0,0,0.5,0.2,0.9,0.3
	c0.2,0.1,0.3,0.1,0.4,0.2H35V11.2z"/>
<path id="Yeux_2_" class="st3" d="M26.3,14.4c0.1,0,0.2,0,0.2,0c0,0.1-0.2,0.2-0.3,0.3h0c0,0,0,0.1-0.1,0.1c0,0-0.1,0-0.1,0
	c0.1,0.1,0.1,0.1,0.2,0.1c0,0,0,0,0,0.1c0,0,0,0,0,0c0,0,0,0,0,0v0.1c0,0.1-0.1,0-0.2,0c0.1,0,0.3,0,0.4,0c0.1,0,0-0.2,0.1-0.3
	c0,0,0,0,0,0c0,0,0.1-0.1,0.1-0.1c0,0,0.1,0,0.1,0c0,0-0.1,0,0-0.1c0.1-0.1,0.2-0.2,0.1-0.3c0,0-0.1,0-0.2-0.1c-0.1,0-0.2,0-0.3,0
	c-0.1,0-0.2,0-0.2,0.1c-0.1,0-0.2,0.1-0.3,0.2c0.1,0,0.2-0.1,0.4-0.1C26.1,14.4,26.2,14.4,26.3,14.4"/>
<path d="M11.2,30.5v-6.3h1.6l1.5,2.6l1.5-2.6h1.6v6.3h-1.3V26l-1.4,2.3h-0.9L12.5,26v4.5H11.2z M19.2,30.5v-6.3h1.3v6.3H19.2z
	 M22.3,30.5v-6.3h1.6l2.8,4.5v-4.5H28v6.3h-1.6L23.6,26v4.5H22.3z M29.8,30.5v-6.3h1.3v6.3H29.8z M32.3,29.6l0.9-0.9
	c0.2,0.2,0.4,0.4,0.6,0.6c0.2,0.1,0.5,0.2,0.8,0.2c0.3,0,0.5-0.1,0.6-0.2c0.1-0.1,0.2-0.3,0.2-0.5c0-0.3-0.2-0.5-0.5-0.6
	c-0.3-0.1-0.6-0.3-1-0.5c-0.4-0.2-0.7-0.4-1-0.7c-0.3-0.3-0.5-0.7-0.5-1.2c0-0.2,0-0.5,0.1-0.7c0.1-0.2,0.2-0.4,0.4-0.6
	s0.4-0.3,0.6-0.4c0.2-0.1,0.5-0.1,0.8-0.1c0.5,0,0.9,0.1,1.3,0.3c0.4,0.2,0.7,0.5,1,0.8l-0.9,0.8c-0.2-0.2-0.4-0.4-0.6-0.6
	c-0.2-0.1-0.4-0.2-0.7-0.2c-0.2,0-0.4,0.1-0.5,0.2c-0.1,0.1-0.2,0.3-0.2,0.5c0,0.3,0.1,0.5,0.5,0.6c0.3,0.1,0.6,0.3,1,0.5
	c0.4,0.2,0.7,0.4,1,0.7c0.3,0.3,0.5,0.7,0.5,1.2c0,0.3-0.1,0.6-0.2,0.8c-0.1,0.2-0.3,0.4-0.4,0.6c-0.2,0.2-0.4,0.3-0.7,0.4
	c-0.3,0.1-0.5,0.1-0.8,0.1c-0.5,0-1-0.1-1.4-0.3C32.9,30.2,32.5,30,32.3,29.6z M37.3,25.4v-1.2h5.2v1.2h-1.9v5.1h-1.3v-5.1H37.3z
	 M43.6,30.5v-6.3h3.7v1.1h-2.4v1.5h2v1.1h-2v1.6h2.4v1.1H43.6z M44.9,23.7l-1.2-1.2h1.3l1,1.2H44.9z M48.8,30.5v-6.3h1.9
	c0.7,0,1.2,0.2,1.6,0.5c0.4,0.3,0.6,0.8,0.6,1.4c0,0.4-0.1,0.7-0.3,1c-0.2,0.3-0.4,0.5-0.7,0.6l2,2.8h-1.5L50.7,28h-0.7v2.5H48.8z
	 M50.8,25.3h-0.7v1.6h0.7c0.3,0,0.5-0.1,0.6-0.2c0.2-0.1,0.2-0.3,0.2-0.6c0-0.2-0.1-0.4-0.2-0.6C51.3,25.4,51.1,25.3,50.8,25.3z
	 M54.7,30.5v-6.3h3.7v1.1H56v1.5h2v1.1h-2v1.6h2.4v1.1H54.7z M11.2,40v-6.3h2.5c0.5,0,1,0.1,1.4,0.3c0.4,0.2,0.8,0.4,1.1,0.7
	c0.3,0.3,0.5,0.6,0.7,1c0.2,0.4,0.2,0.8,0.2,1.2c0,0.4-0.1,0.8-0.2,1.2c-0.2,0.4-0.4,0.7-0.7,1c-0.3,0.3-0.6,0.5-1.1,0.7
	c-0.4,0.2-0.9,0.3-1.4,0.3H11.2z M13.7,34.9h-1.2v4h1.2c0.3,0,0.6-0.1,0.8-0.2c0.2-0.1,0.5-0.2,0.6-0.4c0.2-0.2,0.3-0.4,0.4-0.6
	c0.1-0.2,0.2-0.5,0.2-0.8c0-0.3-0.1-0.5-0.2-0.8c-0.1-0.2-0.2-0.5-0.4-0.6c-0.2-0.2-0.4-0.3-0.6-0.4C14.3,34.9,14,34.9,13.7,34.9z
	 M18.3,40v-6.3H22v1.1h-2.4v1.5h2v1.1h-2v1.6H22V40H18.3z M25.8,40v-6.3h1.3v5.1h2.4V40H25.8z M30.3,36.3h-1.1l0.8-2.6h1.3
	L30.3,36.3z M32.3,40v-6.3H36v1.1h-2.4v1.5h2v1.1h-2v1.6H36V40H32.3z M34.7,33.2h-1.2l1-1.2h1.3L34.7,33.2z M37.4,40v-6.3h2.5
	c0.5,0,1,0.1,1.4,0.3c0.4,0.2,0.8,0.4,1.1,0.7c0.3,0.3,0.5,0.6,0.7,1c0.2,0.4,0.2,0.8,0.2,1.2c0,0.4-0.1,0.8-0.2,1.2
	c-0.2,0.4-0.4,0.7-0.7,1c-0.3,0.3-0.6,0.5-1.1,0.7c-0.4,0.2-0.9,0.3-1.4,0.3H37.4z M39.9,34.9h-1.2v4h1.2c0.3,0,0.6-0.1,0.8-0.2
	c0.2-0.1,0.5-0.2,0.6-0.4c0.2-0.2,0.3-0.4,0.4-0.6c0.1-0.2,0.2-0.5,0.2-0.8c0-0.3-0.1-0.5-0.2-0.8c-0.1-0.2-0.2-0.5-0.4-0.6
	c-0.2-0.2-0.4-0.3-0.6-0.4C40.5,34.9,40.2,34.9,39.9,34.9z M48.2,37.7v-3.9h1.3v3.8c0,0.8-0.2,1.5-0.7,1.9c-0.5,0.5-1.1,0.7-1.9,0.7
	c-0.8,0-1.4-0.2-1.9-0.7c-0.5-0.5-0.7-1.1-0.7-1.9v-3.8h1.3v3.9c0,0.4,0.1,0.7,0.3,1c0.2,0.2,0.5,0.4,0.9,0.4c0.4,0,0.7-0.1,0.9-0.4
	C48.1,38.4,48.2,38.1,48.2,37.7z M54,39c0.4,0,0.7-0.1,1-0.2c0.3-0.2,0.5-0.4,0.7-0.6l1,0.8c-0.3,0.4-0.7,0.7-1.1,0.9
	c-0.5,0.2-1,0.4-1.5,0.4c-0.5,0-0.9-0.1-1.4-0.3c-0.4-0.2-0.8-0.4-1.1-0.7c-0.3-0.3-0.5-0.7-0.7-1.1c-0.2-0.4-0.2-0.8-0.2-1.3
	c0-0.5,0.1-0.9,0.2-1.3c0.2-0.4,0.4-0.8,0.7-1.1c0.3-0.3,0.6-0.5,1.1-0.7c0.4-0.2,0.9-0.3,1.4-0.3c0.6,0,1.1,0.1,1.5,0.4
	c0.5,0.2,0.8,0.5,1.1,0.9l-1,0.8c-0.2-0.3-0.4-0.5-0.7-0.6c-0.3-0.2-0.6-0.2-1-0.2c-0.3,0-0.6,0.1-0.8,0.2c-0.3,0.1-0.5,0.3-0.6,0.5
	c-0.2,0.2-0.3,0.4-0.4,0.7c-0.1,0.3-0.2,0.5-0.2,0.8s0.1,0.6,0.2,0.8c0.1,0.3,0.2,0.5,0.4,0.7c0.2,0.2,0.4,0.3,0.6,0.5
	C53.4,39,53.7,39,54,39z M56.9,40l2.4-6.3H61l2.4,6.3H62l-0.6-1.6h-2.5L58.3,40H56.9z M59.3,37.3H61l-0.9-2.4L59.3,37.3z M63,34.9
	v-1.2h5.2v1.2h-1.9V40H65v-5.1H63z M69.3,40v-6.3h1.3V40H69.3z M75.2,33.5c0.5,0,0.9,0.1,1.4,0.3c0.4,0.2,0.8,0.4,1.1,0.7
	c0.3,0.3,0.5,0.7,0.7,1.1c0.2,0.4,0.2,0.8,0.2,1.3c0,0.5-0.1,0.9-0.2,1.3c-0.2,0.4-0.4,0.8-0.7,1.1c-0.3,0.3-0.6,0.5-1.1,0.7
	c-0.4,0.2-0.9,0.3-1.4,0.3c-0.5,0-0.9-0.1-1.4-0.3c-0.4-0.2-0.8-0.4-1.1-0.7c-0.3-0.3-0.5-0.7-0.7-1.1c-0.2-0.4-0.2-0.8-0.2-1.3
	c0-0.5,0.1-0.9,0.2-1.3c0.2-0.4,0.4-0.8,0.7-1.1s0.6-0.5,1.1-0.7C74.3,33.6,74.7,33.5,75.2,33.5z M75.2,39c0.3,0,0.6-0.1,0.8-0.2
	c0.2-0.1,0.5-0.3,0.6-0.5c0.2-0.2,0.3-0.4,0.4-0.7c0.1-0.3,0.2-0.5,0.2-0.8s-0.1-0.6-0.2-0.8c-0.1-0.3-0.2-0.5-0.4-0.7
	c-0.2-0.2-0.4-0.3-0.6-0.5c-0.2-0.1-0.5-0.2-0.8-0.2s-0.6,0.1-0.8,0.2c-0.3,0.1-0.5,0.3-0.6,0.5c-0.2,0.2-0.3,0.4-0.4,0.7
	c-0.1,0.3-0.2,0.5-0.2,0.8s0.1,0.6,0.2,0.8c0.1,0.3,0.2,0.5,0.4,0.7c0.2,0.2,0.4,0.3,0.6,0.5C74.6,39,74.9,39,75.2,39z M79.8,40
	v-6.3h1.6l2.8,4.5v-4.5h1.3V40h-1.6L81,35.5V40H79.8z M11.2,49.6v-6.3h1.6l2.8,4.5v-4.5H17v6.3h-1.6L12.5,45v4.5H11.2z M17.9,49.6
	l2.4-6.3H22l2.4,6.3H23l-0.6-1.6h-2.5l-0.6,1.6H17.9z M20.3,46.8H22l-0.9-2.4L20.3,46.8z M24.1,44.4v-1.2h5.2v1.2h-1.9v5.1H26v-5.1
	H24.1z M30.4,49.6v-6.3h1.3v6.3H30.4z M36.2,43.1c0.5,0,0.9,0.1,1.4,0.3c0.4,0.2,0.8,0.4,1.1,0.7c0.3,0.3,0.5,0.7,0.7,1.1
	c0.2,0.4,0.2,0.8,0.2,1.3c0,0.5-0.1,0.9-0.2,1.3c-0.2,0.4-0.4,0.8-0.7,1.1c-0.3,0.3-0.6,0.5-1.1,0.7c-0.4,0.2-0.9,0.3-1.4,0.3
	c-0.5,0-0.9-0.1-1.4-0.3c-0.4-0.2-0.8-0.4-1.1-0.7c-0.3-0.3-0.5-0.7-0.7-1.1c-0.2-0.4-0.2-0.8-0.2-1.3c0-0.5,0.1-0.9,0.2-1.3
	c0.2-0.4,0.4-0.8,0.7-1.1c0.3-0.3,0.6-0.5,1.1-0.7C35.3,43.2,35.7,43.1,36.2,43.1z M36.2,48.5c0.3,0,0.6-0.1,0.8-0.2
	c0.2-0.1,0.5-0.3,0.6-0.5c0.2-0.2,0.3-0.4,0.4-0.7c0.1-0.3,0.2-0.5,0.2-0.8s-0.1-0.6-0.2-0.8c-0.1-0.3-0.2-0.5-0.4-0.7
	c-0.2-0.2-0.4-0.3-0.6-0.5c-0.2-0.1-0.5-0.2-0.8-0.2c-0.3,0-0.6,0.1-0.8,0.2c-0.3,0.1-0.5,0.3-0.6,0.5c-0.2,0.2-0.3,0.4-0.4,0.7
	c-0.1,0.3-0.2,0.5-0.2,0.8s0.1,0.6,0.2,0.8c0.1,0.3,0.2,0.5,0.4,0.7c0.2,0.2,0.4,0.3,0.6,0.5C35.7,48.5,35.9,48.5,36.2,48.5z
	 M40.8,49.6v-6.3h1.6l2.8,4.5v-4.5h1.3v6.3h-1.6L42.1,45v4.5H40.8z M47.5,49.6l2.4-6.3h1.7l2.4,6.3h-1.4L52,47.9h-2.5l-0.6,1.6H47.5
	z M49.9,46.8h1.7l-0.9-2.4L49.9,46.8z M54.9,49.6v-6.3h1.3v5.1h2.4v1.2H54.9z M59.7,49.6v-6.3h3.7v1.1H61v1.5h2v1.1h-2v1.6h2.4v1.1
	H59.7z M65.3,51h-1.1l0.8-2.7h1.3L65.3,51z M11.2,59.1v-6.3h2.5c0.5,0,1,0.1,1.4,0.3c0.4,0.2,0.8,0.4,1.1,0.7c0.3,0.3,0.5,0.6,0.7,1
	c0.2,0.4,0.2,0.8,0.2,1.2c0,0.4-0.1,0.8-0.2,1.2c-0.2,0.4-0.4,0.7-0.7,1c-0.3,0.3-0.6,0.5-1.1,0.7c-0.4,0.2-0.9,0.3-1.4,0.3H11.2z
	 M13.7,53.9h-1.2v4h1.2c0.3,0,0.6-0.1,0.8-0.2c0.2-0.1,0.5-0.2,0.6-0.4c0.2-0.2,0.3-0.4,0.4-0.6c0.1-0.2,0.2-0.5,0.2-0.8
	c0-0.3-0.1-0.5-0.2-0.8c-0.1-0.2-0.2-0.5-0.4-0.6c-0.2-0.2-0.4-0.3-0.6-0.4C14.3,54,14,53.9,13.7,53.9z M18.3,59.1v-6.3H22v1.1h-2.4
	v1.5h2v1.1h-2V58H22v1.1H18.3z M25.8,59.1v-6.3h1.3v5.1h2.4v1.2H25.8z M30.1,59.1l2.4-6.3h1.7l2.4,6.3h-1.4l-0.6-1.6H32l-0.6,1.6
	H30.1z M32.4,56.4h1.7L33.3,54L32.4,56.4z M41.2,58.6c0,0.7-0.2,1.2-0.5,1.6c-0.3,0.3-0.8,0.5-1.5,0.5c-0.1,0-0.2,0-0.3,0
	c-0.1,0-0.2,0-0.2,0v-1.1c0,0,0.1,0,0.1,0c0.1,0,0.1,0,0.2,0c0.3,0,0.5-0.1,0.6-0.2s0.2-0.4,0.2-0.7v-5.8h1.3V58.6z M43,59.1v-6.3
	h3.7v1.1h-2.4v1.5h2v1.1h-2V58h2.4v1.1H43z M51.8,56.7v-3.9h1.3v3.8c0,0.8-0.2,1.5-0.7,1.9c-0.5,0.5-1.1,0.7-1.9,0.7
	c-0.8,0-1.4-0.2-1.9-0.7S48,57.4,48,56.6v-3.8h1.3v3.9c0,0.4,0.1,0.7,0.3,1c0.2,0.2,0.5,0.4,0.9,0.4c0.4,0,0.7-0.1,0.9-0.4
	C51.7,57.5,51.8,57.1,51.8,56.7z M54.7,59.1v-6.3h1.6l2.8,4.5v-4.5h1.3v6.3h-1.6L56,54.6v4.5H54.7z M62.2,59.1v-6.3h3.7v1.1h-2.4
	v1.5h2v1.1h-2V58h2.4v1.1H62.2z M66.8,58.2l0.9-0.9c0.2,0.2,0.4,0.4,0.6,0.6c0.2,0.1,0.5,0.2,0.8,0.2c0.3,0,0.5-0.1,0.6-0.2
	c0.1-0.1,0.2-0.3,0.2-0.5c0-0.3-0.2-0.5-0.5-0.6c-0.3-0.1-0.6-0.3-1-0.5c-0.4-0.2-0.7-0.4-1-0.7C67.2,55.3,67,55,67,54.4
	c0-0.2,0-0.5,0.1-0.7c0.1-0.2,0.2-0.4,0.4-0.6s0.4-0.3,0.6-0.4c0.2-0.1,0.5-0.1,0.8-0.1c0.5,0,0.9,0.1,1.3,0.3
	c0.4,0.2,0.7,0.5,1,0.8l-0.9,0.8c-0.2-0.2-0.4-0.4-0.6-0.6c-0.2-0.1-0.4-0.2-0.7-0.2c-0.2,0-0.4,0.1-0.5,0.2
	c-0.1,0.1-0.2,0.3-0.2,0.5c0,0.3,0.1,0.5,0.5,0.6c0.3,0.1,0.6,0.3,1,0.5c0.4,0.2,0.7,0.4,1,0.7c0.3,0.3,0.5,0.7,0.5,1.2
	c0,0.3-0.1,0.6-0.2,0.8c-0.1,0.2-0.3,0.4-0.4,0.6c-0.2,0.2-0.4,0.3-0.7,0.4s-0.5,0.1-0.8,0.1c-0.5,0-1-0.1-1.4-0.3
	C67.4,58.8,67.1,58.5,66.8,58.2z M71.9,58.2l0.9-0.9c0.2,0.2,0.4,0.4,0.6,0.6c0.2,0.1,0.5,0.2,0.8,0.2c0.3,0,0.5-0.1,0.6-0.2
	c0.1-0.1,0.2-0.3,0.2-0.5c0-0.3-0.2-0.5-0.5-0.6c-0.3-0.1-0.6-0.3-1-0.5c-0.4-0.2-0.7-0.4-1-0.7c-0.3-0.3-0.5-0.7-0.5-1.2
	c0-0.2,0-0.5,0.1-0.7c0.1-0.2,0.2-0.4,0.4-0.6c0.2-0.2,0.4-0.3,0.6-0.4c0.2-0.1,0.5-0.1,0.8-0.1c0.5,0,0.9,0.1,1.3,0.3
	c0.4,0.2,0.7,0.5,1,0.8l-0.9,0.8c-0.2-0.2-0.4-0.4-0.6-0.6c-0.2-0.1-0.4-0.2-0.7-0.2c-0.2,0-0.4,0.1-0.5,0.2
	c-0.1,0.1-0.2,0.3-0.2,0.5c0,0.3,0.1,0.5,0.5,0.6c0.3,0.1,0.6,0.3,1,0.5c0.4,0.2,0.7,0.4,1,0.7c0.3,0.3,0.5,0.7,0.5,1.2
	c0,0.3-0.1,0.6-0.2,0.8c-0.1,0.2-0.3,0.4-0.4,0.6c-0.2,0.2-0.4,0.3-0.7,0.4s-0.5,0.1-0.8,0.1c-0.5,0-1-0.1-1.4-0.3
	C72.5,58.8,72.2,58.5,71.9,58.2z M77.7,59.1v-6.3h3.7v1.1H79v1.5h2v1.1h-2V58h2.4v1.1H77.7z M11.2,68.6v-6.3h3.7v1.1h-2.4v1.5h2v1.1
	h-2v1.6h2.4v1.1H11.2z M15.9,63.5v-1.2H21v1.2h-1.9v5.1h-1.3v-5.1H15.9z M24.5,68.6v-6.3H27c0.5,0,1,0.1,1.4,0.3
	c0.4,0.2,0.8,0.4,1.1,0.7c0.3,0.3,0.5,0.6,0.7,1c0.2,0.4,0.2,0.8,0.2,1.2c0,0.4-0.1,0.8-0.2,1.2c-0.2,0.4-0.4,0.7-0.7,1
	c-0.3,0.3-0.6,0.5-1.1,0.7c-0.4,0.2-0.9,0.3-1.4,0.3H24.5z M27,63.5h-1.2v4H27c0.3,0,0.6-0.1,0.8-0.2c0.2-0.1,0.5-0.2,0.6-0.4
	c0.2-0.2,0.3-0.4,0.4-0.6C29,66,29,65.7,29,65.5c0-0.3-0.1-0.5-0.2-0.8c-0.1-0.2-0.2-0.5-0.4-0.6c-0.2-0.2-0.4-0.3-0.6-0.4
	C27.6,63.5,27.3,63.5,27,63.5z M31.6,68.6v-6.3h3.7v1.1h-2.4v1.5h2v1.1h-2v1.6h2.4v1.1H31.6z M36.2,67.7l0.9-0.9
	c0.2,0.2,0.4,0.4,0.6,0.6c0.2,0.1,0.5,0.2,0.8,0.2c0.3,0,0.5-0.1,0.6-0.2c0.1-0.1,0.2-0.3,0.2-0.5c0-0.3-0.2-0.5-0.5-0.6
	c-0.3-0.1-0.6-0.3-1-0.5c-0.4-0.2-0.7-0.4-1-0.7s-0.5-0.7-0.5-1.2c0-0.2,0-0.5,0.1-0.7c0.1-0.2,0.2-0.4,0.4-0.6
	c0.2-0.2,0.4-0.3,0.6-0.4c0.2-0.1,0.5-0.1,0.8-0.1c0.5,0,0.9,0.1,1.3,0.3c0.4,0.2,0.7,0.5,1,0.8L39.7,64c-0.2-0.2-0.4-0.4-0.6-0.6
	c-0.2-0.1-0.4-0.2-0.7-0.2c-0.2,0-0.4,0.1-0.5,0.2c-0.1,0.1-0.2,0.3-0.2,0.5c0,0.3,0.1,0.5,0.5,0.6c0.3,0.1,0.6,0.3,1,0.5
	c0.4,0.2,0.7,0.4,1,0.7c0.3,0.3,0.5,0.7,0.5,1.2c0,0.3-0.1,0.6-0.2,0.8c-0.1,0.2-0.3,0.4-0.4,0.6c-0.2,0.2-0.4,0.3-0.7,0.4
	c-0.3,0.1-0.5,0.1-0.8,0.1c-0.5,0-1-0.1-1.4-0.3C36.8,68.3,36.4,68.1,36.2,67.7z M43.7,67.7l0.9-0.9c0.2,0.2,0.4,0.4,0.6,0.6
	c0.2,0.1,0.5,0.2,0.8,0.2c0.3,0,0.5-0.1,0.6-0.2c0.1-0.1,0.2-0.3,0.2-0.5c0-0.3-0.2-0.5-0.5-0.6c-0.3-0.1-0.6-0.3-1-0.5
	c-0.4-0.2-0.7-0.4-1-0.7S44,64.5,44,64c0-0.2,0-0.5,0.1-0.7c0.1-0.2,0.2-0.4,0.4-0.6c0.2-0.2,0.4-0.3,0.6-0.4
	c0.2-0.1,0.5-0.1,0.8-0.1c0.5,0,0.9,0.1,1.3,0.3c0.4,0.2,0.7,0.5,1,0.8L47.2,64c-0.2-0.2-0.4-0.4-0.6-0.6c-0.2-0.1-0.4-0.2-0.7-0.2
	c-0.2,0-0.4,0.1-0.5,0.2c-0.1,0.1-0.2,0.3-0.2,0.5c0,0.3,0.1,0.5,0.5,0.6c0.3,0.1,0.6,0.3,1,0.5c0.4,0.2,0.7,0.4,1,0.7
	c0.3,0.3,0.5,0.7,0.5,1.2c0,0.3-0.1,0.6-0.2,0.8c-0.1,0.2-0.3,0.4-0.4,0.6c-0.2,0.2-0.4,0.3-0.7,0.4c-0.3,0.1-0.5,0.1-0.8,0.1
	c-0.5,0-1-0.1-1.4-0.3C44.3,68.3,44,68.1,43.7,67.7z M49.5,68.6v-6.3h2.1c0.7,0,1.2,0.2,1.6,0.5s0.6,0.8,0.6,1.4
	c0,0.6-0.2,1-0.6,1.4c-0.4,0.3-0.9,0.5-1.6,0.5h-0.8v2.5H49.5z M51.6,63.4h-0.9V65h0.9c0.3,0,0.5-0.1,0.6-0.2
	c0.2-0.1,0.2-0.3,0.2-0.6c0-0.2-0.1-0.4-0.2-0.6C52.1,63.5,51.9,63.4,51.6,63.4z M57.8,62.1c0.5,0,0.9,0.1,1.4,0.3
	c0.4,0.2,0.8,0.4,1.1,0.7c0.3,0.3,0.5,0.7,0.7,1.1c0.2,0.4,0.2,0.8,0.2,1.3c0,0.5-0.1,0.9-0.2,1.3c-0.2,0.4-0.4,0.8-0.7,1.1
	c-0.3,0.3-0.6,0.5-1.1,0.7c-0.4,0.2-0.9,0.3-1.4,0.3s-0.9-0.1-1.4-0.3c-0.4-0.2-0.8-0.4-1.1-0.7c-0.3-0.3-0.5-0.7-0.7-1.1
	c-0.2-0.4-0.2-0.8-0.2-1.3c0-0.5,0.1-0.9,0.2-1.3c0.2-0.4,0.4-0.8,0.7-1.1c0.3-0.3,0.6-0.5,1.1-0.7C56.9,62.2,57.3,62.1,57.8,62.1z
	 M57.8,67.6c0.3,0,0.6-0.1,0.8-0.2c0.2-0.1,0.5-0.3,0.6-0.5c0.2-0.2,0.3-0.4,0.4-0.7c0.1-0.3,0.2-0.5,0.2-0.8c0-0.3-0.1-0.6-0.2-0.8
	c-0.1-0.3-0.2-0.5-0.4-0.7c-0.2-0.2-0.4-0.3-0.6-0.5c-0.2-0.1-0.5-0.2-0.8-0.2c-0.3,0-0.6,0.1-0.8,0.2c-0.3,0.1-0.5,0.3-0.6,0.5
	c-0.2,0.2-0.3,0.4-0.4,0.7c-0.1,0.3-0.2,0.5-0.2,0.8c0,0.3,0.1,0.6,0.2,0.8c0.1,0.3,0.2,0.5,0.4,0.7c0.2,0.2,0.4,0.3,0.6,0.5
	C57.2,67.5,57.5,67.6,57.8,67.6z M62.4,68.6v-6.3h1.9c0.7,0,1.2,0.2,1.6,0.5c0.4,0.3,0.6,0.8,0.6,1.4c0,0.4-0.1,0.7-0.3,1
	c-0.2,0.3-0.4,0.5-0.7,0.6l2,2.8H66l-1.7-2.5h-0.7v2.5H62.4z M64.4,63.4h-0.7V65h0.7c0.3,0,0.5-0.1,0.6-0.2c0.1-0.1,0.2-0.3,0.2-0.6
	c0-0.2-0.1-0.4-0.2-0.6C64.8,63.5,64.6,63.4,64.4,63.4z M67.4,63.5v-1.2h5.2v1.2h-1.9v5.1h-1.3v-5.1H67.4z M73,67.7l0.9-0.9
	c0.2,0.2,0.4,0.4,0.6,0.6c0.2,0.1,0.5,0.2,0.8,0.2c0.3,0,0.5-0.1,0.6-0.2c0.1-0.1,0.2-0.3,0.2-0.5c0-0.3-0.2-0.5-0.5-0.6
	c-0.3-0.1-0.6-0.3-1-0.5c-0.4-0.2-0.7-0.4-1-0.7c-0.3-0.3-0.5-0.7-0.5-1.2c0-0.2,0-0.5,0.1-0.7c0.1-0.2,0.2-0.4,0.4-0.6
	c0.2-0.2,0.4-0.3,0.6-0.4c0.2-0.1,0.5-0.1,0.8-0.1c0.5,0,0.9,0.1,1.3,0.3c0.4,0.2,0.7,0.5,1,0.8L76.5,64c-0.2-0.2-0.4-0.4-0.6-0.6
	c-0.2-0.1-0.4-0.2-0.7-0.2c-0.2,0-0.4,0.1-0.5,0.2c-0.1,0.1-0.2,0.3-0.2,0.5c0,0.3,0.1,0.5,0.5,0.6c0.3,0.1,0.6,0.3,1,0.5
	c0.4,0.2,0.7,0.4,1,0.7c0.3,0.3,0.5,0.7,0.5,1.2c0,0.3-0.1,0.6-0.2,0.8c-0.1,0.2-0.3,0.4-0.4,0.6c-0.2,0.2-0.4,0.3-0.7,0.4
	c-0.3,0.1-0.5,0.1-0.8,0.1c-0.5,0-1-0.1-1.4-0.3C73.6,68.3,73.2,68.1,73,67.7z"/>
</svg>
