<?xml version="1.0" standalone="no"?>
<!DOCTYPE svg PUBLIC "-//W3C//DTD SVG 20010904//EN"
 "http://www.w3.org/TR/2001/REC-SVG-20010904/DTD/svg10.dtd">
<svg version="1.0" xmlns="http://www.w3.org/2000/svg"
 width="1500.000000pt" height="1382.000000pt" viewBox="0 0 1500.000000 1382.000000"
 preserveAspectRatio="xMidYMid meet">

<g transform="translate(0.000000,1382.000000) scale(0.100000,-0.100000)"
fill="#000000" stroke="none">
<path d="M8180 13653 l0 -128 -1176 -652 -1176 -653 -1674 0 -1673 0 -1221
220 c-671 121 -1227 220 -1235 220 -13 0 -15 -701 -15 -6117 0 -4089 4 -6133
11 -6162 39 -171 194 -319 368 -351 75 -14 14178 -14 14252 0 134 25 272 130
329 252 l30 63 0 6366 0 6365 -622 144 c-343 79 -632 144 -642 144 -15 1 -28
-22 -64 -106 -24 -60 -50 -108 -57 -108 -7 0 -163 59 -347 131 l-333 131 -575
7 -575 7 -115 47 -114 47 -266 0 -266 0 -316 -215 c-175 -118 -324 -215 -333
-215 -8 0 -495 152 -1083 339 -587 186 -1077 342 -1089 346 l-23 6 0 -128z
m4456 -1845 l69 -198 85 -1 c47 -1 148 -4 225 -8 l140 -6 -165 -125 c-90 -69
-171 -130 -178 -136 -12 -9 -4 -45 47 -213 34 -111 61 -207 59 -212 -2 -6 -84
46 -183 115 l-179 125 -81 -57 c-44 -31 -124 -87 -178 -125 -54 -38 -101 -67
-104 -64 -2 3 23 95 56 205 34 110 61 204 61 210 0 5 -79 70 -176 143 l-177
134 144 6 c79 4 181 7 225 8 l82 1 73 211 c43 124 75 205 79 197 4 -7 39 -102
76 -210z m-9758 -1953 c211 -40 350 -114 508 -270 61 -60 116 -120 122 -131
10 -19 1 -31 -96 -121 -59 -54 -113 -103 -120 -107 -9 -5 -33 14 -74 58 -118
129 -268 219 -418 252 -101 22 -303 22 -394 0 -274 -65 -431 -278 -493 -668
-27 -174 -25 -649 5 -808 52 -280 144 -449 304 -556 123 -82 248 -114 443
-114 228 0 393 59 523 185 l72 71 0 277 0 277 -264 0 c-146 0 -267 3 -269 8
-3 4 -8 76 -12 160 l-8 152 447 0 446 0 0 -489 0 -488 -49 -64 c-135 -177
-303 -297 -506 -362 -145 -47 -418 -61 -591 -32 -519 89 -847 479 -929 1102
-17 132 -20 420 -5 543 34 273 114 511 232 690 58 89 198 232 279 286 123 81
289 142 444 163 93 13 300 6 403 -14z m2452 -64 c47 -12 127 -42 179 -67 77
-38 108 -60 175 -127 91 -92 136 -161 172 -267 37 -107 54 -209 54 -331 0
-184 -44 -338 -136 -482 -55 -85 -180 -210 -252 -252 -28 -16 -52 -34 -52 -38
0 -4 122 -248 270 -541 149 -293 270 -538 270 -544 0 -9 -53 -12 -195 -12
-191 0 -195 0 -209 23 -8 12 -119 239 -247 505 l-233 482 -201 0 c-110 0 -237
3 -282 7 l-83 6 -2 -509 -3 -509 -167 -3 -168 -2 0 1339 0 1340 133 4 c72 2
303 3 512 2 358 -1 385 -3 465 -24z m7192 10 c332 -57 585 -207 771 -456 293
-393 339 -1089 104 -1560 -190 -380 -529 -603 -997 -656 -102 -12 -812 -5
-832 7 -4 3 -8 605 -8 1339 l0 1334 88 4 c48 1 238 4 424 5 293 2 350 0 450
-17z m-4454 -1324 c282 -733 512 -1336 512 -1340 0 -4 -78 -7 -174 -7 -127 0
-176 3 -183 13 -6 6 -54 131 -108 277 -54 146 -106 289 -117 318 l-20 52 -551
-2 -551 -3 -121 -325 -120 -325 -179 -3 -178 -2 4 22 c3 13 228 604 501 1313
273 710 500 1302 506 1318 l11 27 128 0 128 0 512 -1333z m1819 423 c343 -498
644 -939 668 -980 l45 -75 0 983 0 982 170 0 170 0 0 -1340 0 -1341 -127 3
-128 3 -643 920 c-354 506 -655 944 -670 973 l-27 54 -5 -974 -5 -973 -170 0
-170 0 -3 1338 -2 1338 137 -3 137 -3 623 -905z m406 -2452 c-31 -46 -85 -121
-118 -168 l-61 -85 -102 -3 c-56 -1 -102 1 -102 5 0 4 25 81 57 171 l57 162
163 0 163 0 -57 -82z m-7878 -382 c98 -28 182 -75 260 -148 65 -61 144 -162
134 -173 -2 -2 -67 -40 -144 -85 -126 -74 -141 -80 -150 -64 -95 166 -366 217
-500 93 -82 -76 -115 -197 -115 -429 0 -221 30 -342 103 -418 42 -44 76 -61
145 -72 143 -24 290 39 374 159 l16 23 141 -79 c78 -43 141 -82 141 -87 0 -19
-94 -138 -147 -186 -66 -59 -188 -122 -283 -147 -87 -22 -271 -22 -365 1 -189
46 -342 169 -429 346 -78 160 -90 220 -90 465 0 243 11 304 88 460 93 188 240
302 451 351 79 18 289 12 370 -10z m6375 -11 c92 -5 209 -34 272 -66 60 -31
124 -102 150 -167 18 -48 22 -76 22 -172 0 -97 -3 -123 -21 -163 -27 -58 -53
-93 -93 -122 l-31 -23 51 -32 c28 -18 68 -52 90 -77 98 -112 124 -334 59 -507
-25 -69 -103 -152 -174 -189 -155 -78 -312 -96 -688 -78 -150 7 -275 15 -279
18 -5 2 -8 357 -8 789 l0 784 38 1 c225 9 455 14 487 12 22 -1 78 -5 125 -8z
m2905 -24 c201 -54 316 -159 360 -326 19 -75 19 -240 0 -323 -26 -110 -94
-218 -171 -274 l-44 -31 150 -293 c83 -161 150 -295 150 -298 0 -3 -91 -6
-202 -6 l-203 0 -119 248 c-66 136 -123 250 -126 254 -3 4 -56 10 -118 14
l-112 7 0 -261 0 -262 -180 0 -180 0 0 785 0 784 88 4 c48 2 209 3 357 2 243
-2 278 -4 350 -24z m-8275 -286 l0 -305 270 0 270 0 0 305 0 305 180 0 180 0
0 -785 0 -785 -180 0 -180 0 0 315 0 315 -270 0 -270 0 0 -315 0 -315 -180 0
-180 0 0 785 0 785 180 0 180 0 0 -305z m2333 -472 c158 -428 287 -781 287
-785 0 -5 -85 -8 -189 -8 l-190 0 -48 145 -47 145 -287 0 -287 0 -48 -142 -49
-143 -193 -3 c-106 -1 -191 1 -189 5 4 6 530 1433 572 1551 3 9 51 12 192 12
l188 0 288 -777z m1057 452 c118 -179 217 -325 220 -325 3 0 102 146 220 325
l215 325 178 0 177 0 0 -785 0 -785 -185 0 -185 0 0 498 -1 497 -29 -55 c-15
-30 -93 -143 -172 -250 l-143 -195 -77 -3 -76 -3 -150 205 c-83 112 -162 226
-176 253 l-25 48 -1 -497 0 -498 -185 0 -185 0 0 778 c0 428 3 782 7 785 3 4
85 7 182 7 l176 0 215 -325z m3814 317 c2 -4 2 -78 -1 -165 l-6 -157 -339 0
-338 0 0 -140 0 -140 275 0 275 0 0 -165 0 -165 -275 0 -275 0 0 -155 0 -155
340 0 340 0 0 -83 c0 -46 3 -118 6 -160 l7 -77 -532 0 -531 0 0 778 c0 428 3
782 7 785 9 10 1041 9 1047 -1z m2098 -257 c76 -143 150 -290 164 -327 15 -37
30 -65 35 -63 4 3 14 26 23 52 9 25 82 172 162 325 l145 278 200 0 c109 0 199
-4 199 -9 0 -5 -124 -230 -275 -501 l-275 -493 0 -284 0 -283 -185 0 -185 0 0
287 0 286 -270 482 c-148 265 -272 490 -276 499 -6 15 11 16 197 14 l203 -3
138 -260z m-4199 -1982 c3 -5 -29 -56 -71 -115 -75 -108 -75 -108 -117 -108
-23 0 -45 3 -48 7 -4 3 7 31 25 62 17 31 44 80 60 109 l29 52 59 0 c32 0 61
-3 63 -7z m-6605 -545 l-3 -543 -62 -3 -63 -3 0 546 0 545 65 0 65 0 -2 -542z
m522 445 c0 -54 -5 -116 -11 -138 -16 -58 -81 -118 -151 -141 -32 -9 -59 -16
-61 -13 -3 2 -7 16 -11 31 -6 24 -2 28 47 51 57 26 87 68 87 121 0 23 -4 26
-35 26 l-35 0 0 80 0 80 85 0 85 0 0 -97z m3080 -448 l0 -545 -65 0 -65 0 0
545 0 545 65 0 65 0 0 -545z m5800 435 c0 -60 -3 -70 -17 -70 -10 0 -42 -3
-70 -6 l-53 -7 0 71 0 71 48 4 c26 2 57 4 70 5 21 2 22 -2 22 -68z m-610 -74
c0 -24 3 -64 6 -89 l7 -46 81 -3 81 -3 0 -55 0 -55 -82 -3 -83 -3 0 -258 c0
-218 2 -261 15 -271 15 -13 103 -10 137 4 14 6 17 -1 20 -50 3 -52 1 -57 -22
-67 -14 -6 -62 -11 -107 -11 -92 -1 -121 13 -158 75 -18 31 -20 55 -23 306
l-3 272 -42 3 -42 3 0 55 0 55 42 3 42 3 3 77 3 76 45 12 c77 21 80 19 80 -30z
m-6462 -32 c23 -7 27 -26 16 -82 -6 -30 -8 -31 -49 -25 -85 11 -111 -31 -71
-117 53 -114 24 -255 -65 -320 -58 -42 -127 -60 -226 -60 -92 0 -123 -10 -123
-41 0 -28 44 -44 187 -69 209 -37 283 -88 291 -200 7 -100 -54 -179 -166 -216
-80 -27 -264 -26 -346 0 -107 35 -170 124 -146 205 15 52 37 71 84 71 50 0 68
-10 56 -30 -6 -8 -10 -33 -10 -56 0 -46 23 -74 79 -93 51 -17 193 -14 241 5
89 36 94 145 7 173 -17 6 -90 22 -161 36 -155 29 -214 56 -239 106 -24 49 -13
93 34 139 l38 36 -29 17 c-71 42 -99 202 -52 293 29 56 91 107 153 127 64 21
170 22 235 2 27 -8 50 -15 50 -15 1 0 9 20 19 45 10 28 27 51 43 60 28 15 109
19 150 9z m886 0 c12 -5 16 -20 16 -59 l0 -52 -56 1 c-50 1 -59 -2 -77 -26
l-20 -27 29 -53 c25 -46 29 -64 29 -128 -1 -87 -22 -138 -80 -188 -56 -50 -99
-64 -210 -69 -55 -2 -110 -6 -121 -8 -44 -9 -37 -57 12 -75 12 -5 74 -18 137
-29 201 -36 272 -77 297 -169 27 -104 -35 -201 -160 -248 -34 -13 -76 -18
-175 -18 -111 0 -138 3 -185 22 -65 26 -91 47 -119 93 -27 43 -27 104 -1 147
18 29 24 32 69 32 28 0 52 -3 55 -8 2 -4 -1 -26 -7 -49 -23 -89 37 -132 183
-133 104 0 153 13 180 47 30 38 27 96 -6 122 -30 24 -53 30 -214 60 -136 26
-194 51 -216 94 -25 48 -13 105 31 145 l36 33 -32 26 c-46 39 -69 96 -69 174
0 206 197 310 446 234 18 -6 22 -2 28 28 6 33 36 69 66 80 21 8 115 8 134 1z
m-2008 -99 c55 -16 103 -55 130 -106 17 -30 20 -69 25 -329 4 -162 8 -304 10
-315 4 -18 -2 -20 -58 -23 -59 -3 -63 -2 -68 21 l-6 24 -57 -31 c-52 -28 -65
-31 -148 -31 -81 0 -97 3 -149 30 -79 40 -117 100 -123 191 -2 35 -1 80 2 99
9 46 60 103 112 126 52 23 199 49 280 49 l64 0 0 60 c0 111 -30 135 -158 128
-60 -3 -94 -12 -144 -35 l-66 -31 -25 47 -26 46 35 23 c97 63 263 89 370 57z
m3169 -14 c131 -58 205 -194 205 -376 0 -182 -74 -317 -205 -377 -42 -19 -67
-23 -150 -23 -87 0 -107 3 -156 26 -141 66 -207 204 -196 409 9 188 90 308
236 355 68 22 202 15 266 -14z m888 13 c25 -9 64 -32 85 -53 l38 -37 44 38
c56 50 131 72 219 66 109 -8 178 -56 223 -153 22 -49 23 -58 23 -340 l0 -290
-65 0 -65 0 -5 285 c-5 308 -8 323 -62 363 -39 29 -132 34 -177 10 -19 -10
-44 -31 -55 -46 -20 -27 -21 -45 -26 -320 l-5 -292 -65 0 -65 0 -5 297 c-5
281 -6 298 -26 325 -29 38 -60 53 -116 53 -68 0 -123 -25 -150 -69 -22 -35
-23 -47 -28 -321 l-5 -285 -62 -3 -63 -3 0 386 0 385 50 0 c33 0 50 -4 50 -12
0 -7 4 -19 9 -27 7 -11 14 -9 38 8 68 51 178 65 266 35z m1370 -17 c107 -53
155 -145 164 -319 l6 -98 -253 0 -252 0 7 -42 c15 -95 60 -160 128 -185 50
-18 145 -15 207 8 30 11 63 22 72 25 12 4 22 -6 38 -37 l22 -43 -21 -17 c-37
-30 -133 -61 -204 -67 -259 -19 -424 197 -378 498 22 145 105 262 210 295 74
24 184 16 254 -18z m860 10 l37 -16 -21 -58 c-12 -32 -23 -60 -25 -62 -2 -2
-19 4 -38 13 -19 9 -59 16 -91 16 -51 0 -60 -3 -90 -33 -51 -51 -57 -86 -62
-370 l-5 -258 -62 3 -61 3 0 380 0 380 55 0 55 0 3 -42 c2 -24 6 -43 10 -43 4
1 16 15 27 33 31 50 97 79 170 74 33 -2 77 -11 98 -20z m692 -4 c48 -25 89
-67 106 -108 9 -21 15 -121 19 -325 3 -162 8 -302 10 -310 4 -12 -7 -15 -60
-15 -59 0 -65 2 -68 21 -3 22 -4 21 -64 -9 -45 -24 -77 -32 -128 -35 -180 -10
-294 87 -295 253 -1 160 98 227 359 242 l108 6 -4 70 c-3 62 -7 72 -33 94 -27
24 -35 25 -115 21 -69 -3 -98 -10 -152 -35 l-67 -32 -26 47 c-25 44 -25 47 -8
60 25 20 100 53 153 68 69 20 215 13 265 -13z m2008 -11 c136 -67 194 -196
185 -406 -4 -100 -7 -112 -44 -184 -67 -131 -178 -190 -336 -180 -217 14 -343
185 -325 441 8 112 38 195 94 257 75 84 146 111 274 107 74 -3 96 -8 152 -35z
m934 7 c26 -14 62 -44 80 -68 58 -75 64 -115 61 -417 l-3 -269 -65 0 -65 0 -5
285 c-5 263 -7 288 -25 320 -31 53 -76 72 -158 67 -80 -5 -112 -24 -142 -83
-18 -36 -20 -63 -23 -317 l-4 -278 -61 3 -62 3 0 380 0 380 46 3 c43 3 47 1
59 -27 l12 -30 34 25 c51 39 109 54 196 51 57 -3 89 -10 125 -28z m-1729 -371
l-3 -383 -65 0 -65 0 -3 370 c-1 203 0 376 3 382 3 9 27 13 70 13 l65 0 -2
-382z"/>
<path d="M4700 9509 c-74 -3 -136 -7 -137 -8 -2 0 -3 -238 -3 -527 l0 -525
328 3 c311 3 330 4 382 26 125 50 200 138 241 284 20 71 23 106 23 243 0 239
-38 353 -142 426 -117 82 -276 100 -692 78z"/>
<path d="M11900 8469 l0 -1032 243 6 c331 7 461 32 632 120 186 97 300 268
360 537 26 117 32 520 11 669 -34 232 -97 372 -221 497 -66 67 -96 89 -175
127 -166 81 -324 107 -642 107 l-208 0 0 -1031z"/>
<path d="M7376 9152 c-27 -81 -122 -347 -213 -591 -90 -244 -162 -446 -160
-448 2 -2 195 -2 429 -1 l425 3 -168 450 c-93 248 -187 511 -210 585 -23 74
-45 138 -48 142 -4 4 -28 -59 -55 -140z"/>
<path d="M8497 5734 c-4 -4 -7 -72 -7 -151 l0 -143 149 0 c168 0 205 9 227 53
21 40 29 136 15 178 -19 58 -38 64 -216 67 -88 2 -163 0 -168 -4z"/>
<path d="M8490 4961 l0 -171 24 -6 c14 -3 94 -4 178 -2 171 3 204 14 233 74
19 41 20 154 1 199 -27 63 -48 70 -253 73 l-183 4 0 -171z"/>
<path d="M11293 5733 l-33 -4 0 -209 0 -208 67 -8 c36 -3 104 -4 150 0 166 12
208 63 201 237 -4 113 -18 141 -84 174 -31 15 -63 19 -154 21 -63 1 -130 0
-147 -3z"/>
<path d="M5190 5358 c-47 -143 -86 -266 -88 -274 -3 -12 28 -14 178 -14 142 0
181 3 177 13 -2 6 -42 127 -87 267 -46 140 -86 258 -89 262 -3 4 -44 -110 -91
-254z"/>
<path d="M3773 3375 c-43 -18 -63 -61 -63 -135 0 -112 42 -150 166 -150 122 0
159 36 159 154 0 82 -18 118 -67 135 -43 15 -157 13 -195 -4z"/>
<path d="M4653 3374 c-84 -42 -83 -228 2 -268 42 -20 154 -21 200 -2 45 19 65
61 65 135 0 77 -12 106 -52 131 -42 25 -166 28 -215 4z"/>
<path d="M3017 3079 c-172 -17 -197 -34 -197 -131 0 -111 31 -142 144 -142 43
-1 92 7 124 18 l52 18 0 124 c0 112 -2 124 -17 123 -10 -1 -58 -6 -106 -10z"/>
<path d="M6055 3368 c-88 -31 -120 -105 -120 -273 1 -134 11 -179 57 -231 68
-78 251 -72 316 11 34 42 45 100 45 220 0 166 -25 229 -107 266 -46 21 -142
24 -191 7z"/>
<path d="M8350 3379 c-65 -20 -108 -80 -124 -176 l-5 -33 185 0 186 0 -7 48
c-9 65 -39 124 -73 144 -36 22 -117 30 -162 17z"/>
<path d="M9964 3079 c-171 -16 -200 -36 -198 -135 3 -108 36 -138 154 -138 54
1 88 7 123 22 l47 21 0 120 c0 119 0 121 -22 120 -13 -1 -59 -5 -104 -10z"/>
<path d="M11844 3361 c-79 -36 -106 -104 -106 -266 0 -162 27 -230 106 -266
46 -21 130 -25 188 -9 43 12 90 63 109 117 9 24 14 83 14 158 0 75 -5 134 -14
158 -19 54 -66 105 -109 117 -58 16 -142 12 -188 -9z"/>
</g>
</svg>
