<?xml version="1.0" standalone="no"?>
<!DOCTYPE svg PUBLIC "-//W3C//DTD SVG 20010904//EN"
 "http://www.w3.org/TR/2001/REC-SVG-20010904/DTD/svg10.dtd">
<svg version="1.0" xmlns="http://www.w3.org/2000/svg"
 width="1436.000000pt" height="1376.000000pt" viewBox="0 0 1436.000000 1376.000000"
 preserveAspectRatio="xMidYMid meet">

<g transform="translate(0.000000,1376.000000) scale(0.100000,-0.100000)"
fill="#000000" stroke="none">
<path d="M741 13649 c-246 -38 -457 -219 -538 -464 -23 -69 -26 -97 -26 -205
-1 -112 2 -134 28 -209 76 -223 267 -397 491 -446 113 -26 274 -17 374 20 275
102 450 348 450 635 0 362 -275 653 -639 674 -42 3 -105 0 -140 -5z"/>
<path d="M2560 13649 c-266 -39 -497 -253 -555 -514 -24 -105 -17 -274 14
-365 68 -199 229 -360 431 -432 56 -19 85 -23 210 -23 132 0 151 3 218 27 107
39 177 83 263 168 84 84 145 191 176 310 22 86 21 244 -2 330 -69 263 -292
462 -559 499 -86 12 -116 12 -196 0z"/>
<path d="M4375 13649 c-346 -53 -595 -362 -572 -709 12 -173 74 -309 201 -435
83 -83 154 -128 263 -166 84 -30 256 -37 357 -15 423 95 647 561 457 951 -111
227 -313 362 -568 379 -43 2 -105 0 -138 -5z"/>
<path d="M6195 13651 c-154 -25 -269 -85 -381 -196 -63 -63 -90 -98 -122 -165
-61 -125 -75 -189 -70 -334 7 -194 61 -319 193 -451 131 -130 259 -186 445
-193 136 -5 218 11 325 63 136 66 242 172 310 310 50 101 66 173 66 295 0 125
-16 194 -72 309 -79 160 -251 300 -424 345 -75 19 -205 27 -270 17z m223 -116
c267 -63 456 -315 439 -585 -9 -147 -66 -270 -172 -375 -188 -185 -485 -214
-703 -69 -307 203 -349 622 -88 879 139 136 338 194 524 150z"/>
<path d="M8005 13649 c-330 -51 -574 -333 -575 -667 0 -248 141 -481 361 -597
192 -101 435 -100 632 2 107 55 230 181 284 293 166 339 32 741 -302 905 -121
60 -273 84 -400 64z m230 -114 c201 -51 369 -216 420 -411 19 -73 19 -212 0
-284 -55 -209 -226 -370 -440 -415 -88 -18 -132 -18 -220 0 -211 45 -386 209
-440 411 -21 78 -21 219 0 291 57 197 219 355 415 407 73 19 192 20 265 1z"/>
<path d="M9850 13654 c-84 -14 -141 -29 -185 -47 -196 -82 -349 -259 -401
-467 -22 -85 -22 -236 0 -320 62 -244 259 -439 501 -496 98 -23 276 -15 365
15 146 50 294 168 368 293 61 103 85 189 90 323 5 144 -8 210 -70 335 -78 159
-251 299 -423 344 -63 16 -202 28 -245 20z"/>
<path d="M11632 13649 c-142 -22 -268 -87 -378 -195 -199 -197 -251 -515 -125
-769 113 -227 316 -360 567 -372 195 -10 353 45 489 169 352 323 275 890 -150
1103 -120 60 -271 84 -403 64z"/>
<path d="M13449 13650 c-244 -38 -462 -220 -538 -447 -84 -249 -23 -511 159
-693 84 -84 154 -129 262 -168 67 -24 86 -27 218 -27 125 0 154 4 210 23 201
71 361 231 432 432 19 56 22 85 23 205 0 117 -4 151 -22 210 -32 102 -88 190
-173 275 -83 84 -191 147 -295 174 -78 20 -205 27 -276 16z"/>
<path d="M660 11817 c-217 -66 -383 -226 -455 -438 -26 -75 -29 -97 -28 -209
0 -108 3 -136 26 -205 74 -225 249 -390 477 -450 86 -23 244 -23 330 -1 476
124 668 689 364 1076 -77 99 -170 165 -299 213 -71 27 -95 31 -210 34 -113 3
-140 0 -205 -20z"/>
<path d="M2496 11824 c-237 -57 -435 -258 -492 -499 -22 -95 -15 -274 14 -365
52 -161 186 -316 333 -389 113 -55 193 -74 309 -74 191 0 340 62 476 197 133
134 196 282 197 466 1 124 -15 195 -68 305 -87 180 -241 307 -433 356 -90 23
-248 24 -336 3z"/>
<path d="M4310 11825 c-30 -8 -93 -34 -140 -56 -69 -34 -101 -58 -170 -128
-126 -128 -185 -257 -197 -431 -21 -320 192 -613 507 -696 85 -22 244 -22 330
0 299 76 510 348 510 656 0 286 -175 534 -450 635 -65 24 -93 29 -205 31 -93
3 -146 0 -185 -11z"/>
<path d="M6126 11824 c-229 -55 -421 -243 -485 -474 -26 -92 -28 -256 -6 -345
46 -183 182 -353 345 -433 113 -56 194 -75 310 -75 116 0 197 19 310 75 163
80 297 248 345 433 21 79 21 251 0 330 -62 239 -260 434 -495 489 -81 19 -245
19 -324 0z m279 -99 c299 -63 496 -353 445 -654 -18 -107 -77 -219 -159 -301
-225 -223 -573 -226 -797 -5 -229 226 -229 583 1 810 101 99 251 162 390 164
28 0 82 -6 120 -14z"/>
<path d="M7940 11824 c-78 -20 -206 -86 -267 -136 -151 -126 -243 -323 -243
-520 1 -256 147 -490 375 -602 101 -50 183 -69 300 -69 269 0 495 144 611 388
130 273 54 608 -184 807 -58 48 -187 113 -267 133 -75 19 -251 19 -325 -1z
m330 -112 c103 -36 164 -74 235 -146 77 -77 126 -160 150 -251 19 -75 19 -214
0 -288 -46 -179 -195 -338 -373 -399 -54 -18 -88 -23 -177 -23 -89 0 -123 5
-177 23 -177 61 -320 212 -373 395 -21 72 -21 213 0 291 52 195 230 366 429
412 79 18 214 11 286 -14z"/>
<path d="M9743 11821 c-183 -50 -338 -176 -422 -345 -54 -107 -74 -189 -74
-306 0 -187 65 -344 198 -476 67 -68 98 -90 176 -127 112 -54 183 -71 304 -70
302 1 567 205 646 497 18 69 21 99 16 201 -7 194 -60 318 -192 450 -81 80
-152 125 -257 162 -101 36 -288 43 -395 14z"/>
<path d="M11605 11833 c-323 -72 -545 -342 -545 -663 0 -310 209 -578 510
-656 86 -22 244 -22 330 1 431 113 637 595 422 985 -55 101 -178 217 -282 268
-116 57 -183 72 -310 71 -58 -1 -114 -3 -125 -6z"/>
<path d="M13373 11821 c-189 -51 -343 -180 -428 -356 -55 -116 -69 -177 -69
-300 1 -147 39 -266 123 -388 78 -114 240 -225 381 -262 86 -23 244 -24 330
-2 116 30 226 93 310 177 84 85 129 155 168 262 24 67 27 86 27 218 0 132 -3
151 -27 218 -37 103 -82 175 -158 252 -73 74 -172 137 -270 171 -93 32 -286
37 -387 10z"/>
<path d="M682 10010 c-96 -25 -152 -51 -227 -105 -173 -123 -285 -340 -285
-551 0 -195 110 -417 263 -531 240 -178 543 -188 789 -26 178 117 285 307 296
524 10 207 -50 362 -197 510 -69 69 -103 94 -171 128 -146 71 -318 90 -468 51z"/>
<path d="M2511 10014 c-136 -29 -290 -125 -372 -231 -104 -134 -140 -232 -147
-398 -5 -144 8 -210 69 -333 75 -153 221 -279 390 -337 75 -26 97 -29 209 -28
108 0 136 3 205 26 225 74 390 248 451 477 23 86 23 244 0 330 -94 358 -444
573 -805 494z"/>
<path d="M4315 10011 c-229 -57 -404 -220 -480 -445 -90 -270 11 -588 238
-750 218 -155 466 -177 702 -61 335 163 469 562 302 905 -59 121 -178 240
-299 299 -47 23 -116 48 -154 56 -91 19 -222 18 -309 -4z"/>
<path d="M6141 10015 c-134 -30 -286 -122 -371 -228 -102 -126 -150 -262 -150
-429 0 -128 13 -184 67 -298 80 -166 232 -296 413 -351 106 -33 274 -33 380 0
240 73 422 269 470 506 17 82 14 237 -5 310 -94 351 -448 567 -804 490z m302
-112 c138 -40 283 -156 350 -280 36 -68 67 -191 67 -267 -1 -252 -183 -485
-430 -551 -72 -19 -200 -19 -275 0 -208 53 -377 228 -421 434 -68 322 156 634
491 685 47 7 161 -4 218 -21z"/>
<path d="M7975 10020 c-239 -51 -437 -226 -512 -454 -23 -71 -27 -97 -27 -211
0 -120 2 -137 30 -216 62 -174 178 -306 339 -384 202 -99 399 -99 605 2 132
64 228 160 294 293 60 122 80 214 73 340 -15 280 -192 515 -459 607 -58 20
-97 26 -188 29 -63 2 -133 -1 -155 -6z m227 -104 c216 -39 397 -205 453 -416
20 -74 19 -222 -1 -291 -58 -196 -218 -354 -410 -404 -75 -19 -203 -19 -278 0
-247 65 -426 293 -427 543 -1 162 51 291 159 401 74 74 130 111 219 143 105
37 176 43 285 24z"/>
<path d="M9754 10010 c-303 -79 -506 -340 -506 -649 0 -258 123 -469 347 -596
102 -57 193 -80 325 -80 197 0 334 58 476 199 133 133 194 282 194 471 0 120
-19 206 -65 300 -69 139 -175 242 -320 311 -133 64 -310 81 -451 44z"/>
<path d="M11581 10015 c-220 -48 -423 -239 -494 -463 -18 -54 -22 -92 -21
-197 0 -115 3 -140 27 -212 56 -168 181 -309 342 -389 194 -96 398 -97 590 -4
149 73 250 174 321 325 158 335 2 749 -339 900 -121 53 -292 69 -426 40z"/>
<path d="M13382 10010 c-224 -59 -398 -220 -473 -437 -121 -354 74 -740 436
-860 70 -23 96 -27 205 -27 110 0 134 4 205 28 118 41 181 80 271 171 142 143
201 298 192 508 -4 89 -11 127 -32 185 -67 181 -181 307 -351 388 -134 65
-310 81 -453 44z"/>
<path d="M615 8220 c-205 -32 -364 -165 -422 -355 -17 -56 -18 -109 -18 -745
0 -679 0 -686 22 -755 42 -132 126 -231 248 -291 119 -58 182 -66 495 -62 266
4 277 5 348 30 134 48 235 133 286 242 37 78 45 127 46 262 0 159 6 154 -172
154 -170 0 -165 5 -170 -145 -5 -127 -23 -175 -85 -222 l-36 -28 -248 -3
c-229 -3 -251 -1 -286 16 -43 23 -63 43 -89 92 -18 33 -19 73 -22 690 -2 457
0 666 8 693 13 44 60 101 104 125 27 15 64 17 266 17 225 0 237 -1 277 -23 24
-12 55 -41 70 -63 24 -36 28 -55 35 -167 12 -166 7 -162 179 -162 172 0 169
-2 169 158 0 132 -15 207 -58 286 -58 107 -169 195 -302 238 -58 19 -93 21
-325 24 -143 1 -287 -1 -320 -6z"/>
<path d="M2040 8219 c-13 -6 -28 -15 -32 -22 -4 -7 -8 -494 -8 -1083 0 -984 1
-1073 17 -1085 17 -15 223 -26 268 -15 58 15 55 -18 55 662 l0 624 231 0 c219
0 233 -1 270 -22 21 -12 51 -39 66 -61 l28 -40 5 -565 5 -564 24 -19 c20 -16
40 -19 148 -19 118 0 125 1 148 25 l25 24 0 543 c0 444 -3 554 -15 606 -39
163 -150 286 -320 353 -56 22 -76 24 -335 29 l-275 5 -5 305 c-3 168 -7 306
-8 307 -33 23 -242 32 -292 12z"/>
<path d="M8175 8223 c-47 -12 -45 36 -45 -1098 l0 -1072 21 -19 c20 -18 42
-19 448 -19 423 0 426 0 484 23 190 77 317 239 384 488 23 87 26 119 27 259 0
173 -15 259 -69 381 -62 140 -186 280 -307 347 -114 63 -148 70 -408 76 l-235
6 -5 305 c-3 168 -7 306 -8 307 -28 20 -225 31 -287 16z m753 -949 c143 -71
226 -246 226 -474 0 -173 -34 -279 -128 -404 -74 -98 -66 -96 -328 -96 l-228
0 0 500 0 500 203 0 c198 0 204 -1 255 -26z"/>
<path d="M10393 8220 c-36 -15 -43 -43 -43 -162 0 -124 -1 -127 -72 -205 -42
-47 -47 -72 -20 -96 15 -14 41 -17 146 -17 l128 0 29 31 c16 17 49 58 74 91
l45 60 0 138 c0 116 -3 140 -17 151 -19 17 -236 24 -270 9z"/>
<path d="M3727 7572 c-14 -15 -17 -40 -17 -123 0 -57 4 -109 8 -116 18 -29 70
-33 388 -33 348 0 353 -1 401 -52 38 -41 53 -91 53 -181 l0 -84 -257 -6 c-278
-6 -324 -13 -431 -65 -217 -105 -319 -382 -224 -603 45 -102 138 -194 250
-246 96 -45 176 -52 575 -53 386 0 414 3 431 45 11 28 7 1088 -4 1146 -34 181
-182 329 -372 374 -49 12 -141 15 -424 15 -337 0 -362 -1 -377 -18z m833
-1077 l0 -195 -228 0 c-220 0 -231 1 -273 23 -87 46 -129 170 -86 252 21 40
75 90 112 103 17 6 126 11 253 11 l222 1 0 -195z"/>
<path d="M5180 7570 c-17 -17 -20 -33 -20 -116 0 -52 4 -104 10 -114 16 -29
66 -40 186 -40 l113 0 -17 -42 c-15 -38 -17 -105 -20 -619 -3 -558 -2 -577 17
-600 19 -23 24 -24 151 -24 126 0 133 1 151 24 18 22 19 46 19 565 l0 542 23
44 c12 24 39 58 60 74 l39 31 168 3 c151 3 172 1 207 -16 48 -25 67 -46 92
-102 20 -43 21 -64 21 -586 0 -537 0 -541 21 -560 18 -17 37 -19 150 -19 110
0 131 3 146 18 17 16 18 57 23 575 6 626 1 589 83 656 l39 31 168 3 c189 4
225 -5 273 -70 46 -63 47 -72 47 -638 0 -639 -18 -573 155 -578 124 -4 170 9
180 51 3 12 5 274 3 582 -3 546 -4 561 -25 617 -51 137 -170 251 -311 300 -63
22 -82 23 -307 23 -271 0 -303 -6 -414 -73 l-64 -39 -48 33 c-26 17 -76 42
-111 55 -63 24 -64 24 -625 27 -555 3 -562 3 -583 -18z"/>
<path d="M10173 7575 c-170 -46 -306 -171 -354 -326 -17 -55 -19 -96 -19 -448
0 -420 3 -446 57 -540 59 -101 162 -183 282 -223 62 -21 87 -22 431 -25 286
-3 370 -1 390 10 24 12 25 16 28 127 3 107 1 116 -19 133 -19 15 -52 17 -356
17 -380 0 -387 1 -440 82 -26 39 -28 49 -31 175 l-4 133 269 0 c291 0 358 8
456 54 134 64 207 174 215 323 3 49 -1 109 -8 142 -39 175 -182 318 -367 366
-78 20 -454 20 -530 0z m468 -297 c85 -47 124 -160 80 -231 -39 -63 -59 -67
-335 -67 l-246 0 0 80 c0 114 29 174 105 221 26 16 51 19 194 19 149 0 167 -2
202 -22z"/>
<path d="M11350 7568 c-17 -19 -20 -35 -20 -118 0 -91 2 -98 26 -121 24 -22
34 -24 153 -27 l128 -4 -18 -60 c-18 -55 -19 -100 -19 -616 1 -422 4 -561 13
-573 24 -31 56 -39 156 -39 107 0 142 10 160 44 7 14 12 191 13 556 l3 535 24
49 c14 27 41 61 64 77 l40 29 248 0 c161 0 257 4 272 11 36 16 47 50 47 145 0
77 -2 87 -25 109 l-24 25 -610 0 -610 0 -21 -22z"/>
<path d="M12879 7571 l-24 -19 -3 -364 c-3 -413 2 -454 67 -556 69 -106 201
-196 326 -222 62 -13 493 -9 534 5 l23 8 -4 -179 c-3 -163 -6 -183 -27 -227
-15 -31 -38 -58 -64 -75 l-40 -27 -350 -5 c-330 -5 -349 -6 -363 -24 -10 -14
-14 -50 -14 -122 0 -154 -26 -144 384 -144 370 1 443 9 549 59 132 63 231 190
257 330 6 33 10 343 10 793 l0 739 -25 24 c-23 24 -30 25 -148 25 -181 0 -165
37 -169 -400 -3 -392 -2 -382 -70 -447 -49 -47 -75 -53 -233 -53 -158 0 -184
6 -233 53 -68 65 -67 55 -70 447 -4 436 11 400 -168 400 -105 0 -125 -3 -145
-19z"/>
<path d="M673 5200 c-353 -93 -569 -458 -482 -818 29 -119 124 -272 214 -347
133 -108 264 -157 430 -159 132 -1 190 12 310 69 231 111 374 340 374 600 1
311 -205 579 -505 655 -100 26 -242 26 -341 0z"/>
<path d="M2492 5200 c-242 -65 -431 -256 -486 -490 -22 -93 -20 -240 4 -334
83 -324 402 -541 734 -498 312 40 547 279 587 594 39 310 -158 617 -461 718
-96 32 -279 37 -378 10z"/>
<path d="M4302 5200 c-338 -89 -556 -438 -488 -780 49 -247 220 -439 461 -517
95 -30 263 -37 355 -14 231 58 408 220 486 446 25 71 28 94 29 210 0 144 -16
211 -78 330 -46 87 -183 221 -274 268 -147 76 -334 98 -491 57z"/>
<path d="M6155 5210 c-229 -46 -435 -229 -507 -450 -29 -91 -36 -281 -14 -370
84 -335 408 -558 742 -511 226 32 417 167 513 363 55 112 72 183 73 303 2 380
-297 678 -676 674 -50 -1 -109 -5 -131 -9z m319 -125 c38 -13 92 -39 120 -58
312 -208 355 -623 92 -882 -225 -222 -568 -222 -792 0 -112 112 -173 255 -174
406 0 71 32 196 67 262 41 78 174 206 253 244 137 67 294 77 434 28z"/>
<path d="M7932 5200 c-118 -31 -206 -83 -302 -180 -69 -68 -94 -102 -127 -170
-98 -200 -97 -407 2 -608 80 -161 220 -280 400 -339 68 -22 97 -26 200 -26
103 0 132 4 200 26 138 45 255 127 333 231 160 217 186 478 69 716 -54 111
-176 237 -284 293 -146 76 -334 98 -491 57z m330 -106 c187 -55 343 -216 393
-404 20 -74 19 -222 -1 -291 -46 -156 -159 -292 -299 -359 -93 -44 -159 -60
-253 -60 -251 1 -475 173 -547 422 -19 68 -22 202 -5 273 53 219 240 395 463
435 66 11 180 4 249 -16z"/>
<path d="M9800 5214 c-233 -44 -435 -216 -516 -438 -59 -164 -49 -366 26 -518
58 -116 149 -218 255 -285 210 -133 494 -132 711 3 144 89 258 247 300 414 23
92 15 281 -15 370 -69 201 -225 357 -426 426 -66 22 -100 28 -195 30 -63 1
-126 0 -140 -2z"/>
<path d="M11562 5200 c-140 -37 -263 -118 -357 -235 -201 -250 -190 -623 26
-868 79 -91 223 -177 349 -208 92 -23 260 -16 355 14 137 45 255 127 333 231
214 289 180 673 -82 913 -77 70 -197 134 -296 158 -90 21 -238 18 -328 -5z"/>
<path d="M13415 5210 c-196 -39 -368 -169 -464 -350 -114 -216 -100 -486 36
-686 88 -130 206 -219 358 -270 68 -23 97 -27 195 -27 211 -1 369 67 508 218
72 78 123 173 153 280 28 104 23 285 -10 385 -94 276 -356 462 -645 459 -50
-1 -109 -5 -131 -9z"/>
<path d="M700 3395 c-87 -19 -233 -93 -298 -151 -140 -123 -232 -325 -232
-509 0 -94 27 -204 76 -304 78 -160 213 -276 393 -339 67 -23 91 -26 206 -26
114 0 140 4 211 27 223 74 402 272 450 498 23 107 15 261 -19 357 -71 203
-234 365 -431 428 -102 33 -258 41 -356 19z"/>
<path d="M2515 3394 c-139 -30 -281 -117 -377 -232 -49 -58 -123 -209 -137
-280 -16 -76 -14 -238 4 -307 20 -81 85 -209 135 -270 192 -232 531 -310 798
-185 191 89 327 251 379 450 22 86 22 244 0 330 -91 352 -444 569 -802 494z"/>
<path d="M4335 3396 c-199 -46 -363 -171 -454 -345 -62 -121 -76 -177 -75
-321 0 -110 4 -135 28 -205 71 -206 220 -356 425 -429 79 -28 96 -30 216 -30
114 0 140 4 211 27 200 66 364 230 431 431 24 71 27 96 27 211 0 115 -3 140
-27 211 -67 202 -226 360 -432 429 -98 34 -256 43 -350 21z"/>
<path d="M6145 3394 c-149 -33 -301 -130 -389 -249 -97 -129 -136 -247 -136
-410 0 -168 41 -289 141 -418 187 -243 537 -326 814 -193 144 69 258 181 325
322 83 172 83 406 0 579 -80 168 -224 293 -410 355 -87 29 -249 35 -345 14z
m289 -110 c96 -25 174 -71 257 -154 177 -175 217 -418 107 -649 -41 -86 -158
-206 -245 -250 -168 -84 -364 -84 -528 2 -84 44 -202 164 -243 248 -111 229
-71 471 108 649 80 81 160 130 251 154 73 20 217 20 293 0z"/>
<path d="M7965 3396 c-240 -56 -421 -219 -501 -451 -25 -70 -28 -95 -28 -205
-1 -112 2 -134 28 -214 67 -205 222 -359 431 -432 72 -25 94 -28 210 -28 120
0 137 2 216 30 205 73 353 223 425 429 25 72 28 94 28 210 0 120 -2 137 -30
216 -73 205 -225 356 -429 424 -98 34 -256 43 -350 21z m317 -123 c158 -52
295 -182 354 -337 39 -102 45 -255 14 -358 -30 -99 -72 -171 -145 -243 -111
-112 -242 -166 -400 -166 -158 0 -289 54 -400 166 -112 111 -166 243 -166 400
0 189 84 352 238 462 145 103 336 132 505 76z"/>
<path d="M9775 3393 c-246 -52 -446 -246 -510 -493 -23 -86 -23 -244 0 -330
76 -297 346 -509 648 -510 314 -1 588 213 662 517 26 109 17 282 -20 383 -119
324 -445 505 -780 433z"/>
<path d="M11611 3399 c-135 -26 -272 -100 -363 -195 -222 -233 -251 -586 -70
-851 83 -120 208 -214 346 -260 71 -23 97 -27 211 -27 120 0 137 2 216 30 211
75 370 242 435 459 25 83 25 277 0 360 -89 295 -357 497 -656 494 -41 -1 -95
-5 -119 -10z"/>
<path d="M13405 3394 c-197 -43 -371 -178 -460 -359 -50 -100 -68 -183 -68
-300 0 -117 18 -200 68 -300 163 -332 564 -467 900 -305 136 66 237 166 305
305 53 108 70 179 70 300 0 121 -17 192 -69 300 -83 167 -226 289 -406 345
-93 29 -245 35 -340 14z"/>
<path d="M725 1586 c-251 -49 -444 -219 -520 -458 -138 -437 183 -878 640
-878 263 0 489 140 606 375 98 199 90 446 -21 636 -92 156 -251 276 -421 317
-78 19 -208 23 -284 8z"/>
<path d="M2575 1593 c-214 -30 -419 -174 -512 -360 -58 -115 -77 -207 -71
-346 6 -130 27 -205 89 -310 74 -125 191 -225 329 -281 186 -76 423 -58 598
46 73 43 188 158 231 231 184 312 96 706 -203 909 -130 89 -309 132 -461 111z"/>
<path d="M4355 1586 c-280 -55 -485 -258 -541 -536 -69 -345 151 -693 492
-780 157 -40 341 -19 483 55 342 180 462 608 265 945 -48 82 -151 184 -234
233 -136 79 -318 111 -465 83z"/>
<path d="M6182 1589 c-209 -35 -400 -176 -492 -363 -59 -121 -73 -188 -68
-331 7 -188 61 -317 189 -445 74 -76 172 -137 274 -171 61 -21 88 -24 210 -23
124 0 148 3 212 26 282 101 457 347 455 643 -1 120 -18 191 -73 303 -126 258
-421 408 -707 361z m243 -114 c208 -55 372 -222 421 -433 31 -128 4 -291 -68
-413 -63 -107 -193 -209 -320 -250 -104 -34 -243 -32 -347 4 -217 76 -368 270
-388 497 -23 265 163 523 428 594 72 19 201 20 274 1z"/>
<path d="M8004 1591 c-168 -27 -329 -122 -429 -251 -162 -210 -189 -481 -72
-720 54 -111 176 -237 284 -293 198 -103 438 -103 636 0 108 56 230 182 284
293 117 238 91 499 -69 716 -112 150 -298 247 -495 258 -48 3 -111 1 -139 -3z
m218 -112 c201 -42 381 -215 433 -415 19 -73 19 -212 0 -284 -55 -206 -229
-371 -440 -415 -88 -18 -132 -18 -220 0 -215 45 -394 218 -445 430 -17 71 -14
205 5 273 58 198 224 361 420 408 64 16 179 17 247 3z"/>
<path d="M9815 1589 c-210 -35 -395 -169 -492 -355 -47 -90 -59 -131 -73 -238
-39 -311 158 -616 465 -718 59 -19 91 -23 205 -23 115 0 145 3 205 24 102 34
201 95 275 171 128 131 181 257 188 445 5 143 -9 210 -68 331 -126 257 -423
410 -705 363z"/>
<path d="M11630 1590 c-180 -29 -356 -141 -456 -292 -133 -199 -150 -460 -45
-673 199 -402 729 -503 1058 -201 350 321 271 893 -152 1101 -122 60 -278 85
-405 65z"/>
<path d="M13425 1586 c-350 -67 -591 -397 -545 -743 21 -162 82 -285 196 -398
128 -128 258 -185 437 -193 210 -9 375 54 519 200 119 120 178 259 186 435 9
211 -50 365 -193 508 -161 161 -385 233 -600 191z"/>
</g>
</svg>
