<?xml version="1.0" encoding="utf-8"?>
<!-- Generator: Adobe Illustrator 22.1.0, SVG Export Plug-In . SVG Version: 6.00 Build 0)  -->
<svg version="1.1" id="Calque_1" xmlns="http://www.w3.org/2000/svg" xmlns:xlink="http://www.w3.org/1999/xlink" x="0px" y="0px"
	 viewBox="0 0 147.2 100" style="enable-background:new 0 0 147.2 100;" xml:space="preserve">
<style type="text/css">
	.st0{fill:#FFFFFF;}
	.st1{fill:#000091;}
	.st2{fill:#E1000F;}
	.st3{fill:#9C9B9B;}
</style>
<rect class="st0" width="147.2" height="99.8"/>
<path id="Devise_Républicaine_5_" d="M34.7,87.1c0.2,0,0.4,0.2,0.3,0.6l-1,0.2C34.2,87.4,34.5,87.1,34.7,87.1 M35.3,88.6h-0.2
	c-0.2,0.3-0.5,0.5-0.8,0.5c-0.3,0-0.4-0.2-0.4-0.5c0-0.1,0-0.3,0-0.4l1.5-0.5c0.3-0.7-0.1-1-0.5-1c-0.7,0-1.6,1.2-1.6,2.3
	c0,0.5,0.2,0.7,0.6,0.7C34.5,89.7,34.9,89.3,35.3,88.6 M35,86.4l1.1-1v-0.1h-0.6l-0.7,1.1H35z M31.6,87.1h0.5l-0.8,2.2
	c-0.1,0.2,0,0.4,0.2,0.4c0.5,0,1.2-0.5,1.5-1.1h-0.1c-0.2,0.2-0.6,0.5-0.9,0.6l0.7-2.1h0.8l0.1-0.3h-0.7l0.3-0.8h-0.3l-0.5,0.8
	l-0.6,0.1V87.1z M30.9,87c0.1-0.2-0.1-0.3-0.2-0.3c-0.4,0-1,0.4-1.2,1h0.1c0.1-0.2,0.4-0.4,0.6-0.5l-0.9,2.2
	c-0.1,0.2,0.1,0.3,0.2,0.3c0.4,0,0.9-0.4,1.1-1h-0.1c-0.1,0.2-0.4,0.4-0.6,0.5L30.9,87z M31.1,85.9c0.2,0,0.4-0.2,0.4-0.4
	c0-0.2-0.2-0.4-0.4-0.4c-0.2,0-0.4,0.2-0.4,0.4C30.7,85.7,30.9,85.9,31.1,85.9 M26.2,89.3c-0.1,0.3,0,0.4,0.3,0.4
	c0.2,0,0.2,0,0.3-0.2l0.6-1.6c0.3-0.3,0.8-0.7,1.1-0.7c0.2,0,0.1,0.1,0,0.3l-0.9,1.7c-0.1,0.2,0,0.4,0.2,0.4c0.4,0,1-0.4,1.2-1h-0.1
	c-0.1,0.2-0.4,0.4-0.6,0.5l0.8-1.6c0.1-0.2,0.2-0.4,0.2-0.5c0-0.3-0.1-0.4-0.4-0.4c-0.4,0-0.8,0.4-1.2,1v-0.4c0-0.3-0.1-0.6-0.4-0.6
	c-0.2,0-0.3,0.1-0.5,0.4v0.1c0.3,0,0.4,0.4,0.2,0.9L26.2,89.3z M26.2,87.4c0.1-0.4,0.1-0.7-0.2-0.7c-0.3,0-0.4,0.3-0.7,1v-0.4
	c0-0.3-0.1-0.6-0.4-0.6c-0.3,0-0.6,0.5-0.8,1h0.1c0.2-0.2,0.3-0.3,0.4-0.3c0.1,0,0.2,0.2,0,0.7L24,89.3c-0.1,0.3,0,0.4,0.3,0.4
	c0.2,0,0.2,0,0.3-0.2l0.6-1.6c0.2-0.2,0.3-0.4,0.5-0.6H26.2z M22.8,87.1c0.2,0,0.4,0.2,0.3,0.6l-1,0.2
	C22.3,87.4,22.5,87.1,22.8,87.1 M23.3,88.6h-0.2c-0.2,0.3-0.5,0.5-0.8,0.5c-0.3,0-0.4-0.2-0.4-0.5c0-0.1,0-0.3,0-0.4l1.5-0.5
	c0.3-0.7-0.1-1-0.5-1c-0.7,0-1.6,1.2-1.6,2.3c0,0.5,0.2,0.7,0.6,0.7C22.5,89.7,22.9,89.3,23.3,88.6 M19.6,87.1h0.5l-0.8,2.2
	c-0.1,0.2,0,0.4,0.2,0.4c0.5,0,1.2-0.5,1.5-1.1h-0.1c-0.2,0.2-0.6,0.5-0.9,0.6l0.7-2.1h0.8l0.1-0.3h-0.7l0.3-0.8h-0.3l-0.5,0.8
	l-0.6,0.1V87.1z M16.8,88.8c0-0.7,0.8-1.6,1.2-1.6c0.1,0,0.2,0,0.3,0l-0.4,1.2c-0.3,0.3-0.7,0.7-0.8,0.7
	C16.9,89.1,16.8,89.1,16.8,88.8 M19.2,86.6l-0.2,0l-0.3,0.3h-0.1c-1.3,0-2.4,1.4-2.4,2.5c0,0.3,0.2,0.5,0.5,0.5c0.3,0,0.7-0.5,1-1
	l0,0.2c0,0.5,0.1,0.8,0.4,0.8c0.3,0,0.6-0.5,0.8-1h-0.1c-0.2,0.2-0.3,0.3-0.4,0.3c-0.1,0-0.2-0.2,0-0.7L19.2,86.6z M16.5,87.4
	c0.1-0.4,0.1-0.7-0.2-0.7c-0.3,0-0.4,0.3-0.7,1v-0.4c0-0.3-0.1-0.6-0.4-0.6c-0.3,0-0.6,0.5-0.8,1h0.1c0.2-0.2,0.3-0.3,0.4-0.3
	c0.1,0,0.2,0.2,0,0.7l-0.6,1.3c-0.1,0.3,0,0.4,0.3,0.4c0.2,0,0.2,0,0.3-0.2l0.6-1.6c0.2-0.2,0.3-0.4,0.5-0.6H16.5z M12.2,89.6
	l0.1-0.2c-0.7-0.1-0.8-0.1-0.5-0.9l0.3-0.8h0.8c0.4,0,0.4,0.2,0.3,0.6h0.2l0.5-1.3h-0.2c-0.2,0.3-0.3,0.6-0.7,0.6h-0.8l0.4-1.2
	c0.1-0.4,0.2-0.5,0.7-0.5h0.4c0.5,0,0.6,0.1,0.6,0.7h0.2l0.2-0.9h-3.1l-0.1,0.2c0.6,0.1,0.7,0.2,0.4,0.9l-0.7,1.8
	c-0.3,0.8-0.4,0.8-1.1,0.9L10,89.6H12.2z M27.3,80.1c0.2,0,0.4,0.2,0.3,0.6l-1,0.2C26.8,80.5,27.1,80.1,27.3,80.1 M27.8,81.7h-0.2
	c-0.2,0.3-0.5,0.5-0.8,0.5c-0.3,0-0.4-0.2-0.4-0.5c0-0.1,0-0.3,0-0.4l1.5-0.5c0.3-0.7-0.1-1-0.5-1c-0.7,0-1.6,1.2-1.6,2.3
	c0,0.5,0.2,0.7,0.6,0.7C27,82.8,27.5,82.3,27.8,81.7 M27.5,79.4l1.1-1v-0.1H28l-0.7,1.1H27.5z M24.2,80.1h0.5l-0.8,2.2
	c-0.1,0.2,0,0.4,0.2,0.4c0.5,0,1.2-0.5,1.5-1.1h-0.1c-0.2,0.2-0.6,0.5-0.9,0.6l0.7-2.1H26l0.1-0.3h-0.7l0.3-0.8h-0.3l-0.5,0.8
	l-0.6,0.1V80.1z M23.5,80c0.1-0.2-0.1-0.3-0.2-0.3c-0.4,0-1,0.4-1.2,1h0.1c0.1-0.2,0.4-0.4,0.6-0.5L22,82.4
	c-0.1,0.2,0.1,0.3,0.2,0.3c0.4,0,0.9-0.4,1.1-1h-0.1c-0.1,0.2-0.4,0.4-0.6,0.5L23.5,80z M23.6,78.9c0.2,0,0.4-0.2,0.4-0.4
	c0-0.2-0.2-0.4-0.4-0.4c-0.2,0-0.4,0.2-0.4,0.4C23.3,78.8,23.4,78.9,23.6,78.9 M20.7,82.3l1.6-4.1l0-0.1l-1,0.1v0.1l0.2,0.1
	c0.2,0.1,0.1,0.3,0,0.7l-1.2,3.2c-0.1,0.2,0,0.4,0.2,0.4c0.4,0,0.9-0.4,1.1-1h-0.1C21.2,82,20.9,82.2,20.7,82.3 M17.7,81.9
	c0-0.7,0.8-1.6,1.2-1.6c0.1,0,0.2,0,0.3,0l-0.4,1.2c-0.3,0.3-0.7,0.7-0.8,0.7C17.8,82.2,17.7,82.1,17.7,81.9 M20.1,79.6l-0.2,0
	l-0.3,0.3h-0.1c-1.3,0-2.4,1.4-2.4,2.5c0,0.3,0.2,0.5,0.5,0.5c0.3,0,0.7-0.5,1-1l0,0.2c0,0.5,0.1,0.8,0.4,0.8c0.3,0,0.6-0.5,0.8-1
	h-0.1c-0.2,0.2-0.3,0.3-0.4,0.3c-0.1,0-0.2-0.2,0-0.7L20.1,79.6z M14.4,83.3c0-0.3,0.3-0.5,0.7-0.6c0.1,0.1,0.3,0.1,0.6,0.2
	c0.4,0.1,0.6,0.2,0.6,0.3c0,0.3-0.5,0.5-1.1,0.5C14.6,83.7,14.4,83.6,14.4,83.3 M15.5,81.5c-0.2,0-0.3-0.2-0.3-0.3
	c0-0.5,0.3-1.2,0.7-1.2c0.2,0,0.3,0.2,0.3,0.3C16.2,80.8,16,81.5,15.5,81.5 M16.7,83c0-0.4-0.3-0.5-0.8-0.6
	c-0.4-0.1-0.6-0.2-0.6-0.3c0-0.1,0.1-0.3,0.3-0.4c0.7,0,1.2-0.7,1.2-1.2c0-0.1,0-0.2-0.1-0.3h0.6l0.1-0.3h-1
	c-0.1-0.1-0.3-0.1-0.4-0.1c-0.8,0-1.3,0.7-1.3,1.2c0,0.4,0.3,0.7,0.6,0.7c-0.4,0.2-0.6,0.4-0.6,0.6c0,0.1,0,0.2,0.2,0.3
	c-0.8,0.2-1.2,0.5-1.2,0.9c0,0.4,0.5,0.5,1.1,0.5C15.9,84,16.7,83.5,16.7,83 M12.9,80.6c0.4,0,0.4,0.2,0.3,0.6h0.2l0.5-1.3h-0.2
	c-0.2,0.3-0.3,0.6-0.7,0.6h-0.8l0.4-1.1c0.1-0.4,0.2-0.4,0.7-0.4h0.4c0.5,0,0.6,0.1,0.6,0.7h0.2l0.2-0.9h-3.1l-0.1,0.2
	c0.6,0.1,0.7,0.2,0.4,0.9l-0.7,1.8c-0.3,0.8-0.4,0.8-1.1,0.9L10,82.6h3.4l0.6-1h-0.2c-0.4,0.4-0.9,0.7-1.6,0.7c-0.9,0-0.8,0-0.5-0.9
	l0.3-0.9H12.9z M13.3,78.3l1.1-0.7v-0.1h-0.7l-0.6,0.9H13.3z M26.9,73.2c0.2,0,0.4,0.2,0.3,0.6l-1,0.2
	C26.4,73.5,26.7,73.2,26.9,73.2 M27.4,74.7h-0.2c-0.2,0.3-0.5,0.5-0.8,0.5c-0.3,0-0.4-0.2-0.4-0.5c0-0.1,0-0.3,0-0.4l1.5-0.5
	c0.3-0.7-0.1-1-0.5-1c-0.7,0-1.6,1.2-1.6,2.3c0,0.5,0.2,0.7,0.6,0.7C26.7,75.8,27.1,75.4,27.4,74.7 M27.1,72.5l1.1-1v-0.1h-0.6
	L27,72.5H27.1z M23.9,73.2h0.4l-0.8,2.2c-0.1,0.2,0,0.4,0.2,0.4c0.5,0,1.2-0.5,1.5-1.1h-0.1c-0.2,0.2-0.6,0.5-0.9,0.6l0.7-2.1h0.8
	l0.1-0.3H25l0.3-0.8H25l-0.5,0.8L23.9,73V73.2z M23.5,73.4c0.1-0.4,0.1-0.7-0.2-0.7c-0.3,0-0.4,0.3-0.7,1v-0.4
	c0-0.3-0.1-0.6-0.4-0.6c-0.3,0-0.6,0.5-0.8,1h0.1c0.2-0.2,0.3-0.3,0.4-0.3c0.1,0,0.2,0.2,0,0.7l-0.6,1.3c-0.1,0.3,0,0.4,0.3,0.4
	c0.2,0,0.2,0,0.3-0.2l0.6-1.6c0.2-0.2,0.3-0.4,0.5-0.6H23.5z M20.1,73.2c0.2,0,0.4,0.2,0.3,0.6l-1,0.2
	C19.6,73.5,19.9,73.2,20.1,73.2 M20.7,74.7h-0.2c-0.2,0.3-0.5,0.5-0.8,0.5c-0.3,0-0.4-0.2-0.4-0.5c0-0.1,0-0.3,0-0.4l1.5-0.5
	c0.3-0.7-0.1-1-0.5-1c-0.7,0-1.6,1.2-1.6,2.3c0,0.5,0.2,0.7,0.6,0.7C19.9,75.8,20.3,75.4,20.7,74.7 M16.9,75.3
	c-0.2,0-0.4-0.1-0.4-0.3c0,0,0.1-0.2,0.2-0.4l0.3-0.7c0.3-0.3,0.7-0.7,0.9-0.7c0.1,0,0.2,0.1,0.2,0.3C18,74.2,17.5,75.3,16.9,75.3
	 M18.6,73.4c0-0.5-0.2-0.6-0.5-0.6c-0.4,0-0.8,0.4-1.1,0.9l0.9-2.4l-0.1-0.1l-1,0.1v0.1l0.2,0.1c0.2,0.1,0.1,0.3,0,0.7l-1,2.6
	c-0.1,0.2-0.2,0.4-0.2,0.5c0,0.3,0.4,0.5,0.7,0.5C17.4,75.8,18.6,74.4,18.6,73.4 M15.6,73.1c0.1-0.2-0.1-0.3-0.2-0.3
	c-0.4,0-1,0.4-1.2,1h0.1c0.1-0.2,0.4-0.4,0.6-0.5l-0.9,2.2c-0.1,0.2,0.1,0.3,0.2,0.3c0.4,0,0.9-0.4,1.1-1h-0.1
	c-0.1,0.2-0.4,0.4-0.6,0.5L15.6,73.1z M15.7,72c0.2,0,0.4-0.2,0.4-0.4c0-0.2-0.2-0.4-0.4-0.4c-0.2,0-0.4,0.2-0.4,0.4
	C15.4,71.8,15.5,72,15.7,72 M13.5,71.6h-2l-0.1,0.2c0.6,0.1,0.7,0.2,0.4,0.9l-0.7,1.8c-0.3,0.8-0.4,0.8-1.1,0.9L10,75.7h3.1l0.7-1.2
	h-0.2c-0.4,0.4-0.8,0.9-1.5,0.9c-0.5,0-0.6-0.1-0.3-0.9l0.7-1.8c0.3-0.8,0.4-0.8,1.1-0.9L13.5,71.6z"/>
<path d="M10,32.6v-7.4h1.9l1.8,3l1.8-3h1.9v7.4h-1.5v-5.3l-1.6,2.7h-1.1l-1.6-2.7v5.3H10z M19.4,32.6v-7.4h1.5v7.4H19.4z M23,32.6
	v-7.4h1.9l3.3,5.3v-5.3h1.5v7.4h-1.9l-3.3-5.3v5.3H23z M31.8,32.6v-7.4h1.5v7.4H31.8z M34.7,31.6l1.1-1c0.2,0.3,0.5,0.5,0.8,0.7
	c0.3,0.2,0.6,0.2,0.9,0.2c0.3,0,0.5-0.1,0.7-0.2c0.2-0.2,0.3-0.4,0.3-0.6c0-0.3-0.2-0.6-0.5-0.8c-0.4-0.2-0.7-0.4-1.2-0.6
	c-0.4-0.2-0.8-0.5-1.2-0.8S35,27.8,35,27.1c0-0.3,0.1-0.6,0.2-0.8c0.1-0.3,0.3-0.5,0.5-0.7c0.2-0.2,0.5-0.3,0.7-0.5
	c0.3-0.1,0.6-0.2,1-0.2c0.5,0,1,0.1,1.5,0.3c0.4,0.2,0.8,0.5,1.1,0.9l-1.1,1c-0.2-0.3-0.4-0.5-0.7-0.7c-0.2-0.2-0.5-0.2-0.8-0.2
	c-0.3,0-0.5,0.1-0.6,0.2s-0.2,0.3-0.2,0.5c0,0.3,0.2,0.6,0.5,0.8c0.4,0.2,0.7,0.4,1.2,0.6c0.4,0.2,0.8,0.5,1.2,0.8
	c0.4,0.3,0.5,0.8,0.5,1.4c0,0.3-0.1,0.7-0.2,0.9c-0.1,0.3-0.3,0.5-0.5,0.7c-0.2,0.2-0.5,0.3-0.8,0.4c-0.3,0.1-0.6,0.2-0.9,0.2
	c-0.6,0-1.2-0.1-1.6-0.3C35.4,32.3,35,32,34.7,31.6z M40.6,26.6v-1.4h6.1v1.4h-2.3v6h-1.5v-6H40.6z M48,32.6v-7.4h4.3v1.3h-2.8v1.7
	h2.4v1.3h-2.4v1.8h2.8v1.3H48z M49.5,24.6l-1.4-1.4h1.5l1.2,1.4H49.5z M54,32.6v-7.4h2.3c0.8,0,1.4,0.2,1.9,0.6
	c0.5,0.4,0.7,0.9,0.7,1.6c0,0.4-0.1,0.8-0.3,1.2c-0.2,0.3-0.5,0.6-0.9,0.8l2.3,3.3h-1.8l-2-3h-0.8v3H54z M56.4,26.5h-0.8v1.8h0.8
	c0.3,0,0.6-0.1,0.7-0.2c0.2-0.2,0.3-0.4,0.3-0.7c0-0.3-0.1-0.5-0.3-0.7S56.7,26.5,56.4,26.5z M61,32.6v-7.4h4.3v1.3h-2.8v1.7h2.4
	v1.3h-2.4v1.8h2.8v1.3H61z M10,43.8v-7.4h2.9c0.6,0,1.1,0.1,1.6,0.3c0.5,0.2,0.9,0.5,1.2,0.8c0.3,0.3,0.6,0.7,0.8,1.2
	c0.2,0.4,0.3,0.9,0.3,1.4c0,0.5-0.1,1-0.3,1.4c-0.2,0.4-0.5,0.8-0.8,1.2c-0.3,0.3-0.8,0.6-1.2,0.8c-0.5,0.2-1,0.3-1.6,0.3H10z
	 M12.9,37.7h-1.4v4.7h1.4c0.3,0,0.7-0.1,0.9-0.2c0.3-0.1,0.5-0.3,0.7-0.5c0.2-0.2,0.4-0.5,0.5-0.7c0.1-0.3,0.2-0.6,0.2-0.9
	c0-0.3-0.1-0.6-0.2-0.9c-0.1-0.3-0.3-0.5-0.5-0.7c-0.2-0.2-0.5-0.4-0.7-0.5C13.6,37.8,13.3,37.7,12.9,37.7z M18.3,43.8v-7.4h4.3v1.3
	h-2.8v1.7h2.4v1.3h-2.4v1.8h2.8v1.3H18.3z M27.1,43.8v-7.4h1.5v6h2.8v1.4H27.1z M32.1,43.8l2.8-7.4h2l2.8,7.4H38l-0.7-1.9h-3
	l-0.7,1.9H32.1z M34.8,40.6h2l-1-2.8L34.8,40.6z M42.8,37.7v-1.4h6.1v1.4h-2.3v6H45v-6H42.8z M50.1,43.8v-7.4h2.3
	c0.8,0,1.4,0.2,1.9,0.6c0.5,0.4,0.7,0.9,0.7,1.6c0,0.4-0.1,0.8-0.3,1.2c-0.2,0.3-0.5,0.6-0.9,0.8l2.3,3.3h-1.8l-2-3h-0.8v3H50.1z
	 M52.5,37.7h-0.8v1.8h0.8c0.3,0,0.6-0.1,0.7-0.2c0.2-0.2,0.3-0.4,0.3-0.7c0-0.3-0.1-0.5-0.3-0.7C53,37.7,52.8,37.7,52.5,37.7z
	 M56.5,43.8l2.8-7.4h2l2.8,7.4h-1.6l-0.7-1.9h-3l-0.7,1.9H56.5z M59.2,40.6h2l-1-2.8L59.2,40.6z M65.2,43.8v-7.4h1.9l3.3,5.3v-5.3
	h1.5v7.4H70l-3.3-5.3v5.3H65.2z M74,43.8v-7.4h4.3v1.3h-2.8v1.7h2.4v1.3h-2.4v3.1H74z M82.9,36.2c0.6,0,1.1,0.1,1.6,0.3
	c0.5,0.2,0.9,0.5,1.2,0.8s0.6,0.8,0.8,1.2c0.2,0.5,0.3,1,0.3,1.5c0,0.5-0.1,1-0.3,1.5c-0.2,0.5-0.5,0.9-0.8,1.2
	c-0.3,0.4-0.8,0.6-1.2,0.8c-0.5,0.2-1,0.3-1.6,0.3c-0.6,0-1.1-0.1-1.6-0.3c-0.5-0.2-0.9-0.5-1.2-0.8c-0.3-0.4-0.6-0.8-0.8-1.2
	c-0.2-0.5-0.3-1-0.3-1.5c0-0.5,0.1-1,0.3-1.5c0.2-0.5,0.5-0.9,0.8-1.2s0.8-0.6,1.2-0.8C81.8,36.3,82.3,36.2,82.9,36.2z M82.9,42.6
	c0.3,0,0.7-0.1,1-0.2c0.3-0.1,0.5-0.3,0.7-0.5c0.2-0.2,0.4-0.5,0.5-0.8c0.1-0.3,0.2-0.6,0.2-1s-0.1-0.7-0.2-1
	c-0.1-0.3-0.3-0.6-0.5-0.8c-0.2-0.2-0.5-0.4-0.7-0.5c-0.3-0.1-0.6-0.2-1-0.2s-0.7,0.1-1,0.2c-0.3,0.1-0.5,0.3-0.8,0.5
	c-0.2,0.2-0.4,0.5-0.5,0.8c-0.1,0.3-0.2,0.6-0.2,1s0.1,0.7,0.2,1c0.1,0.3,0.3,0.6,0.5,0.8c0.2,0.2,0.5,0.4,0.8,0.5
	C82.2,42.5,82.5,42.6,82.9,42.6z M88.2,43.8v-7.4h2.3c0.8,0,1.4,0.2,1.9,0.6c0.5,0.4,0.7,0.9,0.7,1.6c0,0.4-0.1,0.8-0.3,1.2
	c-0.2,0.3-0.5,0.6-0.9,0.8l2.3,3.3h-1.8l-2-3h-0.8v3H88.2z M90.6,37.7h-0.8v1.8h0.8c0.3,0,0.6-0.1,0.7-0.2c0.2-0.2,0.3-0.4,0.3-0.7
	c0-0.3-0.1-0.5-0.3-0.7C91.1,37.7,90.9,37.7,90.6,37.7z M95.2,43.8v-7.4h1.9l1.8,3l1.8-3h1.9v7.4H101v-5.3l-1.6,2.7h-1.1l-1.6-2.7
	v5.3H95.2z M103.6,43.8l2.8-7.4h2l2.8,7.4h-1.6l-0.7-1.9h-3l-0.7,1.9H103.6z M106.4,40.6h2l-1-2.8L106.4,40.6z M110.8,37.7v-1.4h6.1
	v1.4h-2.3v6h-1.5v-6H110.8z M118.2,43.8v-7.4h1.5v7.4H118.2z M125.1,36.2c0.6,0,1.1,0.1,1.6,0.3c0.5,0.2,0.9,0.5,1.2,0.8
	c0.3,0.4,0.6,0.8,0.8,1.2c0.2,0.5,0.3,1,0.3,1.5c0,0.5-0.1,1-0.3,1.5c-0.2,0.5-0.5,0.9-0.8,1.2c-0.3,0.4-0.8,0.6-1.2,0.8
	c-0.5,0.2-1,0.3-1.6,0.3c-0.6,0-1.1-0.1-1.6-0.3c-0.5-0.2-0.9-0.5-1.2-0.8c-0.3-0.4-0.6-0.8-0.8-1.2c-0.2-0.5-0.3-1-0.3-1.5
	c0-0.5,0.1-1,0.3-1.5c0.2-0.5,0.5-0.9,0.8-1.2c0.3-0.4,0.8-0.6,1.2-0.8C124,36.3,124.5,36.2,125.1,36.2z M125.1,42.6
	c0.3,0,0.7-0.1,1-0.2c0.3-0.1,0.5-0.3,0.7-0.5c0.2-0.2,0.4-0.5,0.5-0.8c0.1-0.3,0.2-0.6,0.2-1s-0.1-0.7-0.2-1
	c-0.1-0.3-0.3-0.6-0.5-0.8c-0.2-0.2-0.5-0.4-0.7-0.5c-0.3-0.1-0.6-0.2-1-0.2s-0.7,0.1-1,0.2c-0.3,0.1-0.5,0.3-0.8,0.5
	c-0.2,0.2-0.4,0.5-0.5,0.8c-0.1,0.3-0.2,0.6-0.2,1s0.1,0.7,0.2,1c0.1,0.3,0.3,0.6,0.5,0.8c0.2,0.2,0.5,0.4,0.8,0.5
	C124.4,42.5,124.7,42.6,125.1,42.6z M130.4,43.8v-7.4h1.9l3.3,5.3v-5.3h1.5v7.4h-1.9l-3.3-5.3v5.3H130.4z M10,54.9v-7.4h4.3v1.3
	h-2.8v1.7h2.4v1.3h-2.4v1.8h2.8v1.3H10z M15.4,48.9v-1.4h6.1v1.4h-2.3v6h-1.5v-6H15.4z M25.6,54.9v-7.4h2.9c0.6,0,1.1,0.1,1.6,0.3
	c0.5,0.2,0.9,0.5,1.2,0.8c0.3,0.3,0.6,0.7,0.8,1.2c0.2,0.4,0.3,0.9,0.3,1.4c0,0.5-0.1,1-0.3,1.4c-0.2,0.4-0.5,0.8-0.8,1.2
	c-0.3,0.3-0.8,0.6-1.2,0.8c-0.5,0.2-1,0.3-1.6,0.3H25.6z M28.5,48.9h-1.4v4.7h1.4c0.3,0,0.7-0.1,0.9-0.2c0.3-0.1,0.5-0.3,0.7-0.5
	c0.2-0.2,0.4-0.5,0.5-0.7c0.1-0.3,0.2-0.6,0.2-0.9c0-0.3-0.1-0.6-0.2-0.9c-0.1-0.3-0.3-0.5-0.5-0.7c-0.2-0.2-0.5-0.4-0.7-0.5
	C29.2,49,28.8,48.9,28.5,48.9z M33.8,54.9v-7.4h4.3v1.3h-2.8v1.7h2.4v1.3h-2.4v1.8h2.8v1.3H33.8z M42.6,54.9v-7.4h1.5v6h2.8v1.4
	H42.6z M47.6,54.9l2.8-7.4h2l2.8,7.4h-1.6L52.9,53h-3l-0.7,1.9H47.6z M50.4,51.7h2l-1-2.8L50.4,51.7z M59.1,54.9v-7.4h4.3v1.3h-2.8
	v1.7H63v1.3h-2.4v3.1H59.1z M68,47.3c0.6,0,1.1,0.1,1.6,0.3c0.5,0.2,0.9,0.5,1.2,0.8s0.6,0.8,0.8,1.2c0.2,0.5,0.3,1,0.3,1.5
	c0,0.5-0.1,1-0.3,1.5c-0.2,0.5-0.5,0.9-0.8,1.2c-0.3,0.4-0.8,0.6-1.2,0.8c-0.5,0.2-1,0.3-1.6,0.3c-0.6,0-1.1-0.1-1.6-0.3
	c-0.5-0.2-0.9-0.5-1.2-0.8c-0.3-0.4-0.6-0.8-0.8-1.2c-0.2-0.5-0.3-1-0.3-1.5c0-0.5,0.1-1,0.3-1.5c0.2-0.5,0.5-0.9,0.8-1.2
	s0.8-0.6,1.2-0.8C66.9,47.4,67.4,47.3,68,47.3z M68,53.7c0.3,0,0.7-0.1,1-0.2c0.3-0.1,0.5-0.3,0.7-0.5c0.2-0.2,0.4-0.5,0.5-0.8
	c0.1-0.3,0.2-0.6,0.2-1s-0.1-0.7-0.2-1c-0.1-0.3-0.3-0.6-0.5-0.8c-0.2-0.2-0.5-0.4-0.7-0.5s-0.6-0.2-1-0.2c-0.3,0-0.7,0.1-1,0.2
	c-0.3,0.1-0.5,0.3-0.8,0.5c-0.2,0.2-0.4,0.5-0.5,0.8c-0.1,0.3-0.2,0.6-0.2,1s0.1,0.7,0.2,1c0.1,0.3,0.3,0.6,0.5,0.8
	c0.2,0.2,0.5,0.4,0.8,0.5C67.3,53.7,67.6,53.7,68,53.7z M73.3,54.9v-7.4h1.9l3.3,5.3v-5.3h1.5v7.4h-1.9l-3.3-5.3v5.3H73.3z
	 M85.4,53.7c0.4,0,0.8-0.1,1.1-0.3c0.3-0.2,0.6-0.4,0.8-0.7l1.2,0.9c-0.3,0.5-0.8,0.8-1.3,1.1c-0.5,0.3-1.1,0.4-1.8,0.4
	c-0.6,0-1.1-0.1-1.6-0.3c-0.5-0.2-0.9-0.5-1.2-0.8c-0.3-0.4-0.6-0.8-0.8-1.2c-0.2-0.5-0.3-1-0.3-1.5c0-0.5,0.1-1,0.3-1.5
	c0.2-0.5,0.5-0.9,0.8-1.2s0.8-0.6,1.2-0.8c0.5-0.2,1-0.3,1.6-0.3c0.7,0,1.3,0.1,1.8,0.4c0.5,0.3,1,0.6,1.3,1.1l-1.2,0.9
	c-0.2-0.3-0.5-0.5-0.8-0.7c-0.3-0.2-0.7-0.3-1.1-0.3c-0.3,0-0.7,0.1-1,0.2c-0.3,0.1-0.5,0.3-0.8,0.5c-0.2,0.2-0.4,0.5-0.5,0.8
	c-0.1,0.3-0.2,0.6-0.2,1s0.1,0.7,0.2,1c0.1,0.3,0.3,0.6,0.5,0.8c0.2,0.2,0.5,0.4,0.8,0.5C84.8,53.7,85.1,53.7,85.4,53.7z M89.1,48.9
	v-1.4h6.1v1.4h-2.3v6h-1.5v-6H89.1z M96.4,54.9v-7.4h1.5v7.4H96.4z M103.3,47.3c0.6,0,1.1,0.1,1.6,0.3c0.5,0.2,0.9,0.5,1.2,0.8
	s0.6,0.8,0.8,1.2c0.2,0.5,0.3,1,0.3,1.5c0,0.5-0.1,1-0.3,1.5c-0.2,0.5-0.5,0.9-0.8,1.2c-0.3,0.4-0.8,0.6-1.2,0.8
	c-0.5,0.2-1,0.3-1.6,0.3s-1.1-0.1-1.6-0.3c-0.5-0.2-0.9-0.5-1.2-0.8c-0.3-0.4-0.6-0.8-0.8-1.2c-0.2-0.5-0.3-1-0.3-1.5
	c0-0.5,0.1-1,0.3-1.5c0.2-0.5,0.5-0.9,0.8-1.2s0.8-0.6,1.2-0.8C102.2,47.4,102.7,47.3,103.3,47.3z M103.3,53.7c0.3,0,0.7-0.1,1-0.2
	c0.3-0.1,0.5-0.3,0.7-0.5c0.2-0.2,0.4-0.5,0.5-0.8c0.1-0.3,0.2-0.6,0.2-1s-0.1-0.7-0.2-1c-0.1-0.3-0.3-0.6-0.5-0.8
	c-0.2-0.2-0.5-0.4-0.7-0.5s-0.6-0.2-1-0.2s-0.7,0.1-1,0.2c-0.3,0.1-0.5,0.3-0.8,0.5c-0.2,0.2-0.4,0.5-0.5,0.8
	c-0.1,0.3-0.2,0.6-0.2,1s0.1,0.7,0.2,1c0.1,0.3,0.3,0.6,0.5,0.8c0.2,0.2,0.5,0.4,0.8,0.5C102.6,53.7,103,53.7,103.3,53.7z
	 M108.7,54.9v-7.4h1.9l3.3,5.3v-5.3h1.5v7.4h-1.9l-3.3-5.3v5.3H108.7z M10,66.1v-7.4h2.4c0.8,0,1.4,0.2,1.9,0.6
	c0.5,0.4,0.7,0.9,0.7,1.6c0,0.7-0.2,1.2-0.7,1.6c-0.5,0.4-1.1,0.6-1.9,0.6h-0.9v3H10z M12.5,60h-1v1.8h1c0.3,0,0.6-0.1,0.7-0.2
	c0.2-0.2,0.3-0.4,0.3-0.7c0-0.3-0.1-0.5-0.3-0.7C13.1,60.1,12.8,60,12.5,60z M20.6,63.3v-4.6h1.5v4.5c0,1-0.3,1.7-0.8,2.3
	c-0.5,0.6-1.3,0.8-2.2,0.8c-0.9,0-1.6-0.3-2.2-0.8c-0.5-0.6-0.8-1.3-0.8-2.3v-4.5h1.5v4.6c0,0.5,0.1,0.9,0.4,1.2
	c0.3,0.3,0.6,0.4,1.1,0.4c0.5,0,0.8-0.1,1.1-0.4C20.5,64.2,20.6,63.8,20.6,63.3z M24,66.1v-7.4h2.1c0.8,0,1.4,0.2,1.8,0.5
	c0.4,0.4,0.7,0.8,0.7,1.5c0,0.3-0.1,0.6-0.2,0.8c-0.1,0.2-0.3,0.5-0.6,0.6c0.4,0.2,0.7,0.4,0.9,0.7c0.2,0.3,0.3,0.6,0.3,1
	c0,0.7-0.2,1.2-0.7,1.6c-0.5,0.4-1.2,0.6-2,0.6H24z M26.1,60h-0.6v1.6h0.6c0.3,0,0.5-0.1,0.7-0.2C27,61.2,27,61,27,60.8
	c0-0.2-0.1-0.4-0.2-0.6C26.6,60,26.4,60,26.1,60z M26.3,62.9h-0.8v1.9h0.8c0.3,0,0.6-0.1,0.8-0.3c0.2-0.2,0.3-0.4,0.3-0.7
	c0-0.3-0.1-0.5-0.3-0.7C27,63,26.7,62.9,26.3,62.9z M30.5,66.1v-7.4H32v6h2.8v1.4H30.5z M36.2,66.1v-7.4h1.5v7.4H36.2z M45.9,65.9
	c0.3,0.3,0.6,0.4,0.8,0.5c0.3,0.1,0.5,0.2,0.7,0.2c0.1,0,0.2,0,0.3,0c0.1,0,0.2,0,0.3-0.1v1.3c-0.1,0-0.2,0.1-0.4,0.1
	c-0.1,0-0.3,0-0.4,0c-0.4,0-0.8-0.1-1.2-0.2c-0.4-0.2-0.8-0.4-1.1-0.7L44,66.2c-0.2,0-0.3,0.1-0.5,0.1c-0.2,0-0.3,0-0.5,0
	c-0.6,0-1.1-0.1-1.6-0.3s-0.9-0.5-1.2-0.8c-0.3-0.4-0.6-0.8-0.8-1.2c-0.2-0.5-0.3-1-0.3-1.5c0-0.5,0.1-1,0.3-1.5
	c0.2-0.5,0.5-0.9,0.8-1.2c0.3-0.4,0.8-0.6,1.2-0.8c0.5-0.2,1-0.3,1.6-0.3c0.6,0,1.1,0.1,1.6,0.3c0.5,0.2,0.9,0.5,1.2,0.8
	c0.3,0.4,0.6,0.8,0.8,1.2c0.2,0.5,0.3,1,0.3,1.5c0,0.6-0.1,1.2-0.4,1.7c-0.3,0.5-0.6,1-1.1,1.4L45.9,65.9z M43,64.9
	c0.3,0,0.7-0.1,1-0.2c0.3-0.1,0.5-0.3,0.7-0.5c0.2-0.2,0.4-0.5,0.5-0.8c0.1-0.3,0.2-0.6,0.2-1s-0.1-0.7-0.2-1
	c-0.1-0.3-0.3-0.6-0.5-0.8c-0.2-0.2-0.5-0.4-0.7-0.5c-0.3-0.1-0.6-0.2-1-0.2c-0.3,0-0.7,0.1-1,0.2c-0.3,0.1-0.5,0.3-0.8,0.5
	c-0.2,0.2-0.4,0.5-0.5,0.8c-0.1,0.3-0.2,0.6-0.2,1s0.1,0.7,0.2,1c0.1,0.3,0.3,0.6,0.5,0.8c0.2,0.2,0.5,0.4,0.8,0.5
	C42.4,64.8,42.7,64.9,43,64.9z M52.7,63.3v-4.6h1.5v4.5c0,1-0.3,1.7-0.8,2.3c-0.5,0.6-1.3,0.8-2.2,0.8c-0.9,0-1.6-0.3-2.2-0.8
	c-0.5-0.6-0.8-1.3-0.8-2.3v-4.5h1.5v4.6c0,0.5,0.1,0.9,0.4,1.2c0.3,0.3,0.6,0.4,1.1,0.4c0.5,0,0.8-0.1,1.1-0.4
	C52.6,64.2,52.7,63.8,52.7,63.3z M56.1,66.1v-7.4h4.3V60h-2.8v1.7H60V63h-2.4v1.8h2.8v1.3H56.1z"/>
<path id="Rouge_5_" class="st1" d="M21.5,18.9c0.1-0.1,0.2-0.2,0.3-0.3h0c0.2-0.2,0.4-0.5,0.6-0.7c0.1-0.1,0.1-0.1,0.2-0.2
	c0,0,0-0.1,0-0.1c-0.1,0-0.2,0.1-0.2,0.2c0,0,0,0,0,0c0.1-0.1,0.1-0.1,0.2-0.2c0,0,0,0,0,0c0,0,0,0,0,0c-0.2,0-0.4,0.1-0.6,0.3
	c0,0-0.1,0-0.1,0c-0.3,0.1-0.5,0.3-0.8,0.5v0c-0.1,0-0.2,0.1-0.3,0.1c-0.2,0-0.3,0-0.5,0c-0.2,0-0.5,0.1-0.7,0.1c0,0,0,0,0,0
	c-0.1,0-0.2,0.1-0.4,0.1c0,0,0,0,0,0c0,0,0,0,0,0c0,0-0.1,0.1-0.1,0.1c-0.1,0.1-0.2,0.2-0.3,0.2c0,0,0,0,0,0
	c-0.1,0.1-0.2,0.2-0.3,0.3c0,0,0,0-0.1,0c0,0,0,0,0,0c0,0,0,0,0,0c0,0,0-0.1,0-0.1c0,0,0-0.1,0.1-0.1c0,0,0.1-0.1,0.1-0.1
	c0,0,0,0,0,0c0,0,0,0,0,0c0.1-0.1,0.2-0.2,0.3-0.2v0c0,0,0,0,0,0c0,0,0,0,0-0.1c0,0,0,0,0,0c0,0,0,0,0,0c0,0-0.1,0-0.1,0.1
	c0,0-0.1,0.1-0.2,0.1c0,0,0,0,0,0c0,0,0,0,0,0c0,0,0,0,0,0c0,0,0,0,0,0c0,0,0,0,0,0c0,0,0,0,0,0c0,0,0,0,0,0c0,0,0,0,0,0
	c0,0,0,0,0,0c0,0,0,0,0,0c0,0,0,0,0,0c0,0,0,0,0,0c0,0,0,0,0,0c0,0,0,0,0,0c0,0,0.1-0.1,0.1-0.1h0c0.1,0,0.1-0.1,0.2-0.1
	c0,0,0,0,0,0c-0.1,0-0.2,0.1-0.3,0.2c0,0,0,0,0,0c0,0,0,0,0,0c0,0,0,0,0,0c0,0,0.1-0.1,0.1-0.1c0,0,0,0,0,0c0.6-0.5,1.5-0.4,2.2-0.6
	c0.1,0,0.1-0.1,0.2-0.1c0.1,0,0.2-0.1,0.3-0.2c0.2-0.1,0.3-0.2,0.3-0.4c0,0,0,0,0,0c-0.2,0.3-0.5,0.5-0.8,0.6
	c-0.4,0.2-0.8,0.2-1.3,0.2c0,0,0.1,0,0.1,0c0-0.1,0-0.1,0.1-0.1h0.1c0,0,0,0,0,0c0,0,0.1,0,0.1,0c-0.1-0.1-0.2,0.1-0.3,0
	c0,0,0-0.1,0.1-0.1h0.1c0,0,0-0.1,0-0.1c0.3-0.2,0.6-0.3,0.8-0.5c-0.1,0-0.1,0.1-0.2,0c0,0,0-0.1,0-0.1c0.2-0.1,0.4-0.2,0.6-0.2
	c-0.1,0-0.1,0.1-0.2,0c0,0,0.1-0.1,0.1-0.1v-0.1c0,0,0,0,0,0c0,0,0,0,0,0c0,0,0.1,0,0.1-0.1c0,0-0.1,0-0.1,0
	c0.1-0.1,0.2-0.1,0.2-0.1c0,0-0.1,0-0.1,0c0,0,0,0,0,0h0c0,0,0-0.1,0-0.1c0.1-0.1,0.1-0.3,0.2-0.5c0,0,0,0,0,0
	c-0.2,0.2-0.5,0.3-0.8,0.4h-0.1c-0.1,0-0.2,0-0.3,0c-0.1,0-0.1-0.1-0.2-0.2c-0.2-0.1-0.3-0.2-0.5-0.2c-0.5-0.2-1-0.2-1.5-0.2
	c0.2-0.1,0.4-0.1,0.7-0.2c0.3-0.1,0.6-0.2,1-0.2c-0.1,0-0.1,0-0.2,0c-0.3,0-0.5,0.1-0.8,0.1c-0.2,0-0.4,0.1-0.6,0.2
	c-0.1,0-0.2,0.2-0.3,0.1v-0.1c0.2-0.2,0.4-0.5,0.7-0.5c0.3-0.1,0.7,0,1,0c0.2,0,0.5,0.1,0.7,0.1c0.1,0,0.1,0.2,0.2,0.2
	c0.1,0,0.2,0,0.3,0.1c0,0,0-0.1,0-0.1c0.1-0.1,0.2,0,0.2,0c0.2-0.1-0.1-0.3-0.2-0.4c0,0,0,0,0,0c0.2,0.1,0.3,0.3,0.5,0.4
	c0.1,0,0.3,0.1,0.3,0c-0.1-0.2-0.3-0.4-0.4-0.6v-0.1c0,0,0,0-0.1,0v-0.1c-0.1,0-0.1-0.1-0.1-0.2c-0.1-0.1,0-0.2-0.1-0.3
	c0-0.1-0.1-0.2-0.1-0.3c-0.1-0.3-0.1-0.6-0.2-0.9c0-0.4,0.2-0.7,0.4-1c0.1-0.2,0.3-0.5,0.5-0.6c0.1-0.2,0.2-0.4,0.4-0.6
	c0.2-0.2,0.4-0.3,0.6-0.4c0.3-0.1,0.5-0.2,0.5-0.2H10v10.1h9.3c0.4-0.3,0.7-0.4,1.2-0.6C20.8,19.4,21.3,19.1,21.5,18.9 M18.6,17.6
	C18.5,17.6,18.5,17.6,18.6,17.6c-0.1-0.1,0.1-0.1,0.1-0.2c0,0,0.1-0.1,0.1,0c0,0.1,0.1,0,0.1,0.1C18.9,17.6,18.7,17.5,18.6,17.6
	 M15.7,17.2C15.7,17.2,15.6,17.1,15.7,17.2c0.2-0.4,0.4-0.7,0.6-1c0.2-0.1,0.5-0.3,0.7-0.5c0.3-0.3,0.7-0.7,1.1-0.8
	c0.2-0.1,0.3,0,0.5,0c-0.1,0.1-0.2,0.1-0.2,0.1c0,0,0,0-0.1,0c0,0,0,0,0-0.1c-0.2,0.2-0.5,0.3-0.6,0.6c-0.1,0.2-0.2,0.4-0.4,0.5
	c-0.1,0,0-0.1,0,0C16.5,16.2,16.1,16.6,15.7,17.2 M17.2,15.9C17.2,15.9,17.2,15.9,17.2,15.9C17.2,16,17.1,16,17.1,16c0,0,0,0,0,0
	C17.1,15.9,17.1,15.9,17.2,15.9C17.2,15.8,17.2,15.9,17.2,15.9 M18.1,18.8C18.1,18.8,18.1,18.8,18.1,18.8
	C18.1,18.8,18.1,18.8,18.1,18.8c-0.1,0.1-0.1,0.2-0.2,0.2c0,0,0,0,0,0c0,0,0,0-0.1,0.1c0,0-0.1,0-0.1,0c0,0,0.1-0.1,0.1-0.1
	c0,0,0.1,0,0.1-0.1c0,0,0,0,0,0C18,18.7,18.1,18.7,18.1,18.8 M17.8,18.6C17.8,18.6,17.8,18.6,17.8,18.6c-0.1,0.1-0.1,0.1-0.2,0.1
	c-0.1,0-0.2,0.1-0.3,0.1c0,0,0,0,0,0c0,0,0,0,0,0c-0.1,0-0.1,0.1-0.2,0.1c0,0,0,0,0,0c0,0,0,0,0,0c0,0,0,0,0,0c0,0,0,0,0,0
	c0,0,0,0,0,0c0,0,0,0,0,0c0,0,0,0,0,0c0,0,0,0,0,0c0,0,0,0,0,0c0,0,0,0,0,0c0,0,0,0,0,0c0,0,0,0,0,0c0,0,0,0,0,0c0,0,0,0,0,0
	c0,0,0,0-0.1,0.1c0,0-0.1,0.1-0.1,0.1c0,0,0,0,0,0c0,0,0,0,0,0c0,0,0,0,0,0c0,0,0,0,0,0c0,0,0,0,0,0c0,0,0,0,0,0l0,0c0,0,0,0,0,0
	c0,0,0,0,0,0c0,0,0,0,0,0c0,0,0,0,0,0l0,0c0,0,0,0,0,0c0,0,0,0,0.1-0.1c0,0,0,0,0,0c0,0,0,0,0,0c0,0,0,0,0,0c0,0,0,0,0,0
	c0,0,0-0.1,0.1-0.1c0,0,0,0,0,0c0,0,0,0,0,0c0,0,0,0,0,0c0,0,0,0,0,0c0,0,0,0,0,0c0,0,0,0,0,0c0,0,0,0,0,0c0,0,0,0,0,0c0,0,0,0,0,0
	c0,0,0,0,0,0c0,0,0,0,0,0c0,0,0,0,0,0c0,0,0,0,0,0c0,0,0,0,0,0c0,0,0-0.1,0.1-0.1c0,0,0,0,0,0c0,0,0,0-0.1,0.1c0,0-0.1,0,0,0
	c0,0,0,0,0,0c0,0,0,0,0,0c0,0,0.1-0.1,0.1-0.1c0,0,0,0,0.1,0c0,0,0,0,0,0c0,0,0,0,0,0c0,0,0,0,0,0c0.2-0.2,0.5-0.2,0.7-0.3
	c0.1,0,0.2,0,0.3,0c0.1,0,0.1,0,0.2,0C18.1,18.4,17.9,18.5,17.8,18.6 M18.2,17.3C18.2,17.2,18.2,17.3,18.2,17.3L18.2,17.3
	C18.1,17.2,18.1,17.2,18.2,17.3c-0.2-0.1-0.3,0-0.4,0c-0.1,0-0.2,0.1-0.4,0.2c-0.2,0.1-0.4,0.2-0.6,0.3c0,0,0,0,0,0
	c0-0.1,0.1-0.1,0.1-0.1c0,0,0,0,0,0c0.2-0.2,0.4-0.3,0.6-0.5V17c0.1-0.1,0.2-0.1,0.2-0.2c0-0.1,0.1-0.1,0.2-0.2c0,0-0.1,0-0.1-0.1
	c-0.1,0-0.2,0-0.2,0c0,0,0.1-0.1,0.1-0.1c0,0,0,0,0,0c0,0,0-0.1,0.1-0.1c0.1,0,0.2,0,0.2-0.1c-0.1,0-0.3,0-0.4,0
	c0.1-0.2,0.2-0.5,0.5-0.6c0,0,0.1,0,0.1,0c0,0.1-0.1,0.2-0.2,0.2c0.2,0,0.3,0,0.5,0.1c0,0-0.1,0-0.1,0c0.1,0.1,0.2,0,0.3,0.1
	c-0.1,0.1-0.1,0-0.2,0c0.6,0.2,1.2,0.3,1.7,0.7c-0.4,0.2-0.9,0.3-1.3,0.4c-0.1,0-0.1,0-0.2,0c0,0,0,0.1,0,0.1c-0.1,0-0.1,0-0.2,0
	C18.4,17.3,18.2,17.3,18.2,17.3"/>
<path id="Bleu_5_" class="st2" d="M37.9,10H27c0,0,0,0,0.1,0c0.1,0,0.2,0.1,0.3,0.1c0.1,0.1,0.3,0.2,0.4,0.3c0,0.1,0.1,0.2,0.1,0.2
	c0,0.1-0.1,0.2-0.2,0.3c-0.1,0.1-0.3,0.1-0.4,0c-0.1,0-0.2,0-0.2,0c0.3,0.1,0.6,0.2,0.7,0.5c0,0,0.1,0.1,0.2,0.1c0,0,0,0,0,0.1
	c0,0-0.1,0.1-0.1,0.1h0.1c0.1,0,0.1-0.2,0.2-0.2c0.1,0.1,0.1,0.2,0.1,0.3C28.1,12,28.1,12,28,12.1c0,0,0,0.1,0,0.1
	c0.1,0.1,0.1,0.2,0.1,0.2c0.1,0.1,0.1,0.3,0.1,0.4c0.1,0.3,0.2,0.6,0.1,0.9c0,0.2-0.1,0.3,0,0.4c0,0.2,0.1,0.3,0.2,0.4
	c0.1,0.1,0.2,0.2,0.2,0.3c0.1,0.2,0.3,0.4,0.2,0.6c-0.1,0.1-0.3,0.1-0.4,0.2c-0.1,0.1,0,0.2,0,0.3c0.1,0.2-0.1,0.3-0.2,0.3
	c0,0.1,0.1,0,0.1,0.1c0,0.1,0.1,0.2,0.1,0.2c-0.1,0.1-0.3,0.2-0.2,0.3c0.1,0.1,0,0.3,0,0.4c-0.1,0.2-0.2,0.2-0.3,0.3
	c-0.1,0-0.2,0-0.4,0c0,0-0.1,0-0.1,0c-0.3,0-0.7-0.1-1-0.1c-0.1,0-0.2,0-0.3,0.1c-0.1,0.1-0.2,0.1-0.2,0.2c0,0,0,0,0,0c0,0,0,0,0,0
	c0,0,0,0,0,0c0,0,0,0,0,0c-0.1,0.1-0.1,0.1-0.2,0.2c0,0,0,0,0,0c0,0,0,0,0,0c-0.1,0.1-0.1,0.2-0.1,0.4c-0.1,0.4-0.1,0.8,0,0.9
	c0,0,0.6,0.2,1.1,0.4c0.2,0.1,0.3,0.2,0.5,0.2h10.7V10z"/>
<path id="Yeux_5_" class="st3" d="M27.6,13.7c0.1,0,0.2,0,0.2,0.1c0,0.2-0.3,0.2-0.4,0.3h-0.1c-0.1,0,0,0.1-0.1,0.1
	c-0.1,0-0.1,0-0.2,0c0.1,0.1,0.2,0.1,0.3,0.1c0,0,0.1,0,0.1,0.1c0,0,0,0,0,0c0,0,0,0,0,0v0.1c-0.1,0.1-0.2,0-0.2,0.1
	c0.2,0,0.3,0,0.4,0c0.1,0,0-0.2,0.1-0.3c0,0,0-0.1,0-0.1c0,0,0.1-0.1,0.1-0.1c0,0,0.1,0,0.1-0.1c0,0-0.1-0.1-0.1-0.1
	c0.1-0.1,0.2-0.2,0.2-0.3c0-0.1-0.2-0.1-0.3-0.1c-0.1,0-0.2,0-0.3,0c-0.1,0-0.2,0.1-0.3,0.1c-0.1,0-0.2,0.1-0.4,0.2
	c0.1-0.1,0.3-0.1,0.4-0.1C27.4,13.7,27.5,13.7,27.6,13.7"/>
</svg>
